<!DOCTYPE svg PUBLIC "-//W3C//DTD SVG 20010904//EN" "http://www.w3.org/TR/2001/REC-SVG-20010904/DTD/svg10.dtd">
<svg version="1.0" xmlns="http://www.w3.org/2000/svg" width="174px" height="164px" viewBox="0 0 1740 1640" preserveAspectRatio="xMidYMid meet">
<g id="layer101" fill="rgb(255,184,41)" stroke="none">
 <path d="M225 1593 c8 -27 21 -74 30 -105 l16 -58 599 0 599 0 16 58 c9 31 22 78 30 105 l13 47 -658 0 -658 0 13 -47z"/>
 <path d="M265 1268 c-12 -33 -265 -989 -265 -1000 0 -7 102 89 228 214 l227 227 204 -354 c112 -195 207 -355 211 -355 4 0 99 160 211 355 l204 354 227 -227 c126 -125 228 -220 228 -212 0 8 -60 238 -133 510 l-133 495 -602 3 c-477 2 -604 0 -607 -10z"/>
 </g>

</svg>