<svg id="svg" version="1.1" width="400" height="316.8" viewBox="0 0 400 316.8" xmlns="http://www.w3.org/2000/svg" xmlns:xlink="http://www.w3.org/1999/xlink" ><g id="svgg"><path id="path0" d="M173.289 41.750 C 173.852 41.820,174.850 41.821,175.508 41.753 C 176.166 41.684,175.705 41.627,174.485 41.625 C 173.265 41.624,172.727 41.680,173.289 41.750 M40.175 66.685 C 39.895 66.965,39.525 67.195,39.354 67.195 C 38.766 67.195,37.426 69.115,37.210 70.267 C 36.911 71.861,37.500 73.276,39.166 74.966 C 39.938 75.749,40.571 76.532,40.571 76.705 C 40.571 76.879,40.784 77.021,41.046 77.021 C 41.307 77.021,41.521 77.163,41.521 77.337 C 41.521 77.695,43.609 80.682,44.453 81.533 C 44.758 81.840,45.008 82.224,45.008 82.386 C 45.008 82.548,45.218 82.891,45.475 83.148 C 45.886 83.559,45.847 83.677,45.141 84.140 C 44.303 84.689,42.675 83.971,40.729 82.195 C 39.537 81.107,35.158 81.175,34.090 82.299 C 31.947 84.551,32.345 89.204,34.718 89.654 C 35.060 89.719,35.412 89.863,35.499 89.973 C 35.762 90.307,37.524 91.472,38.075 91.676 C 38.623 91.880,38.542 93.475,37.964 93.852 C 37.803 93.958,37.432 95.262,37.141 96.752 L 36.610 99.459 35.500 99.284 C 34.889 99.188,34.342 98.989,34.284 98.841 C 34.144 98.487,26.394 98.494,26.175 98.849 C 26.081 99.000,25.443 99.214,24.757 99.324 C 23.515 99.522,21.378 101.336,20.862 102.629 C 20.296 104.050,20.591 109.996,21.303 111.507 C 21.876 112.724,22.038 113.777,22.189 117.274 C 22.433 122.922,23.540 124.789,27.275 125.854 C 28.050 126.075,28.820 126.374,28.986 126.519 C 29.151 126.664,29.971 126.783,30.808 126.783 C 32.405 126.783,32.669 127.109,32.034 128.293 C 31.872 128.595,31.491 130.383,31.188 132.265 C 30.885 134.147,30.519 135.760,30.374 135.849 C 30.229 135.939,30.111 136.375,30.111 136.819 C 30.111 137.687,29.312 141.116,28.867 142.155 C 28.718 142.504,28.424 143.431,28.214 144.216 C 28.004 145.000,27.642 146.070,27.409 146.593 C 27.175 147.116,26.816 148.399,26.611 149.445 C 26.405 150.491,26.093 151.618,25.918 151.950 C 25.471 152.796,24.791 158.213,24.531 162.995 L 24.311 167.036 21.157 167.036 C 16.563 167.036,14.548 168.295,12.274 172.583 L 11.266 174.485 11.101 187.413 C 10.969 197.725,10.849 200.394,10.511 200.602 C 10.265 200.755,9.909 202.108,9.661 203.839 C 9.427 205.476,8.979 207.599,8.667 208.558 C 7.620 211.768,8.001 252.253,9.091 253.619 C 9.406 254.014,9.508 255.064,10.025 263.233 C 10.136 264.976,10.331 266.545,10.460 266.719 C 10.894 267.308,11.134 269.459,11.387 275.029 C 11.529 278.137,11.781 280.664,11.961 280.778 C 12.137 280.891,12.384 281.453,12.508 282.027 C 12.633 282.601,13.079 283.442,13.499 283.896 C 13.919 284.349,14.263 284.840,14.263 284.987 C 14.263 285.745,16.868 286.847,19.085 287.026 C 21.215 287.198,22.734 287.629,23.147 288.177 C 23.239 288.299,24.950 288.563,26.949 288.763 C 28.948 288.963,30.870 289.291,31.219 289.492 C 32.062 289.977,78.971 289.931,79.986 289.444 C 81.596 288.671,84.043 288.431,90.296 288.431 C 94.391 288.431,97.027 288.309,97.147 288.114 C 97.255 287.940,97.745 287.797,98.236 287.797 C 101.303 287.797,105.864 283.798,105.864 281.107 C 105.864 280.344,106.525 278.234,106.847 277.971 C 106.953 277.884,107.142 276.893,107.267 275.768 C 107.506 273.623,107.888 272.594,108.604 272.171 C 108.840 272.032,109.033 271.715,109.033 271.467 C 109.033 271.220,109.390 270.238,109.826 269.285 C 110.261 268.332,110.618 267.250,110.618 266.880 C 110.618 265.876,111.314 263.260,111.638 263.045 C 112.168 262.693,112.512 255.322,112.330 248.177 C 112.204 243.201,112.263 240.567,112.525 239.461 C 113.145 236.841,113.254 234.853,112.822 234.046 C 112.526 233.492,112.515 233.192,112.780 232.873 C 112.976 232.637,113.358 231.456,113.629 230.247 C 113.900 229.039,114.241 227.765,114.387 227.417 C 114.881 226.230,115.314 224.567,115.521 223.059 C 115.635 222.231,115.862 221.553,116.026 221.553 C 116.189 221.553,116.326 221.090,116.328 220.523 C 116.335 219.150,117.132 215.817,117.513 215.569 C 117.680 215.461,118.001 214.802,118.226 214.105 C 118.614 212.904,119.838 211.410,120.433 211.410 C 120.849 211.410,123.296 209.047,123.296 208.645 C 123.296 208.452,123.444 208.244,123.625 208.184 C 125.302 207.625,125.227 193.027,123.547 193.027 C 123.409 193.027,123.296 192.706,123.295 192.314 C 123.292 191.216,122.689 189.295,122.191 188.797 C 121.944 188.551,121.648 187.972,121.532 187.510 C 121.416 187.049,121.053 186.527,120.724 186.351 C 120.396 186.175,120.127 185.824,120.127 185.570 C 120.127 185.316,119.842 184.930,119.493 184.712 C 119.144 184.495,118.859 184.142,118.859 183.929 C 118.859 183.298,116.261 180.968,114.976 180.446 C 114.323 180.180,113.788 179.862,113.788 179.738 C 113.788 179.615,113.003 179.266,112.044 178.964 C 111.086 178.662,110.301 178.286,110.301 178.128 C 110.301 177.971,109.766 177.745,109.113 177.627 C 107.380 177.314,106.869 176.992,104.693 174.841 C 103.613 173.774,102.044 172.402,101.206 171.793 C 100.369 171.184,99.607 170.583,99.513 170.458 C 99.420 170.333,98.814 170.009,98.166 169.739 C 97.519 169.468,96.989 169.129,96.989 168.985 C 96.989 168.637,95.534 167.987,94.755 167.987 C 94.415 167.987,94.136 167.858,94.136 167.700 C 94.136 167.297,91.380 166.403,90.137 166.403 C 89.568 166.403,89.014 166.260,88.906 166.086 C 88.796 165.907,87.278 165.769,85.438 165.769 L 82.166 165.769 81.603 163.379 C 81.294 162.065,80.921 160.915,80.774 160.825 C 80.627 160.734,80.507 160.150,80.507 159.527 C 80.507 155.801,79.961 155.543,74.010 156.448 C 63.430 158.057,56.703 157.722,53.254 155.414 C 52.647 155.007,52.031 154.675,51.885 154.675 C 51.739 154.675,50.998 154.247,50.238 153.724 C 49.478 153.201,48.725 152.773,48.565 152.773 C 48.405 152.773,47.978 152.524,47.615 152.219 C 47.253 151.914,46.317 151.165,45.536 150.555 C 44.754 149.945,43.863 149.017,43.555 148.494 C 43.247 147.971,42.894 147.472,42.769 147.385 C 42.225 147.003,41.521 144.641,41.521 143.194 C 41.521 140.423,43.851 138.842,46.751 139.646 C 47.421 139.831,49.762 142.802,49.762 143.466 C 49.762 143.899,57.225 148.970,57.863 148.970 C 58.085 148.970,58.327 149.148,58.401 149.366 C 58.564 149.848,71.605 149.757,72.092 149.271 C 72.258 149.105,73.755 148.971,75.420 148.971 C 78.277 148.973,81.421 148.300,81.722 147.623 C 81.780 147.492,82.030 147.385,82.277 147.385 C 82.644 147.385,82.726 146.527,82.726 142.670 C 82.726 140.077,82.815 137.510,82.924 136.965 L 83.122 135.975 90.848 135.975 C 95.097 135.975,98.574 135.858,98.574 135.715 C 98.574 135.572,99.303 135.257,100.194 135.014 C 101.085 134.771,101.885 134.389,101.971 134.164 C 102.058 133.940,102.302 133.756,102.514 133.756 C 105.222 133.756,106.982 123.428,104.877 119.897 C 103.430 117.470,100.393 116.006,96.804 116.006 C 96.237 116.006,95.726 115.870,95.668 115.704 C 95.610 115.537,93.423 115.251,90.808 115.067 C 88.193 114.884,85.412 114.650,84.628 114.548 L 83.201 114.362 83.303 111.739 C 83.414 108.861,82.936 104.608,82.468 104.310 C 82.305 104.206,82.077 103.621,81.961 103.011 C 81.548 100.835,81.055 99.208,80.808 99.208 C 80.670 99.208,80.463 98.744,80.348 98.177 C 80.034 96.637,79.459 95.087,79.201 95.087 C 79.075 95.087,78.881 94.671,78.770 94.163 C 78.658 93.655,78.219 92.835,77.794 92.341 C 77.369 91.846,77.021 91.274,77.021 91.069 C 77.021 90.863,76.833 90.507,76.603 90.276 C 76.374 90.046,75.910 89.432,75.573 88.912 C 74.346 87.018,72.156 84.736,71.308 84.467 C 70.457 84.197,70.480 84.094,72.112 80.923 C 72.898 79.394,73.774 77.317,74.058 76.306 C 74.341 75.295,74.696 74.392,74.846 74.299 C 75.228 74.063,75.189 72.266,74.802 72.266 C 74.628 72.266,74.485 71.991,74.485 71.655 C 74.485 70.091,72.511 68.779,70.169 68.787 C 67.172 68.796,65.911 69.933,64.863 73.570 C 64.581 74.548,64.135 75.760,63.873 76.264 C 63.610 76.767,63.394 77.332,63.393 77.518 C 63.392 77.705,62.892 78.441,62.282 79.153 C 61.672 79.866,61.173 80.590,61.173 80.761 C 61.173 81.452,58.869 81.660,56.287 81.201 C 55.305 81.027,54.916 80.748,54.430 79.872 C 54.091 79.263,53.616 78.650,53.373 78.510 C 53.130 78.371,52.932 78.050,52.932 77.797 C 52.932 77.544,52.676 77.082,52.364 76.769 C 52.051 76.457,51.604 75.738,51.369 75.172 C 51.135 74.607,50.677 74.002,50.353 73.828 C 50.028 73.654,49.762 73.305,49.762 73.052 C 49.762 72.179,45.289 67.229,44.480 67.205 C 44.276 67.200,44.056 67.034,43.991 66.838 C 43.785 66.219,40.762 66.098,40.175 66.685 M32.647 108.042 C 32.647 108.194,33.217 108.410,33.914 108.521 C 35.124 108.715,35.518 109.105,34.892 109.492 C 34.732 109.591,34.500 111.240,34.376 113.156 L 34.150 116.640 33.240 116.640 C 32.462 116.640,32.327 116.513,32.314 115.769 C 32.273 113.525,32.013 112.190,31.252 110.317 C 30.211 107.756,30.210 107.765,31.537 107.765 C 32.147 107.765,32.647 107.890,32.647 108.042 M88.625 124.268 C 90.872 124.628,93.319 125.003,94.064 125.102 C 94.809 125.201,95.495 125.406,95.589 125.557 C 95.791 125.885,93.660 125.902,87.559 125.623 L 83.043 125.416 83.043 124.515 C 83.043 123.398,83.160 123.392,88.625 124.268 M39.472 129.006 C 41.948 129.947,42.329 133.015,40.197 134.841 C 38.950 135.908,37.401 136.360,37.401 135.658 C 37.401 135.483,37.223 135.341,37.005 135.340 C 35.983 135.339,34.768 133.768,34.738 132.409 C 34.679 129.705,36.973 128.056,39.472 129.006 M74.333 129.460 C 75.800 130.580,76.066 134.685,74.672 134.714 C 74.482 134.718,73.970 135.000,73.534 135.341 C 72.663 136.022,71.813 136.142,71.223 135.666 C 68.954 133.834,69.034 133.959,69.047 132.265 C 69.072 129.065,71.868 127.581,74.333 129.460 M312.124 156.809 C 312.865 156.876,314.077 156.876,314.818 156.809 C 315.559 156.742,314.952 156.688,313.471 156.688 C 311.989 156.688,311.383 156.742,312.124 156.809 " stroke="none" fill="#4c4c94" fill-rule="evenodd"></path><path id="path1" d="M288.431 38.923 C 287.684 39.431,286.221 40.866,285.340 41.956 C 284.180 43.391,283.960 52.441,285.025 54.862 C 285.287 55.457,285.744 56.620,286.041 57.448 C 286.339 58.277,286.713 58.954,286.872 58.954 C 287.032 58.954,287.163 59.136,287.163 59.359 C 287.163 59.771,288.638 61.668,289.947 62.939 C 290.614 63.587,290.630 63.683,290.158 64.155 C 289.876 64.437,289.501 65.200,289.324 65.852 C 289.147 66.503,288.818 67.250,288.592 67.512 C 288.367 67.773,287.921 68.843,287.602 69.889 C 287.283 70.935,286.908 71.873,286.768 71.973 C 286.629 72.073,286.386 72.942,286.229 73.905 C 286.073 74.868,285.702 76.213,285.407 76.893 C 285.111 77.573,284.773 78.558,284.656 79.080 L 284.443 80.031 283.668 79.138 C 282.860 78.210,279.405 75.850,277.892 75.194 C 277.413 74.986,277.021 74.682,277.021 74.518 C 277.021 74.354,276.379 73.975,275.594 73.676 C 274.810 73.376,274.168 73.021,274.168 72.886 C 274.168 72.337,269.683 71.893,265.206 71.998 L 260.523 72.108 258.787 74.003 C 257.833 75.045,257.051 76.044,257.050 76.222 C 257.049 76.400,256.802 76.973,256.502 77.496 C 255.848 78.634,255.676 86.064,256.294 86.462 C 256.488 86.586,256.837 87.258,257.071 87.956 C 257.491 89.209,258.464 90.753,259.729 92.175 C 261.509 94.176,263.322 95.875,264.482 96.628 C 265.190 97.087,265.957 97.642,266.187 97.860 C 266.418 98.078,266.730 98.257,266.881 98.257 C 267.032 98.257,267.628 98.698,268.205 99.238 C 269.485 100.433,272.474 102.694,272.775 102.694 C 273.111 102.694,276.531 104.998,276.658 105.311 C 276.720 105.463,277.134 105.726,277.578 105.895 L 278.385 106.202 278.206 115.585 C 278.100 121.103,277.899 125.048,277.718 125.162 C 277.342 125.400,277.090 127.387,276.832 132.171 C 276.724 134.176,276.508 135.952,276.353 136.117 C 276.197 136.283,276.070 138.734,276.070 141.563 C 276.070 147.314,275.849 146.819,278.605 147.239 C 279.390 147.359,280.189 147.583,280.381 147.738 C 282.032 149.066,318.358 149.029,318.806 147.699 C 318.864 147.526,319.292 147.384,319.757 147.383 C 321.084 147.381,322.899 146.784,323.090 146.287 C 323.185 146.039,323.841 145.663,324.547 145.451 C 325.254 145.239,325.832 144.967,325.832 144.847 C 325.832 144.726,326.616 144.001,327.575 143.236 C 328.534 142.471,329.319 141.642,329.319 141.394 C 329.319 138.077,334.360 136.416,336.767 138.940 C 337.991 140.223,338.178 144.400,337.073 145.792 C 335.211 148.137,331.462 151.572,329.635 152.605 C 328.502 153.246,327.120 154.053,326.564 154.399 C 326.007 154.745,325.223 155.046,324.821 155.066 C 324.418 155.087,323.946 155.205,323.772 155.327 C 321.982 156.586,297.595 157.289,291.125 156.268 C 290.079 156.103,287.655 155.807,285.737 155.611 C 279.376 154.958,277.818 154.758,277.258 154.523 C 276.777 154.321,276.704 154.482,276.704 155.751 C 276.704 156.554,276.561 157.211,276.387 157.211 C 276.191 157.211,276.070 158.842,276.070 161.471 C 276.070 163.969,276.201 165.812,276.387 165.927 C 276.561 166.035,276.704 166.818,276.704 167.667 L 276.704 169.210 274.960 169.717 C 274.002 169.996,273.217 170.351,273.217 170.507 C 273.217 170.663,272.717 170.956,272.105 171.158 C 271.494 171.360,270.850 171.792,270.675 172.120 C 270.500 172.447,269.858 172.808,269.248 172.922 C 268.638 173.037,268.064 173.252,267.971 173.401 C 267.823 173.641,266.662 174.232,262.758 176.052 C 260.263 177.216,259.492 177.756,258.456 179.065 C 257.858 179.820,257.369 180.560,257.369 180.710 C 257.369 180.860,257.079 181.272,256.725 181.627 C 255.727 182.625,255.412 185.075,255.668 189.857 C 255.795 192.211,255.908 198.804,255.920 204.510 C 255.942 214.508,255.966 214.900,256.577 215.334 C 256.926 215.581,257.639 216.155,258.162 216.608 C 258.685 217.061,259.295 217.432,259.519 217.432 C 259.742 217.432,260.007 217.647,260.107 217.908 C 260.208 218.170,260.453 218.388,260.652 218.394 C 262.597 218.447,268.146 230.172,268.146 234.229 C 268.146 235.281,268.281 236.389,268.445 236.692 C 268.610 236.995,268.830 237.773,268.934 238.422 C 269.037 239.071,269.375 239.784,269.684 240.007 C 269.993 240.230,270.499 241.053,270.809 241.837 C 271.119 242.621,271.468 243.335,271.583 243.422 C 271.699 243.510,272.066 244.402,272.398 245.404 C 272.731 246.406,273.091 247.227,273.199 247.227 C 273.306 247.227,273.671 247.940,274.010 248.811 C 274.348 249.683,274.713 250.396,274.821 250.396 C 274.929 250.396,275.208 251.002,275.440 251.743 C 275.673 252.484,276.042 253.447,276.261 253.883 C 276.479 254.319,276.827 255.816,277.033 257.211 C 277.238 258.605,277.556 259.840,277.739 259.955 C 277.922 260.069,278.177 261.495,278.306 263.124 C 278.541 266.087,278.792 267.189,279.312 267.541 C 279.464 267.644,279.726 268.856,279.893 270.235 C 280.401 274.429,280.535 275.252,280.820 275.911 C 280.971 276.260,281.166 278.471,281.255 280.824 C 281.416 285.101,281.819 287.098,282.618 287.575 C 282.852 287.715,283.043 288.009,283.043 288.229 C 283.043 288.721,284.684 290.333,285.184 290.333 C 285.384 290.333,285.661 290.531,285.800 290.774 C 285.940 291.016,287.480 291.609,289.223 292.091 L 292.393 292.968 309.667 293.211 C 329.701 293.492,332.975 293.620,333.606 294.144 C 333.924 294.408,336.649 294.595,342.390 294.749 C 349.278 294.933,350.909 295.066,351.848 295.515 C 352.659 295.904,354.507 296.156,358.345 296.402 C 372.002 297.275,371.915 297.288,375.374 293.952 C 376.910 292.470,377.461 291.702,378.036 290.241 C 378.325 289.507,378.659 288.835,378.779 288.748 C 378.898 288.661,379.103 288.233,379.234 287.797 C 379.366 287.361,379.752 286.384,380.092 285.626 C 380.432 284.867,380.845 282.949,381.009 281.363 C 381.173 279.777,381.461 278.384,381.650 278.268 C 381.851 278.143,382.103 275.991,382.264 273.022 C 382.709 264.765,382.966 261.793,383.250 261.618 C 383.601 261.401,383.601 243.106,383.250 243.106 C 382.968 243.106,381.933 237.441,381.933 235.894 C 381.933 235.398,381.782 234.841,381.597 234.655 C 381.411 234.470,381.130 232.908,380.970 231.185 C 380.582 226.983,380.345 225.599,379.924 225.079 C 379.730 224.839,379.483 222.742,379.374 220.416 C 379.266 218.090,379.032 216.005,378.854 215.780 C 378.555 215.404,378.138 213.375,377.629 209.826 C 377.516 209.041,377.316 208.257,377.185 208.082 C 376.796 207.569,376.533 205.649,376.228 201.112 C 376.071 198.766,375.793 196.567,375.610 196.226 C 375.427 195.884,375.277 194.842,375.277 193.911 C 375.277 191.102,374.648 186.980,374.003 185.564 C 373.669 184.831,373.306 183.607,373.196 182.845 C 373.086 182.082,372.724 181.072,372.393 180.599 C 372.062 180.127,371.791 179.672,371.791 179.588 C 371.791 178.856,366.765 172.742,366.164 172.742 C 365.935 172.742,365.665 172.522,365.562 172.255 C 365.459 171.987,364.936 171.540,364.399 171.263 C 363.862 170.985,363.227 170.562,362.989 170.324 C 362.750 170.085,362.172 169.800,361.705 169.690 C 361.238 169.579,360.103 169.151,359.182 168.738 C 358.262 168.325,357.392 167.987,357.250 167.987 C 357.022 167.987,355.015 167.084,354.722 166.849 C 354.518 166.687,355.361 159.916,355.655 159.355 C 356.054 158.592,356.028 147.792,355.626 147.544 C 355.452 147.436,355.309 146.750,355.310 146.019 C 355.310 144.367,354.432 139.178,354.025 138.435 C 353.859 138.131,353.724 134.469,353.724 130.233 L 353.724 122.581 356.022 122.859 C 361.921 123.575,375.277 122.973,375.277 121.993 C 375.277 121.838,376.057 121.712,377.010 121.712 C 378.995 121.712,381.401 120.986,382.352 120.100 C 382.711 119.766,383.092 119.493,383.200 119.493 C 383.308 119.493,383.887 118.815,384.487 117.987 L 385.578 116.482 385.681 111.584 C 385.777 107.015,385.426 103.962,384.806 103.962 C 384.688 103.962,384.332 103.376,384.016 102.659 C 383.352 101.154,378.356 96.035,376.609 95.070 C 375.964 94.714,375.079 94.220,374.643 93.972 C 372.033 92.488,371.497 92.393,365.769 92.393 C 360.673 92.393,360.100 92.451,358.720 93.106 C 357.894 93.498,357.069 93.819,356.887 93.819 C 356.136 93.819,353.402 95.455,353.046 96.117 C 352.698 96.761,352.623 96.605,352.267 94.500 C 351.998 92.915,351.661 91.973,351.213 91.556 C 350.838 91.206,350.555 90.545,350.555 90.019 C 350.555 88.721,349.896 85.773,349.558 85.556 C 349.402 85.457,349.119 84.488,348.928 83.403 C 348.737 82.318,348.394 81.244,348.166 81.017 C 347.939 80.789,347.600 80.046,347.413 79.366 C 347.227 78.686,346.789 77.702,346.439 77.179 C 346.090 76.656,345.804 75.927,345.802 75.559 C 345.799 74.507,342.864 70.899,341.715 70.534 C 341.347 70.417,341.046 70.186,341.046 70.021 C 341.046 69.856,340.511 69.473,339.857 69.171 C 339.204 68.869,338.498 68.461,338.290 68.265 C 338.082 68.069,337.262 67.717,336.468 67.483 C 335.673 67.248,335.024 66.945,335.024 66.809 C 335.024 66.673,334.760 66.561,334.438 66.561 C 333.835 66.561,332.488 65.571,332.488 65.127 C 332.488 64.990,332.162 64.436,331.764 63.897 C 329.209 60.434,330.051 55.214,333.354 54.048 C 335.100 53.432,336.243 49.723,335.351 47.568 C 334.487 45.483,329.931 43.959,328.861 45.397 C 328.677 45.645,328.091 45.998,327.559 46.182 C 326.591 46.516,324.564 48.300,324.564 48.818 C 324.564 48.969,324.311 49.279,324.002 49.507 C 323.693 49.734,323.173 50.527,322.845 51.268 C 322.517 52.009,322.153 52.615,322.035 52.615 C 321.654 52.615,321.078 55.776,321.078 57.869 C 321.078 60.036,320.883 60.282,319.968 59.271 C 319.653 58.922,319.214 58.637,318.993 58.637 C 318.773 58.637,318.499 58.211,318.384 57.690 C 318.270 57.169,318.043 56.660,317.879 56.559 C 317.716 56.458,317.282 55.788,316.916 55.070 C 316.550 54.352,316.051 53.566,315.809 53.323 C 315.567 53.081,315.204 52.573,315.003 52.194 C 314.802 51.815,314.375 51.319,314.054 51.091 C 313.733 50.864,313.471 50.482,313.471 50.242 C 313.471 50.003,313.284 49.619,313.057 49.389 C 312.518 48.844,312.149 47.861,312.483 47.861 C 312.626 47.861,313.183 47.440,313.721 46.926 C 317.838 42.991,313.832 37.140,308.276 38.974 C 307.647 39.182,307.132 39.468,307.132 39.609 C 307.132 39.750,306.635 39.959,306.027 40.073 C 304.732 40.316,303.192 41.625,302.714 42.889 C 301.947 44.919,302.677 51.347,303.675 51.347 C 303.833 51.347,303.962 51.639,303.962 51.997 C 303.962 52.742,304.811 54.517,305.168 54.517 C 305.300 54.517,305.559 54.918,305.745 55.409 L 306.081 56.301 301.789 56.653 L 297.496 57.005 296.292 56.051 C 295.629 55.527,295.087 54.895,295.087 54.648 C 295.087 54.402,294.961 54.200,294.806 54.200 C 294.652 54.200,294.449 53.807,294.357 53.328 C 294.264 52.849,294.038 51.886,293.853 51.189 C 293.242 48.879,293.402 47.352,294.330 46.622 C 295.183 45.951,296.040 44.003,295.867 43.127 C 295.814 42.854,295.759 42.333,295.745 41.969 C 295.645 39.242,290.882 37.259,288.431 38.923 M271.972 82.625 C 272.899 83.116,273.831 83.674,274.044 83.865 C 274.257 84.055,274.907 84.405,275.488 84.641 C 276.069 84.878,276.732 85.328,276.959 85.642 C 277.187 85.956,277.497 86.212,277.648 86.212 C 277.988 86.212,279.873 88.072,279.873 88.406 C 279.873 88.540,280.158 88.908,280.507 89.223 C 281.149 89.805,281.398 91.601,280.837 91.601 C 280.669 91.601,280.362 92.171,280.153 92.868 C 279.709 94.348,279.767 94.335,278.130 93.334 C 277.433 92.907,276.577 92.422,276.228 92.256 C 275.880 92.090,275.243 91.574,274.814 91.109 C 274.385 90.643,273.279 89.837,272.358 89.317 C 271.436 88.796,270.681 88.242,270.681 88.084 C 270.681 87.926,270.495 87.797,270.267 87.797 C 269.088 87.797,265.927 83.593,265.927 82.025 C 265.927 81.025,269.649 81.394,271.972 82.625 M369.889 102.470 C 371.290 103.182,374.643 106.203,374.643 106.753 C 374.643 106.907,374.929 107.291,375.277 107.607 C 375.756 108.040,375.911 108.583,375.911 109.824 L 375.911 111.466 372.747 111.885 C 369.644 112.296,356.454 112.151,354.279 111.683 C 353.252 111.461,352.866 107.448,353.872 107.448 C 354.128 107.448,355.408 106.392,356.716 105.101 C 358.629 103.212,359.344 102.711,360.371 102.537 C 361.074 102.419,361.648 102.191,361.648 102.032 C 361.648 101.353,368.394 101.711,369.889 102.470 M304.583 110.505 C 305.350 110.658,305.730 110.989,306.128 111.852 C 306.418 112.481,306.788 113.091,306.950 113.207 C 307.117 113.327,306.903 114.082,306.456 114.950 C 304.717 118.332,299.842 117.358,299.842 113.629 C 299.842 111.023,301.549 109.898,304.583 110.505 M329.495 114.030 C 331.452 115.389,331.174 120.127,329.137 120.127 C 328.888 120.127,328.685 120.269,328.685 120.444 C 328.685 120.618,328.185 120.761,327.575 120.761 C 326.965 120.761,326.466 120.621,326.466 120.450 C 326.466 120.279,326.122 120.052,325.701 119.947 C 324.074 119.539,323.786 116.123,325.248 114.582 C 326.000 113.789,328.652 113.444,329.495 114.030 " stroke="none" fill="#44dc7c" fill-rule="evenodd"></path><path id="path2" d="M160.697 20.621 C 159.488 21.131,158.213 22.700,157.975 23.971 C 157.558 26.191,158.013 32.531,158.658 33.504 C 160.000 35.525,161.331 38.504,161.331 39.484 C 161.331 40.061,161.474 40.621,161.648 40.729 C 162.253 41.103,162.024 43.362,161.361 43.572 C 161.028 43.678,160.676 43.973,160.578 44.228 C 160.480 44.482,160.195 44.691,159.945 44.691 C 159.276 44.691,157.007 46.682,155.512 48.581 C 154.795 49.492,154.028 50.426,153.808 50.657 C 153.587 50.887,153.407 51.172,153.407 51.290 C 153.407 51.409,153.086 51.879,152.694 52.335 C 152.000 53.142,151.014 54.401,150.162 55.566 C 149.766 56.108,149.695 56.090,148.889 55.249 C 148.420 54.759,147.747 54.084,147.394 53.748 C 147.040 53.412,146.751 52.949,146.751 52.718 C 146.751 52.487,146.609 52.298,146.434 52.298 C 146.260 52.298,146.117 52.082,146.117 51.818 C 146.117 50.882,145.328 49.893,142.420 47.182 C 141.926 46.722,141.209 46.009,140.828 45.597 C 140.446 45.186,139.662 44.463,139.085 43.990 C 138.507 43.517,137.678 42.826,137.242 42.454 C 134.211 39.868,128.882 43.966,129.992 48.029 C 130.305 49.175,135.014 54.503,135.723 54.513 C 136.143 54.520,137.559 56.130,137.559 56.602 C 137.559 57.561,141.234 61.807,142.064 61.807 C 142.201 61.807,142.314 62.084,142.314 62.423 C 142.314 62.761,142.579 63.225,142.902 63.453 C 143.779 64.070,144.053 65.240,143.468 65.873 C 141.784 67.697,141.046 68.585,141.046 68.783 C 141.046 68.908,140.618 69.548,140.095 70.206 C 139.572 70.864,139.144 71.668,139.144 71.993 C 139.144 72.318,139.030 72.583,138.890 72.583 C 138.589 72.583,137.556 75.349,137.558 76.149 C 137.559 76.454,137.430 76.704,137.272 76.704 C 136.869 76.704,135.975 79.460,135.975 80.703 C 135.975 81.272,135.832 81.826,135.658 81.933 C 135.483 82.041,135.335 82.727,135.329 83.458 C 135.316 84.994,134.592 88.968,134.267 89.294 C 133.777 89.784,129.870 89.123,128.820 88.373 C 128.633 88.239,126.426 87.903,123.915 87.626 C 121.404 87.349,119.204 87.016,119.025 86.885 C 118.847 86.754,118.130 86.618,117.433 86.581 C 116.735 86.545,114.923 86.356,113.406 86.162 C 106.657 85.299,103.052 86.138,101.065 89.034 C 99.282 91.634,100.054 103.205,102.083 104.291 C 102.419 104.471,102.694 104.781,102.694 104.980 C 102.694 105.392,106.418 109.033,106.839 109.033 C 106.992 109.033,107.869 109.752,108.788 110.630 C 109.707 111.509,110.781 112.309,111.173 112.408 C 111.565 112.507,111.886 112.694,111.886 112.823 C 111.886 112.953,112.528 113.323,113.312 113.646 C 114.097 113.970,114.739 114.346,114.739 114.482 C 114.739 114.860,119.236 116.957,120.046 116.957 C 120.439 116.957,120.761 117.089,120.761 117.249 C 120.761 117.409,121.153 117.614,121.632 117.703 C 122.112 117.792,123.467 118.044,124.643 118.262 L 126.783 118.658 126.786 121.057 C 126.791 124.300,128.360 128.747,129.683 129.266 C 129.831 129.324,129.952 129.505,129.952 129.668 C 129.952 129.831,130.311 130.532,130.748 131.226 C 132.447 133.917,133.151 142.229,131.982 145.802 C 131.574 147.050,131.497 148.474,131.586 153.173 L 131.696 158.997 132.919 161.330 C 133.591 162.614,134.343 163.888,134.589 164.162 C 136.128 165.876,137.167 166.698,138.241 167.052 C 138.912 167.274,139.461 167.548,139.461 167.661 C 139.461 167.775,139.782 168.212,140.174 168.633 C 140.880 169.391,140.886 169.482,140.785 177.143 L 140.682 184.887 139.489 186.683 C 137.879 189.108,137.559 190.628,137.559 195.861 C 137.559 198.312,137.451 200.317,137.318 200.317 C 137.185 200.317,136.935 200.626,136.763 201.004 C 136.591 201.382,136.165 201.846,135.816 202.034 C 135.468 202.223,135.111 202.454,135.024 202.549 C 134.937 202.643,134.250 202.919,133.499 203.161 C 132.747 203.403,131.993 203.860,131.824 204.178 C 131.654 204.495,131.362 204.754,131.176 204.754 C 130.989 204.754,130.413 205.111,129.895 205.547 C 129.377 205.983,128.759 206.339,128.522 206.339 C 128.004 206.339,124.247 209.907,124.247 210.399 C 124.247 210.590,124.065 210.859,123.842 210.999 C 123.196 211.402,119.968 215.904,119.513 217.036 C 119.285 217.603,118.985 218.067,118.846 218.067 C 118.706 218.067,118.494 218.530,118.373 219.097 C 118.252 219.663,117.866 220.764,117.516 221.543 C 116.554 223.680,116.341 226.418,116.550 233.974 C 116.725 240.313,116.694 240.917,116.154 241.739 C 115.681 242.459,115.498 243.741,115.207 248.397 C 115.009 251.568,114.693 254.350,114.506 254.578 C 114.318 254.806,114.076 256.133,113.968 257.528 C 113.731 260.584,113.159 263.708,112.837 263.708 C 112.178 263.708,111.862 268.015,111.900 276.453 C 111.938 284.916,111.834 286.432,111.187 286.871 C 111.038 286.971,110.796 288.129,110.648 289.444 C 110.452 291.197,110.159 292.161,109.548 293.059 C 109.091 293.732,108.716 294.573,108.716 294.926 C 108.716 295.279,108.431 295.747,108.082 295.964 C 107.734 296.182,107.448 296.551,107.448 296.784 C 107.448 297.017,107.176 297.454,106.843 297.756 C 106.510 298.057,106.142 298.685,106.026 299.152 C 105.909 299.618,105.397 300.901,104.888 302.003 C 104.379 303.105,103.962 304.182,103.962 304.396 C 103.962 304.611,103.832 304.922,103.674 305.087 C 103.516 305.253,103.128 306.672,102.812 308.241 C 102.496 309.810,102.111 311.182,101.958 311.291 C 101.804 311.399,101.601 312.719,101.508 314.223 L 101.337 316.957 191.397 316.957 L 281.458 316.957 281.431 314.184 C 281.417 312.658,281.267 310.555,281.099 309.509 C 280.931 308.463,280.666 305.610,280.511 303.170 C 280.237 298.874,279.699 295.264,279.236 294.612 C 278.785 293.976,278.604 292.039,278.424 285.940 C 278.324 282.516,278.113 279.429,277.956 279.081 C 277.798 278.732,277.468 275.842,277.222 272.658 C 276.975 269.474,276.633 266.692,276.461 266.477 C 276.290 266.262,275.904 264.731,275.605 263.074 C 275.306 261.418,274.944 259.921,274.801 259.746 C 274.658 259.572,274.307 258.294,274.021 256.906 C 273.735 255.519,273.383 254.235,273.239 254.054 C 273.096 253.873,272.747 252.789,272.464 251.645 C 272.181 250.501,271.664 248.975,271.316 248.253 C 270.967 247.531,270.681 246.648,270.681 246.291 C 270.681 245.934,270.574 245.641,270.444 245.639 C 270.313 245.638,269.941 244.746,269.618 243.658 C 268.697 240.563,267.036 236.890,265.542 234.650 C 265.057 233.921,264.659 233.254,264.659 233.168 C 264.659 232.877,261.338 227.418,261.096 227.311 C 260.964 227.253,260.856 226.561,260.856 225.774 C 260.856 223.532,260.154 222.245,257.369 219.383 C 255.502 217.463,254.373 216.623,253.417 216.438 C 252.857 216.331,252.853 216.289,253.351 215.791 C 254.015 215.127,254.049 213.116,253.407 212.475 C 253.006 212.073,252.932 210.508,252.932 202.379 C 252.932 193.208,252.645 189.540,251.927 189.540 C 251.507 189.540,251.624 186.538,252.060 186.101 C 252.327 185.834,252.456 184.610,252.456 182.340 C 252.456 179.930,252.344 178.938,252.060 178.843 C 251.797 178.755,251.663 178.003,251.660 176.598 C 251.652 172.940,251.225 172.449,249.033 173.584 C 247.771 174.237,207.459 174.461,207.042 173.818 C 206.689 173.275,204.833 172.800,202.139 172.565 C 200.788 172.447,199.683 172.254,199.683 172.137 C 199.683 172.019,198.685 171.650,197.464 171.315 C 196.244 170.981,195.246 170.613,195.246 170.498 C 195.246 170.383,194.568 170.107,193.740 169.886 C 192.912 169.664,192.088 169.305,191.909 169.088 C 191.729 168.870,191.076 168.427,190.456 168.102 C 189.836 167.778,188.806 167.236,188.167 166.899 C 187.528 166.561,187.005 166.103,187.005 165.880 C 187.005 165.656,186.724 165.324,186.381 165.140 C 180.971 162.245,181.315 154.358,186.851 154.358 C 188.496 154.358,191.125 156.125,191.125 157.230 C 191.125 157.394,191.251 157.528,191.405 157.528 C 191.558 157.528,192.093 157.931,192.593 158.424 C 193.960 159.770,197.467 161.840,198.801 162.088 C 199.449 162.208,200.199 162.526,200.467 162.794 C 200.735 163.062,201.900 163.415,203.056 163.579 C 205.661 163.948,206.716 164.194,207.155 164.537 C 208.261 165.400,212.331 165.769,220.763 165.769 C 226.205 165.769,229.513 165.887,229.635 166.086 C 229.902 166.517,247.435 166.517,247.702 166.086 C 247.810 165.911,248.179 165.769,248.523 165.769 C 249.403 165.769,249.580 165.039,248.998 163.810 C 248.724 163.231,248.278 161.906,248.007 160.866 C 247.737 159.825,247.397 158.898,247.252 158.806 C 246.803 158.518,246.371 155.825,246.302 152.888 C 246.266 151.343,246.103 149.944,245.939 149.778 C 245.776 149.613,245.642 149.244,245.642 148.960 C 245.642 148.676,245.267 147.742,244.808 146.884 C 244.050 145.467,243.960 144.918,243.823 140.850 L 243.672 136.375 246.426 136.230 C 247.941 136.151,249.276 135.932,249.392 135.745 C 249.509 135.558,250.388 135.149,251.347 134.837 C 252.306 134.525,253.279 134.082,253.509 133.854 C 253.740 133.626,254.025 133.437,254.143 133.435 C 254.261 133.432,255.143 132.721,256.101 131.854 C 257.060 130.987,257.940 130.276,258.057 130.274 C 258.561 130.264,262.430 125.971,262.724 125.096 C 262.793 124.890,263.237 124.223,263.710 123.613 C 265.145 121.762,265.338 120.621,265.360 113.871 C 265.386 106.016,265.083 104.657,262.200 99.682 C 261.588 98.625,259.804 96.672,259.452 96.672 C 259.328 96.672,258.559 96.114,257.743 95.432 C 253.406 91.805,243.285 91.284,239.242 94.479 C 238.599 94.988,237.980 95.404,237.867 95.404 C 237.754 95.404,237.015 96.069,236.225 96.882 L 234.789 98.360 233.695 96.010 C 233.094 94.718,232.317 93.019,231.968 92.235 C 230.876 89.774,229.973 88.101,229.398 87.476 C 229.093 87.144,228.843 86.719,228.843 86.531 C 228.843 86.218,227.972 84.682,227.583 84.311 C 227.491 84.223,227.133 83.582,226.786 82.884 C 226.439 82.187,225.976 81.502,225.756 81.363 C 225.536 81.224,225.357 80.908,225.357 80.662 C 225.357 80.416,224.733 79.449,223.970 78.512 C 223.207 77.576,222.423 76.512,222.229 76.147 C 222.034 75.783,221.689 75.296,221.463 75.064 C 221.236 74.833,220.861 74.180,220.630 73.613 C 220.398 73.047,220.085 72.583,219.934 72.583 C 219.783 72.583,219.451 72.084,219.196 71.474 C 218.941 70.864,218.598 70.365,218.434 70.365 C 218.270 70.365,218.050 70.024,217.945 69.608 C 217.841 69.192,217.400 68.515,216.966 68.103 C 216.531 67.691,216.173 67.178,216.170 66.965 C 216.167 66.751,215.808 66.342,215.372 66.056 C 214.937 65.771,214.580 65.407,214.580 65.248 C 214.580 64.849,211.504 60.863,210.509 59.972 L 209.699 59.247 210.551 58.457 C 211.020 58.023,211.492 57.311,211.602 56.876 C 211.711 56.441,212.069 55.941,212.398 55.765 C 212.726 55.589,212.995 55.263,212.995 55.040 C 212.995 54.817,213.459 54.410,214.025 54.136 C 214.592 53.862,215.848 52.940,216.816 52.087 C 217.785 51.234,218.829 50.327,219.137 50.070 C 220.521 48.917,222.504 46.643,222.504 46.208 C 222.504 46.071,222.657 45.959,222.844 45.959 C 223.030 45.959,223.397 45.745,223.659 45.483 C 223.920 45.222,224.388 45.008,224.698 45.008 C 225.476 45.008,227.258 43.241,227.258 42.470 C 227.258 42.122,227.401 41.838,227.575 41.838 C 228.080 41.838,227.943 39.630,227.356 38.300 C 227.061 37.631,226.710 37.084,226.576 37.084 C 226.442 37.084,226.055 36.787,225.717 36.424 C 224.536 35.157,219.334 35.193,219.334 36.468 C 219.334 36.605,218.926 36.806,218.426 36.916 C 217.428 37.135,214.788 39.590,214.068 40.967 C 213.818 41.446,213.474 41.838,213.304 41.838 C 213.134 41.838,212.995 42.056,212.995 42.322 C 212.995 42.587,212.674 42.931,212.282 43.085 C 211.890 43.239,211.337 43.628,211.053 43.949 C 210.769 44.270,210.055 44.882,209.468 45.310 C 208.028 46.358,204.754 49.648,204.754 50.047 C 204.754 50.223,204.398 50.724,203.962 51.160 C 203.526 51.596,203.170 52.176,203.170 52.449 C 203.170 52.968,202.078 52.453,201.007 51.430 C 200.777 51.210,200.421 51.028,200.215 51.024 C 200.010 51.021,199.256 50.622,198.541 50.136 C 197.825 49.651,196.403 48.834,195.380 48.320 C 194.358 47.806,193.328 47.207,193.093 46.989 C 192.857 46.771,192.532 46.593,192.370 46.593 C 191.998 46.593,191.981 42.386,192.351 41.981 C 192.503 41.815,192.885 40.967,193.202 40.095 C 193.518 39.223,193.959 38.236,194.182 37.902 C 194.406 37.567,194.764 36.248,194.979 34.970 C 195.194 33.692,195.469 32.647,195.591 32.647 C 195.966 32.647,197.464 28.577,197.464 27.559 C 197.464 22.735,190.084 20.678,188.185 24.972 C 187.976 25.445,187.625 26.020,187.405 26.251 C 187.185 26.481,187.005 26.995,187.005 27.392 C 187.005 27.790,186.672 28.742,186.265 29.509 C 185.849 30.293,185.434 31.779,185.317 32.904 C 185.202 34.005,184.897 35.116,184.639 35.375 C 184.380 35.633,184.009 36.444,183.814 37.177 C 183.619 37.910,183.336 38.747,183.186 39.037 C 183.036 39.327,182.817 40.290,182.700 41.177 C 182.511 42.595,181.300 43.747,181.300 42.508 C 181.300 42.035,179.175 41.791,175.277 41.816 L 171.565 41.839 171.354 39.564 C 171.237 38.313,171.021 37.136,170.874 36.949 C 170.726 36.762,170.504 36.038,170.381 35.341 C 170.257 34.643,169.610 32.978,168.944 31.641 C 167.824 29.394,167.723 28.967,167.622 26.044 L 167.512 22.879 166.306 21.709 C 164.983 20.425,162.366 19.917,160.697 20.621 M114.275 96.487 C 122.452 97.129,125.179 97.427,126.353 97.804 C 127.076 98.037,128.645 98.394,129.840 98.598 C 131.035 98.803,132.050 99.001,132.095 99.039 C 132.140 99.077,131.760 100.028,131.250 101.152 C 130.740 102.276,130.223 103.727,130.102 104.375 C 129.980 105.023,129.754 105.632,129.600 105.727 C 129.445 105.823,129.319 106.170,129.319 106.498 C 129.319 106.826,129.200 107.168,129.055 107.257 C 128.629 107.521,123.155 106.867,123.046 106.540 C 122.991 106.375,122.294 106.049,121.497 105.815 C 120.700 105.580,119.981 105.217,119.900 105.007 C 119.819 104.797,119.088 104.308,118.276 103.920 C 117.463 103.532,116.685 103.026,116.545 102.796 C 116.406 102.566,116.100 102.377,115.866 102.377 C 115.632 102.377,115.358 102.162,115.257 101.899 C 115.156 101.636,114.677 101.249,114.193 101.040 C 113.708 100.830,112.925 100.346,112.452 99.963 C 111.979 99.581,111.423 99.212,111.215 99.142 C 111.007 99.073,110.744 98.289,110.630 97.400 C 110.432 95.853,110.451 95.794,111.087 96.036 C 111.453 96.175,112.887 96.378,114.275 96.487 M251.290 103.883 C 251.608 104.188,252.383 104.838,253.012 105.327 C 253.722 105.879,254.240 106.602,254.374 107.229 C 254.493 107.786,254.729 108.414,254.900 108.626 C 255.070 108.837,255.288 110.998,255.384 113.427 L 255.559 117.844 254.642 119.330 C 252.333 123.071,248.020 126.451,244.975 126.907 L 243.516 127.125 243.316 125.206 C 243.205 124.151,242.912 122.969,242.663 122.579 C 242.414 122.189,242.050 120.808,241.854 119.510 C 241.657 118.212,241.375 117.000,241.227 116.816 C 240.990 116.522,240.610 115.314,239.238 110.498 C 238.905 109.329,238.935 109.229,239.859 108.438 C 241.435 107.088,241.950 106.686,242.845 106.110 C 243.311 105.809,243.784 105.275,243.896 104.921 C 244.008 104.568,244.309 104.279,244.564 104.279 C 244.819 104.279,245.110 104.065,245.210 103.803 C 245.494 103.063,250.505 103.128,251.290 103.883 M155.623 111.616 C 156.940 112.994,156.819 116.640,155.455 116.640 C 155.243 116.640,154.892 116.854,154.675 117.116 C 153.811 118.157,150.773 117.257,150.217 115.794 C 149.541 114.014,150.281 111.157,151.506 110.822 C 153.217 110.353,154.688 110.637,155.623 111.616 M218.051 115.681 C 218.763 116.062,219.968 118.053,219.968 118.847 C 219.968 121.533,216.513 123.388,214.599 121.728 C 214.208 121.389,213.722 121.056,213.521 120.989 C 212.646 120.697,213.084 117.124,214.105 116.228 C 215.114 115.341,216.942 115.088,218.051 115.681 " stroke="none" fill="#dc4444" fill-rule="evenodd"></path></g></svg>