<svg id="svg" version="1.1" width="100%" height="100%" viewBox="0 0 400 443.2432432432432" xmlns="http://www.w3.org/2000/svg" xmlns:xlink="http://www.w3.org/1999/xlink" ><g id="svgg">
<path id="logo-outer" d="M147.838 21.416 C 120.002 24.409,98.279 32.147,80.811 45.293 C 77.414 47.849,37.297 87.479,37.297 88.279 C 37.297 88.532,35.865 90.482,34.113 92.613 C 21.104 108.440,15.764 124.271,15.286 148.423 C 14.634 181.411,24.085 190.692,58.443 190.803 L 60.940 190.811 76.782 173.784 C 85.496 164.419,92.825 156.757,93.069 156.757 C 94.303 156.757,93.483 149.232,91.824 145.333 C 89.623 140.161,88.691 134.721,88.668 126.920 C 88.638 117.103,91.319 99.873,93.163 98.027 C 94.646 96.543,117.604 92.559,118.649 93.604 C 118.812 93.767,107.750 146.065,94.067 209.821 C 77.755 285.829,69.189 326.800,69.189 328.816 L 69.189 331.892 99.095 331.892 L 129.001 331.892 145.198 314.842 L 161.395 297.792 181.865 202.004 C 193.124 149.321,202.508 106.017,202.718 105.774 C 202.928 105.531,206.356 105.820,210.334 106.416 C 222.823 108.288,229.629 108.754,241.363 108.539 C 258.181 108.231,258.675 107.965,275.455 90.149 C 281.671 83.549,289.925 74.856,293.797 70.831 C 303.613 60.628,305.083 57.461,310.494 34.865 C 311.562 30.405,312.435 25.480,312.434 23.919 L 312.432 21.081 308.631 21.081 C 306.541 21.081,304.030 21.416,303.051 21.824 C 287.983 28.120,262.016 28.009,194.324 21.359 C 183.916 20.337,157.579 20.369,147.838 21.416 M225.577 127.471 C 216.637 136.635,209.186 144.601,209.018 145.174 C 206.728 153.002,151.892 415.181,151.892 418.301 L 151.892 422.162 155.889 422.162 C 159.112 422.162,164.897 420.968,185.754 415.999 C 199.981 412.609,212.008 409.751,212.480 409.648 C 212.952 409.544,220.736 401.700,229.777 392.216 L 246.216 374.973 250.850 353.297 L 255.483 331.622 266.525 331.285 C 284.484 330.738,295.306 326.861,307.306 316.676 C 309.769 314.586,348.521 275.006,348.508 274.595 C 348.503 274.446,349.844 272.537,351.487 270.352 C 368.401 247.869,379.686 206.118,379.708 165.946 C 379.727 131.727,372.039 118.837,348.108 112.964 C 337.646 110.396,312.352 109.995,304.730 112.276 L 301.081 113.368 301.081 112.090 L 301.081 110.811 271.456 110.811 L 241.832 110.811 225.577 127.471 M292.409 176.720 C 298.110 185.604,297.347 200.007,289.229 236.802 C 287.221 245.904,282.931 262.654,282.498 263.088 C 282.121 263.464,275.588 261.132,273.357 259.825 L 271.000 258.444 279.536 218.546 C 284.231 196.603,288.344 177.358,288.675 175.781 C 289.372 172.467,289.739 172.559,292.409 176.720 " stroke="none" fill="#000000" fill-rule="evenodd"></path>
<path id="logo-inner" d="M156.200 27.672 C 153.340 27.866,150.640 28.184,150.200 28.377 C 149.760 28.569,147.240 28.946,144.600 29.213 C 141.960 29.481,139.620 29.834,139.400 29.999 C 139.180 30.164,137.470 30.518,135.600 30.785 C 133.730 31.052,132.020 31.411,131.800 31.583 C 131.580 31.754,130.140 32.122,128.600 32.400 C 127.060 32.678,125.620 33.042,125.400 33.209 C 125.180 33.377,123.968 33.725,122.707 33.984 C 121.446 34.242,120.323 34.601,120.211 34.782 C 120.100 34.962,119.351 35.233,118.546 35.384 C 117.741 35.535,116.704 35.902,116.242 36.200 C 115.779 36.497,114.725 36.864,113.900 37.015 C 113.075 37.166,112.400 37.429,112.400 37.601 C 112.400 37.773,111.905 38.027,111.300 38.167 C 110.259 38.406,105.365 40.626,103.200 41.840 C 102.650 42.149,101.075 42.966,99.700 43.656 C 98.325 44.345,97.200 45.065,97.200 45.255 C 97.200 45.445,96.962 45.600,96.671 45.600 C 96.380 45.600,95.435 46.135,94.571 46.789 C 93.707 47.443,92.839 47.983,92.641 47.989 C 92.444 47.995,91.514 48.630,90.574 49.400 C 89.634 50.170,88.714 50.800,88.529 50.800 C 88.344 50.800,87.968 51.160,87.693 51.600 C 87.418 52.040,86.903 52.400,86.549 52.400 C 85.721 52.400,72.000 66.145,72.000 66.975 C 72.000 67.319,71.850 67.600,71.667 67.600 C 71.385 67.600,69.598 70.041,68.200 72.339 C 67.980 72.701,67.506 73.447,67.147 73.998 C 65.443 76.612,62.800 81.694,62.800 82.358 C 62.800 82.601,62.649 82.800,62.464 82.800 C 62.279 82.800,61.880 83.565,61.577 84.500 C 61.274 85.435,60.796 86.650,60.515 87.200 C 60.234 87.750,59.893 88.785,59.758 89.500 C 59.622 90.215,59.376 90.800,59.210 90.800 C 59.045 90.800,58.678 91.925,58.395 93.300 C 58.112 94.675,57.745 95.980,57.580 96.200 C 57.414 96.420,57.044 98.040,56.757 99.800 C 56.470 101.560,56.102 103.095,55.939 103.211 C 55.776 103.326,55.516 105.087,55.363 107.123 C 55.209 109.159,54.930 110.920,54.742 111.036 C 54.288 111.316,54.299 122.690,54.753 122.971 C 54.947 123.091,55.231 124.359,55.384 125.790 C 55.537 127.221,55.808 128.481,55.986 128.591 C 56.164 128.701,56.429 129.427,56.574 130.204 C 56.884 131.853,59.290 136.618,60.420 137.822 C 60.849 138.278,61.200 138.813,61.200 139.011 C 61.200 139.561,64.500 142.800,65.061 142.800 C 65.332 142.800,65.790 143.115,66.077 143.500 C 66.804 144.473,72.186 147.066,74.600 147.606 C 75.700 147.852,76.889 148.206,77.241 148.393 C 77.594 148.580,78.764 148.846,79.841 148.984 C 80.919 149.122,82.391 149.327,83.113 149.438 C 84.451 149.645,84.673 148.403,83.554 146.970 C 83.370 146.734,83.098 145.243,82.951 143.658 C 82.803 142.072,82.529 140.680,82.341 140.564 C 81.895 140.288,81.895 112.912,82.342 112.636 C 82.530 112.520,82.810 110.601,82.963 108.373 C 83.116 106.145,83.396 104.024,83.585 103.661 C 83.773 103.297,84.147 101.470,84.416 99.600 C 84.685 97.730,85.042 96.020,85.209 95.800 C 85.376 95.580,85.727 94.358,85.988 93.085 C 86.249 91.812,86.718 90.282,87.029 89.685 C 87.341 89.088,87.707 88.015,87.842 87.300 C 87.978 86.585,88.249 86.000,88.445 86.000 C 88.640 86.000,88.800 85.805,88.800 85.567 C 88.800 84.852,91.818 78.985,92.948 77.504 C 93.527 76.745,94.000 75.898,94.000 75.620 C 94.000 74.897,104.995 64.000,105.725 64.000 C 106.059 64.000,106.393 63.839,106.467 63.643 C 106.681 63.070,111.520 60.435,115.100 58.942 C 115.815 58.644,116.985 58.132,117.700 57.805 C 118.415 57.478,119.990 57.007,121.200 56.759 C 122.410 56.510,123.580 56.166,123.800 55.994 C 124.020 55.822,125.640 55.469,127.400 55.208 C 129.160 54.947,130.960 54.580,131.400 54.391 C 132.862 53.766,142.301 53.200,151.264 53.200 L 160.113 53.200 159.905 57.601 C 159.790 60.022,159.525 62.227,159.316 62.501 C 159.107 62.776,158.701 64.530,158.415 66.400 C 158.129 68.270,157.762 69.980,157.600 70.200 C 157.438 70.420,157.078 72.130,156.800 74.000 C 156.522 75.870,156.155 77.580,155.986 77.800 C 155.816 78.020,155.549 79.235,155.392 80.500 C 155.236 81.765,154.985 82.800,154.834 82.800 C 154.683 82.800,154.333 84.370,154.056 86.288 C 153.779 88.207,153.412 89.962,153.241 90.188 C 153.071 90.415,152.706 92.130,152.430 94.000 C 152.155 95.870,151.789 97.580,151.618 97.800 C 151.446 98.020,151.078 99.730,150.800 101.600 C 150.522 103.470,150.162 105.180,150.000 105.400 C 149.838 105.620,149.478 107.330,149.200 109.200 C 148.922 111.070,148.562 112.780,148.400 113.000 C 148.238 113.220,147.871 114.930,147.585 116.800 C 147.299 118.670,146.939 120.380,146.785 120.600 C 146.631 120.820,146.271 122.530,145.985 124.400 C 145.699 126.270,145.338 127.980,145.183 128.200 C 145.028 128.420,144.771 129.500,144.613 130.600 C 144.455 131.700,144.185 132.780,144.013 133.000 C 143.842 133.220,143.482 134.930,143.215 136.800 C 142.948 138.670,142.588 140.380,142.415 140.600 C 142.242 140.820,141.882 142.530,141.615 144.400 C 141.348 146.270,140.988 147.980,140.815 148.200 C 140.642 148.420,140.282 150.130,140.015 152.000 C 139.748 153.870,139.386 155.580,139.212 155.800 C 139.037 156.020,138.675 157.775,138.406 159.700 C 138.137 161.625,137.790 163.200,137.635 163.200 C 137.480 163.200,137.124 164.818,136.844 166.796 C 136.564 168.775,136.191 170.482,136.015 170.591 C 135.839 170.700,135.569 171.959,135.416 173.390 C 135.263 174.821,134.990 176.083,134.810 176.194 C 134.630 176.305,134.263 177.972,133.994 179.898 C 133.725 181.824,133.363 183.580,133.188 183.800 C 133.014 184.020,132.652 185.730,132.385 187.600 C 132.118 189.470,131.757 191.180,131.585 191.400 C 131.412 191.620,131.045 193.330,130.770 195.200 C 130.494 197.070,130.134 198.780,129.970 199.000 C 129.805 199.220,129.445 200.930,129.170 202.800 C 128.894 204.670,128.534 206.380,128.370 206.600 C 128.205 206.820,127.841 208.530,127.561 210.400 C 127.281 212.270,126.931 213.890,126.784 214.000 C 126.637 214.110,126.287 215.730,126.006 217.600 C 125.724 219.470,125.349 221.184,125.173 221.410 C 124.996 221.635,124.726 222.805,124.572 224.010 C 124.419 225.214,124.161 226.380,123.999 226.600 C 123.838 226.820,123.471 228.530,123.185 230.400 C 122.899 232.270,122.531 233.980,122.367 234.200 C 122.204 234.420,121.845 236.130,121.570 238.000 C 121.294 239.870,120.929 241.585,120.759 241.812 C 120.588 242.038,120.221 243.793,119.944 245.712 C 119.667 247.630,119.314 249.200,119.161 249.200 C 119.008 249.200,118.663 250.775,118.394 252.700 C 118.125 254.625,117.763 256.380,117.588 256.600 C 117.414 256.820,117.052 258.530,116.785 260.400 C 116.518 262.270,116.153 263.984,115.975 264.210 C 115.797 264.435,115.526 265.605,115.372 266.810 C 115.219 268.014,114.961 269.180,114.799 269.400 C 114.638 269.620,114.267 271.330,113.975 273.200 C 113.684 275.070,113.335 276.690,113.200 276.800 C 113.065 276.910,112.716 278.530,112.424 280.400 C 112.133 282.270,111.783 283.980,111.647 284.200 C 111.388 284.620,110.486 289.296,110.432 290.500 C 110.402 291.159,111.720 291.200,132.780 291.200 L 155.160 291.200 155.432 288.800 C 155.581 287.480,155.822 286.400,155.968 286.400 C 156.113 286.400,156.471 284.825,156.762 282.900 C 157.053 280.975,157.421 279.220,157.578 279.000 C 157.736 278.780,158.099 277.070,158.385 275.200 C 158.671 273.330,159.031 271.620,159.185 271.400 C 159.339 271.180,159.699 269.470,159.985 267.600 C 160.271 265.730,160.638 264.020,160.800 263.800 C 160.962 263.580,161.322 261.870,161.600 260.000 C 161.878 258.130,162.239 256.420,162.403 256.200 C 162.566 255.980,162.829 254.900,162.987 253.800 C 163.145 252.700,163.412 251.620,163.580 251.400 C 163.747 251.180,164.119 249.290,164.407 247.200 C 164.694 245.110,165.072 243.305,165.246 243.188 C 165.420 243.072,165.783 241.317,166.053 239.288 C 166.323 237.260,166.673 235.600,166.831 235.600 C 166.988 235.600,167.337 234.025,167.606 232.100 C 167.875 230.175,168.237 228.420,168.412 228.200 C 168.586 227.980,168.948 226.270,169.215 224.400 C 169.482 222.530,169.842 220.820,170.015 220.600 C 170.188 220.380,170.548 218.670,170.815 216.800 C 171.082 214.930,171.453 213.208,171.638 212.974 C 171.824 212.739,172.096 211.524,172.243 210.274 C 172.390 209.023,172.628 208.000,172.771 208.000 C 172.915 208.000,173.271 206.425,173.562 204.500 C 173.853 202.575,174.221 200.820,174.378 200.600 C 174.536 200.380,174.899 198.670,175.185 196.800 C 175.471 194.930,175.838 193.220,176.000 193.000 C 176.162 192.780,176.522 191.070,176.800 189.200 C 177.078 187.330,177.438 185.620,177.600 185.400 C 177.762 185.180,178.122 183.470,178.400 181.600 C 178.678 179.730,179.038 178.020,179.200 177.800 C 179.362 177.580,179.729 175.870,180.015 174.000 C 180.301 172.130,180.664 170.420,180.822 170.200 C 180.979 169.980,181.347 168.225,181.638 166.300 C 181.929 164.375,182.285 162.800,182.429 162.800 C 182.572 162.800,182.810 161.777,182.957 160.526 C 183.104 159.276,183.376 158.061,183.562 157.826 C 183.747 157.592,184.118 155.870,184.385 154.000 C 184.652 152.130,185.012 150.420,185.185 150.200 C 185.358 149.980,185.718 148.270,185.985 146.400 C 186.252 144.530,186.612 142.820,186.785 142.600 C 186.958 142.380,187.318 140.670,187.585 138.800 C 187.852 136.930,188.214 135.220,188.388 135.000 C 188.563 134.780,188.925 133.025,189.194 131.100 C 189.463 129.175,189.810 127.600,189.965 127.600 C 190.120 127.600,190.476 125.982,190.756 124.004 C 191.036 122.025,191.409 120.318,191.585 120.209 C 191.761 120.100,192.031 118.841,192.184 117.410 C 192.337 115.979,192.610 114.717,192.790 114.606 C 192.970 114.495,193.337 112.828,193.606 110.902 C 193.875 108.976,194.237 107.220,194.412 107.000 C 194.586 106.780,194.948 105.070,195.215 103.200 C 195.482 101.330,195.843 99.620,196.015 99.400 C 196.188 99.180,196.555 97.470,196.830 95.600 C 197.106 93.730,197.466 92.020,197.630 91.800 C 197.795 91.580,198.155 89.870,198.430 88.000 C 198.706 86.130,199.066 84.420,199.230 84.200 C 199.395 83.980,199.759 82.270,200.039 80.400 C 200.319 78.530,200.669 76.910,200.816 76.800 C 200.963 76.690,201.313 75.070,201.594 73.200 C 201.876 71.330,202.251 69.616,202.427 69.390 C 202.604 69.165,202.874 67.995,203.028 66.790 C 203.181 65.586,203.442 64.420,203.608 64.200 C 203.775 63.980,204.037 62.855,204.193 61.700 L 204.475 59.600 208.938 59.597 C 213.451 59.595,219.279 60.200,220.425 60.791 C 220.768 60.968,222.748 61.331,224.825 61.598 C 226.901 61.866,228.780 62.225,229.000 62.398 C 229.220 62.570,230.750 62.841,232.400 63.000 C 234.050 63.159,235.580 63.433,235.800 63.610 C 236.020 63.786,238.090 64.153,240.400 64.424 C 242.710 64.696,244.780 65.055,245.000 65.222 C 245.220 65.389,247.560 65.734,250.200 65.988 C 252.840 66.242,255.360 66.605,255.800 66.795 C 259.189 68.254,281.017 68.239,281.533 66.777 C 281.607 66.570,281.974 66.400,282.349 66.400 C 282.974 66.400,283.775 66.033,286.909 64.314 C 288.101 63.660,293.600 58.412,293.600 57.928 C 293.600 57.645,295.224 55.040,295.942 54.173 C 296.137 53.938,296.535 53.083,296.828 52.273 C 297.121 51.463,297.485 50.800,297.636 50.800 C 297.787 50.800,298.022 50.215,298.158 49.500 C 298.293 48.785,298.649 47.731,298.948 47.158 C 299.248 46.585,299.712 45.145,299.981 43.958 C 300.250 42.771,300.706 41.260,300.994 40.600 C 301.282 39.940,301.647 38.410,301.804 37.200 C 301.961 35.990,302.233 34.820,302.407 34.600 C 302.582 34.380,302.856 33.320,303.016 32.245 L 303.307 30.291 301.954 30.525 C 301.209 30.654,299.700 30.871,298.600 31.007 C 297.500 31.143,296.240 31.411,295.800 31.602 C 292.213 33.156,232.259 33.162,228.600 31.608 C 228.160 31.421,224.020 31.060,219.400 30.805 C 214.780 30.551,210.640 30.189,210.200 30.001 C 209.760 29.814,205.980 29.456,201.800 29.206 C 197.620 28.956,193.840 28.594,193.400 28.401 C 191.047 27.370,167.421 26.907,156.200 27.672 M248.500 117.700 C 248.280 117.975,247.882 119.730,247.615 121.600 C 247.348 123.470,246.986 125.180,246.812 125.400 C 246.637 125.620,246.275 127.376,246.006 129.302 C 245.737 131.228,245.373 132.893,245.198 133.001 C 245.022 133.110,244.751 134.324,244.595 135.699 C 244.439 137.075,244.175 138.380,244.008 138.600 C 243.841 138.820,243.467 140.530,243.175 142.400 C 242.884 144.270,242.535 145.890,242.400 146.000 C 242.265 146.110,241.916 147.730,241.625 149.600 C 241.333 151.470,240.968 153.180,240.813 153.400 C 240.658 153.620,240.306 155.330,240.030 157.200 C 239.755 159.070,239.395 160.780,239.230 161.000 C 239.066 161.220,238.706 162.930,238.430 164.800 C 238.155 166.670,237.787 168.380,237.612 168.600 C 237.438 168.820,237.072 170.620,236.800 172.600 C 236.528 174.580,236.158 176.384,235.978 176.610 C 235.799 176.835,235.526 178.005,235.372 179.210 C 235.219 180.414,234.961 181.580,234.799 181.800 C 234.638 182.020,234.271 183.730,233.985 185.600 C 233.699 187.470,233.336 189.180,233.180 189.400 C 233.024 189.620,232.665 191.375,232.383 193.300 C 232.102 195.225,231.752 196.800,231.607 196.800 C 231.461 196.800,231.108 198.510,230.821 200.600 C 230.534 202.690,230.171 204.400,230.014 204.400 C 229.858 204.400,229.491 206.200,229.200 208.400 C 228.909 210.600,228.549 212.400,228.400 212.400 C 228.251 212.400,227.898 213.975,227.617 215.900 C 227.335 217.825,226.976 219.580,226.820 219.800 C 226.664 220.020,226.301 221.730,226.015 223.600 C 225.729 225.470,225.362 227.180,225.201 227.400 C 225.039 227.620,224.781 228.786,224.628 229.990 C 224.474 231.195,224.201 232.365,224.022 232.590 C 223.842 232.816,223.472 234.620,223.200 236.600 C 222.928 238.580,222.562 240.380,222.388 240.600 C 222.213 240.820,221.845 242.530,221.570 244.400 C 221.294 246.270,220.934 247.980,220.770 248.200 C 220.605 248.420,220.245 250.130,219.970 252.000 C 219.694 253.870,219.342 255.580,219.187 255.800 C 219.032 256.020,218.667 257.730,218.375 259.600 C 218.084 261.470,217.735 263.090,217.600 263.200 C 217.465 263.310,217.116 264.930,216.825 266.800 C 216.533 268.670,216.159 270.380,215.992 270.600 C 215.825 270.820,215.561 272.125,215.405 273.501 C 215.249 274.876,214.978 276.090,214.802 276.199 C 214.627 276.307,214.263 277.972,213.994 279.898 C 213.725 281.824,213.363 283.580,213.188 283.800 C 213.014 284.020,212.652 285.730,212.385 287.600 C 212.118 289.470,211.765 291.180,211.602 291.400 C 211.439 291.620,211.071 293.330,210.785 295.200 C 210.499 297.070,210.139 298.780,209.985 299.000 C 209.831 299.220,209.471 300.930,209.185 302.800 C 208.899 304.670,208.536 306.380,208.380 306.600 C 208.223 306.820,207.875 308.575,207.606 310.500 C 207.337 312.425,206.990 314.000,206.835 314.000 C 206.680 314.000,206.324 315.618,206.044 317.596 C 205.764 319.575,205.393 321.281,205.220 321.388 C 205.047 321.495,204.778 322.709,204.622 324.087 C 204.466 325.465,204.196 326.774,204.022 326.996 C 203.848 327.218,203.478 328.930,203.200 330.800 C 202.922 332.670,202.562 334.380,202.400 334.600 C 202.238 334.820,201.878 336.530,201.600 338.400 C 201.322 340.270,200.961 341.980,200.798 342.200 C 200.635 342.420,200.282 344.130,200.015 346.000 C 199.748 347.870,199.386 349.580,199.212 349.800 C 199.037 350.020,198.675 351.775,198.406 353.700 C 198.137 355.625,197.785 357.200,197.623 357.200 C 197.462 357.200,197.100 359.002,196.819 361.205 C 196.538 363.407,196.158 365.303,195.973 365.417 C 195.788 365.531,195.515 366.699,195.367 368.012 C 195.218 369.325,194.976 370.400,194.828 370.400 C 194.681 370.400,194.337 371.944,194.064 373.831 C 193.791 375.718,193.367 377.584,193.121 377.978 C 192.096 379.619,194.794 380.556,196.600 379.185 C 196.820 379.019,198.395 378.659,200.100 378.386 C 201.805 378.113,203.200 377.764,203.200 377.610 C 203.200 377.455,204.731 377.101,206.602 376.823 C 208.473 376.544,210.091 376.176,210.197 376.004 C 210.303 375.833,211.247 375.565,212.295 375.409 C 213.343 375.253,214.380 374.980,214.600 374.802 C 214.820 374.624,216.440 374.263,218.200 374.000 C 219.960 373.737,221.580 373.383,221.800 373.213 C 222.020 373.044,223.460 372.678,225.000 372.400 C 226.540 372.122,227.980 371.754,228.200 371.583 C 228.420 371.411,230.085 371.043,231.900 370.766 C 233.715 370.489,235.200 370.126,235.200 369.960 C 235.200 369.793,236.178 369.535,237.374 369.386 C 239.740 369.090,239.803 369.019,240.218 366.151 C 240.374 365.078,240.634 364.020,240.797 363.800 C 240.961 363.580,241.322 361.870,241.600 360.000 C 241.878 358.130,242.248 356.418,242.422 356.196 C 242.596 355.974,242.866 354.665,243.022 353.287 C 243.178 351.909,243.443 350.697,243.611 350.593 C 243.779 350.489,244.147 348.828,244.428 346.902 C 244.710 344.976,245.076 343.307,245.242 343.194 C 245.408 343.080,245.766 341.370,246.038 339.394 C 246.311 337.417,246.648 335.710,246.789 335.600 C 246.930 335.490,247.284 333.870,247.575 332.000 C 247.867 330.130,248.231 328.420,248.385 328.200 C 248.539 327.980,248.899 326.270,249.185 324.400 C 249.471 322.530,249.840 320.820,250.005 320.600 C 250.170 320.380,250.525 318.624,250.794 316.698 C 251.063 314.772,251.430 313.105,251.610 312.994 C 251.790 312.883,252.063 311.621,252.216 310.190 C 252.369 308.759,252.634 307.502,252.805 307.397 C 252.977 307.291,253.343 305.628,253.620 303.702 C 253.898 301.776,254.256 300.020,254.416 299.800 C 254.577 299.580,254.947 297.825,255.238 295.900 C 255.529 293.975,255.878 292.400,256.014 292.400 C 256.149 292.400,256.503 290.690,256.800 288.600 C 257.097 286.510,257.489 284.800,257.670 284.800 C 257.852 284.800,258.000 284.373,258.000 283.850 C 258.000 283.328,258.113 282.338,258.250 281.650 L 258.500 280.400 261.826 280.400 C 263.656 280.400,265.265 280.581,265.402 280.803 C 265.539 281.025,266.314 281.530,267.125 281.927 C 268.818 282.755,270.508 283.708,270.800 284.000 C 271.161 284.360,273.656 285.600,274.021 285.600 C 274.216 285.600,275.327 286.030,276.488 286.555 C 277.650 287.081,279.230 287.642,280.000 287.802 C 280.770 287.962,281.605 288.257,281.856 288.458 C 282.106 288.660,283.456 289.024,284.856 289.268 C 286.255 289.511,287.528 289.911,287.685 290.155 C 288.077 290.765,304.055 290.773,304.839 290.164 C 305.147 289.924,306.750 289.498,308.400 289.217 C 310.050 288.937,311.580 288.569,311.800 288.400 C 312.020 288.231,312.830 287.961,313.600 287.800 C 314.370 287.639,315.450 287.284,316.000 287.011 C 316.550 286.737,318.800 285.640,321.000 284.572 C 324.968 282.646,327.277 281.277,327.533 280.700 C 327.607 280.535,327.852 280.400,328.078 280.400 C 328.304 280.400,329.349 279.680,330.400 278.800 C 331.451 277.920,332.450 277.200,332.619 277.200 C 333.371 277.200,346.000 263.471,346.000 262.653 C 346.000 262.515,346.666 261.475,347.479 260.343 C 348.892 258.377,349.733 256.998,350.859 254.800 C 351.141 254.250,351.822 253.080,352.372 252.200 C 353.961 249.659,355.597 246.263,355.598 245.500 C 355.599 245.115,355.751 244.800,355.936 244.800 C 356.121 244.800,356.510 244.080,356.800 243.200 C 357.090 242.320,357.457 241.600,357.614 241.600 C 357.771 241.600,358.008 241.060,358.140 240.400 C 358.272 239.740,358.731 238.429,359.161 237.486 C 359.590 236.543,360.070 235.238,360.226 234.586 C 360.382 233.934,360.642 233.220,360.803 233.000 C 360.964 232.780,361.317 231.654,361.588 230.499 C 361.859 229.343,362.227 228.307,362.405 228.197 C 362.584 228.086,362.852 227.277,363.000 226.398 C 363.149 225.519,363.401 224.800,363.562 224.800 C 363.722 224.800,364.090 223.585,364.379 222.100 C 364.668 220.615,365.044 219.220,365.215 219.000 C 365.385 218.780,365.748 217.430,366.020 216.000 C 366.292 214.570,366.645 213.220,366.804 213.000 C 366.964 212.780,367.322 211.070,367.600 209.200 C 367.878 207.330,368.241 205.620,368.406 205.400 C 368.570 205.180,368.928 203.380,369.200 201.400 C 369.472 199.420,369.831 197.620,369.998 197.400 C 370.165 197.180,370.526 194.840,370.800 192.200 C 371.074 189.560,371.438 187.220,371.609 187.000 C 371.780 186.780,372.049 184.980,372.207 183.000 C 372.366 181.020,372.699 179.147,372.948 178.839 C 373.579 178.055,373.586 154.090,372.954 153.686 C 372.709 153.528,372.377 152.320,372.216 151.000 C 372.055 149.680,371.790 148.420,371.628 148.200 C 371.465 147.980,371.110 146.765,370.837 145.500 C 370.565 144.235,370.176 143.200,369.971 143.200 C 369.767 143.200,369.600 142.892,369.600 142.515 C 369.600 141.529,366.502 135.416,365.579 134.581 C 365.151 134.193,364.800 133.666,364.800 133.410 C 364.800 133.154,364.395 132.581,363.900 132.137 C 363.405 131.693,362.608 130.895,362.129 130.365 C 360.719 128.803,358.104 126.400,357.815 126.400 C 357.667 126.400,356.957 125.950,356.236 125.400 C 355.514 124.850,354.716 124.400,354.462 124.400 C 354.208 124.400,354.000 124.249,354.000 124.064 C 354.000 123.879,353.280 123.490,352.400 123.200 C 351.520 122.910,350.800 122.542,350.800 122.383 C 350.800 122.225,349.947 121.880,348.905 121.618 C 347.863 121.355,346.828 120.994,346.605 120.815 C 346.382 120.636,345.120 120.274,343.800 120.010 C 342.480 119.747,341.076 119.359,340.679 119.149 C 340.283 118.939,337.943 118.579,335.479 118.349 C 333.016 118.119,330.687 117.766,330.305 117.565 C 329.407 117.093,318.205 117.088,317.295 117.560 C 316.913 117.758,315.160 118.136,313.400 118.399 C 311.640 118.663,310.020 119.020,309.800 119.193 C 309.580 119.366,308.770 119.639,308.000 119.800 C 307.230 119.961,306.150 120.316,305.600 120.590 C 300.670 123.042,300.141 123.200,296.860 123.200 L 293.600 123.200 293.600 120.200 L 293.600 117.200 271.249 117.200 C 253.847 117.200,248.810 117.311,248.500 117.700 M323.800 129.851 C 324.240 130.099,325.230 130.602,326.000 130.968 C 329.111 132.446,330.800 133.750,330.800 134.675 C 330.800 134.977,331.070 135.329,331.400 135.455 C 331.730 135.582,332.000 135.864,332.000 136.081 C 332.000 136.299,332.335 136.954,332.744 137.538 C 333.154 138.122,333.707 139.590,333.973 140.800 C 334.239 142.010,334.670 143.433,334.929 143.963 C 335.574 145.282,335.600 175.224,334.957 176.039 C 334.713 176.347,334.283 178.850,334.000 181.600 C 333.717 184.350,333.355 186.780,333.196 187.000 C 333.036 187.220,332.672 189.200,332.387 191.400 C 332.102 193.600,331.739 195.580,331.580 195.800 C 331.422 196.020,331.053 197.775,330.762 199.700 C 330.471 201.625,330.122 203.200,329.986 203.200 C 329.851 203.200,329.497 204.910,329.200 207.000 C 328.903 209.090,328.542 210.800,328.399 210.800 C 328.256 210.800,327.911 212.285,327.634 214.100 C 327.357 215.915,326.989 217.580,326.817 217.800 C 326.646 218.020,326.278 219.460,326.000 221.000 C 325.722 222.540,325.362 223.980,325.199 224.200 C 325.037 224.420,324.775 225.320,324.616 226.200 C 324.458 227.080,324.190 227.980,324.022 228.200 C 323.853 228.420,323.501 229.720,323.239 231.089 C 322.978 232.458,322.503 234.078,322.185 234.689 C 321.866 235.300,321.603 236.250,321.600 236.800 C 321.597 237.350,321.343 238.283,321.035 238.873 C 320.727 239.463,320.348 240.543,320.192 241.273 C 320.037 242.003,319.570 243.355,319.155 244.278 C 318.740 245.201,318.400 246.066,318.400 246.200 C 318.400 246.792,316.034 251.720,312.111 259.300 C 311.798 259.905,311.375 260.400,311.171 260.400 C 310.967 260.400,310.800 260.639,310.800 260.931 C 310.800 261.652,304.642 267.600,303.895 267.600 C 303.567 267.600,303.092 267.848,302.841 268.150 C 302.590 268.453,301.533 268.916,300.492 269.180 C 299.452 269.445,298.287 269.827,297.905 270.030 C 297.039 270.492,278.300 270.524,277.780 270.065 C 277.571 269.880,276.171 269.513,274.670 269.249 C 273.168 268.985,271.638 268.620,271.270 268.439 C 267.687 266.673,265.974 265.792,264.701 265.061 L 263.202 264.200 263.201 260.580 C 263.200 258.589,263.359 256.789,263.553 256.580 C 263.747 256.371,264.123 254.670,264.389 252.800 C 264.654 250.930,265.012 249.220,265.185 249.000 C 265.358 248.780,265.718 247.070,265.985 245.200 C 266.252 243.330,266.609 241.620,266.779 241.400 C 266.948 241.180,267.310 239.560,267.584 237.800 C 267.858 236.040,268.214 234.420,268.376 234.200 C 268.537 233.980,268.894 232.270,269.170 230.400 C 269.445 228.530,269.807 226.820,269.973 226.600 C 270.139 226.380,270.502 224.624,270.780 222.698 C 271.057 220.772,271.423 219.109,271.595 219.003 C 271.766 218.898,272.031 217.641,272.184 216.210 C 272.337 214.779,272.610 213.518,272.790 213.406 C 272.969 213.295,273.343 211.628,273.620 209.702 C 273.898 207.776,274.261 206.020,274.427 205.800 C 274.593 205.580,274.955 203.870,275.230 202.000 C 275.506 200.130,275.866 198.420,276.030 198.200 C 276.195 197.980,276.559 196.270,276.839 194.400 C 277.119 192.530,277.463 190.910,277.604 190.800 C 277.744 190.690,278.102 188.980,278.400 187.000 C 278.698 185.020,279.055 183.310,279.194 183.200 C 279.332 183.090,279.684 181.470,279.975 179.600 C 280.267 177.730,280.631 176.020,280.785 175.800 C 280.939 175.580,281.299 173.870,281.585 172.000 C 281.871 170.130,282.241 168.420,282.408 168.200 C 282.574 167.980,282.841 166.810,283.000 165.600 C 283.159 164.390,283.426 163.220,283.592 163.000 C 283.758 162.780,284.124 161.070,284.406 159.200 C 284.687 157.330,285.037 155.710,285.184 155.600 C 285.331 155.490,285.681 153.870,285.961 152.000 C 286.241 150.130,286.605 148.420,286.770 148.200 C 286.934 147.980,287.294 146.270,287.570 144.400 C 287.845 142.530,288.210 140.820,288.381 140.600 C 288.552 140.380,288.789 139.432,288.909 138.494 C 289.122 136.815,290.363 135.244,291.500 135.213 C 291.775 135.206,292.000 135.039,292.000 134.842 C 292.000 134.469,297.573 131.660,300.000 130.810 C 300.770 130.540,301.760 130.167,302.200 129.980 C 303.770 129.315,304.713 129.262,313.800 129.331 C 319.764 129.376,323.281 129.559,323.800 129.851 " stroke="none" fill="#000000" fill-rule="evenodd"></path>
</g></svg>
