<svg id="svg" version="1.1" width="100%" height="100%" viewBox="0 0 400 443.2432432432432" xmlns="http://www.w3.org/2000/svg" xmlns:xlink="http://www.w3.org/1999/xlink" ><g id="svgg"><path id="logo-inner" d="M156.200 27.672 C 153.340 27.866,150.640 28.184,150.200 28.377 C 149.760 28.569,147.240 28.946,144.600 29.213 C 141.960 29.481,139.620 29.834,139.400 29.999 C 139.180 30.164,137.470 30.518,135.600 30.785 C 133.730 31.052,132.020 31.411,131.800 31.583 C 131.580 31.754,130.140 32.122,128.600 32.400 C 127.060 32.678,125.620 33.042,125.400 33.209 C 125.180 33.377,123.968 33.725,122.707 33.984 C 121.446 34.242,120.323 34.601,120.211 34.782 C 120.100 34.962,119.351 35.233,118.546 35.384 C 117.741 35.535,116.704 35.902,116.242 36.200 C 115.779 36.497,114.725 36.864,113.900 37.015 C 113.075 37.166,112.400 37.429,112.400 37.601 C 112.400 37.773,111.905 38.027,111.300 38.167 C 110.259 38.406,105.365 40.626,103.200 41.840 C 102.650 42.149,101.075 42.966,99.700 43.656 C 98.325 44.345,97.200 45.065,97.200 45.255 C 97.200 45.445,96.962 45.600,96.671 45.600 C 96.380 45.600,95.435 46.135,94.571 46.789 C 93.707 47.443,92.839 47.983,92.641 47.989 C 92.444 47.995,91.514 48.630,90.574 49.400 C 89.634 50.170,88.714 50.800,88.529 50.800 C 88.344 50.800,87.968 51.160,87.693 51.600 C 87.418 52.040,86.903 52.400,86.549 52.400 C 85.721 52.400,72.000 66.145,72.000 66.975 C 72.000 67.319,71.850 67.600,71.667 67.600 C 71.385 67.600,69.598 70.041,68.200 72.339 C 67.980 72.701,67.506 73.447,67.147 73.998 C 65.443 76.612,62.800 81.694,62.800 82.358 C 62.800 82.601,62.649 82.800,62.464 82.800 C 62.279 82.800,61.880 83.565,61.577 84.500 C 61.274 85.435,60.796 86.650,60.515 87.200 C 60.234 87.750,59.893 88.785,59.758 89.500 C 59.622 90.215,59.376 90.800,59.210 90.800 C 59.045 90.800,58.678 91.925,58.395 93.300 C 58.112 94.675,57.745 95.980,57.580 96.200 C 57.414 96.420,57.044 98.040,56.757 99.800 C 56.470 101.560,56.102 103.095,55.939 103.211 C 55.776 103.326,55.516 105.087,55.363 107.123 C 55.209 109.159,54.930 110.920,54.742 111.036 C 54.288 111.316,54.299 122.690,54.753 122.971 C 54.947 123.091,55.231 124.359,55.384 125.790 C 55.537 127.221,55.808 128.481,55.986 128.591 C 56.164 128.701,56.429 129.427,56.574 130.204 C 56.884 131.853,59.290 136.618,60.420 137.822 C 60.849 138.278,61.200 138.813,61.200 139.011 C 61.200 139.561,64.500 142.800,65.061 142.800 C 65.332 142.800,65.790 143.115,66.077 143.500 C 66.804 144.473,72.186 147.066,74.600 147.606 C 75.700 147.852,76.889 148.206,77.241 148.393 C 77.594 148.580,78.764 148.846,79.841 148.984 C 80.919 149.122,82.391 149.327,83.113 149.438 C 84.451 149.645,84.673 148.403,83.554 146.970 C 83.370 146.734,83.098 145.243,82.951 143.658 C 82.803 142.072,82.529 140.680,82.341 140.564 C 81.895 140.288,81.895 112.912,82.342 112.636 C 82.530 112.520,82.810 110.601,82.963 108.373 C 83.116 106.145,83.396 104.024,83.585 103.661 C 83.773 103.297,84.147 101.470,84.416 99.600 C 84.685 97.730,85.042 96.020,85.209 95.800 C 85.376 95.580,85.727 94.358,85.988 93.085 C 86.249 91.812,86.718 90.282,87.029 89.685 C 87.341 89.088,87.707 88.015,87.842 87.300 C 87.978 86.585,88.249 86.000,88.445 86.000 C 88.640 86.000,88.800 85.805,88.800 85.567 C 88.800 84.852,91.818 78.985,92.948 77.504 C 93.527 76.745,94.000 75.898,94.000 75.620 C 94.000 74.897,104.995 64.000,105.725 64.000 C 106.059 64.000,106.393 63.839,106.467 63.643 C 106.681 63.070,111.520 60.435,115.100 58.942 C 115.815 58.644,116.985 58.132,117.700 57.805 C 118.415 57.478,119.990 57.007,121.200 56.759 C 122.410 56.510,123.580 56.166,123.800 55.994 C 124.020 55.822,125.640 55.469,127.400 55.208 C 129.160 54.947,130.960 54.580,131.400 54.391 C 132.862 53.766,142.301 53.200,151.264 53.200 L 160.113 53.200 159.905 57.601 C 159.790 60.022,159.525 62.227,159.316 62.501 C 159.107 62.776,158.701 64.530,158.415 66.400 C 158.129 68.270,157.762 69.980,157.600 70.200 C 157.438 70.420,157.078 72.130,156.800 74.000 C 156.522 75.870,156.155 77.580,155.986 77.800 C 155.816 78.020,155.549 79.235,155.392 80.500 C 155.236 81.765,154.985 82.800,154.834 82.800 C 154.683 82.800,154.333 84.370,154.056 86.288 C 153.779 88.207,153.412 89.962,153.241 90.188 C 153.071 90.415,152.706 92.130,152.430 94.000 C 152.155 95.870,151.789 97.580,151.618 97.800 C 151.446 98.020,151.078 99.730,150.800 101.600 C 150.522 103.470,150.162 105.180,150.000 105.400 C 149.838 105.620,149.478 107.330,149.200 109.200 C 148.922 111.070,148.562 112.780,148.400 113.000 C 148.238 113.220,147.871 114.930,147.585 116.800 C 147.299 118.670,146.939 120.380,146.785 120.600 C 146.631 120.820,146.271 122.530,145.985 124.400 C 145.699 126.270,145.338 127.980,145.183 128.200 C 145.028 128.420,144.771 129.500,144.613 130.600 C 144.455 131.700,144.185 132.780,144.013 133.000 C 143.842 133.220,143.482 134.930,143.215 136.800 C 142.948 138.670,142.588 140.380,142.415 140.600 C 142.242 140.820,141.882 142.530,141.615 144.400 C 141.348 146.270,140.988 147.980,140.815 148.200 C 140.642 148.420,140.282 150.130,140.015 152.000 C 139.748 153.870,139.386 155.580,139.212 155.800 C 139.037 156.020,138.675 157.775,138.406 159.700 C 138.137 161.625,137.790 163.200,137.635 163.200 C 137.480 163.200,137.124 164.818,136.844 166.796 C 136.564 168.775,136.191 170.482,136.015 170.591 C 135.839 170.700,135.569 171.959,135.416 173.390 C 135.263 174.821,134.990 176.083,134.810 176.194 C 134.630 176.305,134.263 177.972,133.994 179.898 C 133.725 181.824,133.363 183.580,133.188 183.800 C 133.014 184.020,132.652 185.730,132.385 187.600 C 132.118 189.470,131.757 191.180,131.585 191.400 C 131.412 191.620,131.045 193.330,130.770 195.200 C 130.494 197.070,130.134 198.780,129.970 199.000 C 129.805 199.220,129.445 200.930,129.170 202.800 C 128.894 204.670,128.534 206.380,128.370 206.600 C 128.205 206.820,127.841 208.530,127.561 210.400 C 127.281 212.270,126.931 213.890,126.784 214.000 C 126.637 214.110,126.287 215.730,126.006 217.600 C 125.724 219.470,125.349 221.184,125.173 221.410 C 124.996 221.635,124.726 222.805,124.572 224.010 C 124.419 225.214,124.161 226.380,123.999 226.600 C 123.838 226.820,123.471 228.530,123.185 230.400 C 122.899 232.270,122.531 233.980,122.367 234.200 C 122.204 234.420,121.845 236.130,121.570 238.000 C 121.294 239.870,120.929 241.585,120.759 241.812 C 120.588 242.038,120.221 243.793,119.944 245.712 C 119.667 247.630,119.314 249.200,119.161 249.200 C 119.008 249.200,118.663 250.775,118.394 252.700 C 118.125 254.625,117.763 256.380,117.588 256.600 C 117.414 256.820,117.052 258.530,116.785 260.400 C 116.518 262.270,116.153 263.984,115.975 264.210 C 115.797 264.435,115.526 265.605,115.372 266.810 C 115.219 268.014,114.961 269.180,114.799 269.400 C 114.638 269.620,114.267 271.330,113.975 273.200 C 113.684 275.070,113.335 276.690,113.200 276.800 C 113.065 276.910,112.716 278.530,112.424 280.400 C 112.133 282.270,111.783 283.980,111.647 284.200 C 111.388 284.620,110.486 289.296,110.432 290.500 C 110.402 291.159,111.720 291.200,132.780 291.200 L 155.160 291.200 155.432 288.800 C 155.581 287.480,155.822 286.400,155.968 286.400 C 156.113 286.400,156.471 284.825,156.762 282.900 C 157.053 280.975,157.421 279.220,157.578 279.000 C 157.736 278.780,158.099 277.070,158.385 275.200 C 158.671 273.330,159.031 271.620,159.185 271.400 C 159.339 271.180,159.699 269.470,159.985 267.600 C 160.271 265.730,160.638 264.020,160.800 263.800 C 160.962 263.580,161.322 261.870,161.600 260.000 C 161.878 258.130,162.239 256.420,162.403 256.200 C 162.566 255.980,162.829 254.900,162.987 253.800 C 163.145 252.700,163.412 251.620,163.580 251.400 C 163.747 251.180,164.119 249.290,164.407 247.200 C 164.694 245.110,165.072 243.305,165.246 243.188 C 165.420 243.072,165.783 241.317,166.053 239.288 C 166.323 237.260,166.673 235.600,166.831 235.600 C 166.988 235.600,167.337 234.025,167.606 232.100 C 167.875 230.175,168.237 228.420,168.412 228.200 C 168.586 227.980,168.948 226.270,169.215 224.400 C 169.482 222.530,169.842 220.820,170.015 220.600 C 170.188 220.380,170.548 218.670,170.815 216.800 C 171.082 214.930,171.453 213.208,171.638 212.974 C 171.824 212.739,172.096 211.524,172.243 210.274 C 172.390 209.023,172.628 208.000,172.771 208.000 C 172.915 208.000,173.271 206.425,173.562 204.500 C 173.853 202.575,174.221 200.820,174.378 200.600 C 174.536 200.380,174.899 198.670,175.185 196.800 C 175.471 194.930,175.838 193.220,176.000 193.000 C 176.162 192.780,176.522 191.070,176.800 189.200 C 177.078 187.330,177.438 185.620,177.600 185.400 C 177.762 185.180,178.122 183.470,178.400 181.600 C 178.678 179.730,179.038 178.020,179.200 177.800 C 179.362 177.580,179.729 175.870,180.015 174.000 C 180.301 172.130,180.664 170.420,180.822 170.200 C 180.979 169.980,181.347 168.225,181.638 166.300 C 181.929 164.375,182.285 162.800,182.429 162.800 C 182.572 162.800,182.810 161.777,182.957 160.526 C 183.104 159.276,183.376 158.061,183.562 157.826 C 183.747 157.592,184.118 155.870,184.385 154.000 C 184.652 152.130,185.012 150.420,185.185 150.200 C 185.358 149.980,185.718 148.270,185.985 146.400 C 186.252 144.530,186.612 142.820,186.785 142.600 C 186.958 142.380,187.318 140.670,187.585 138.800 C 187.852 136.930,188.214 135.220,188.388 135.000 C 188.563 134.780,188.925 133.025,189.194 131.100 C 189.463 129.175,189.810 127.600,189.965 127.600 C 190.120 127.600,190.476 125.982,190.756 124.004 C 191.036 122.025,191.409 120.318,191.585 120.209 C 191.761 120.100,192.031 118.841,192.184 117.410 C 192.337 115.979,192.610 114.717,192.790 114.606 C 192.970 114.495,193.337 112.828,193.606 110.902 C 193.875 108.976,194.237 107.220,194.412 107.000 C 194.586 106.780,194.948 105.070,195.215 103.200 C 195.482 101.330,195.843 99.620,196.015 99.400 C 196.188 99.180,196.555 97.470,196.830 95.600 C 197.106 93.730,197.466 92.020,197.630 91.800 C 197.795 91.580,198.155 89.870,198.430 88.000 C 198.706 86.130,199.066 84.420,199.230 84.200 C 199.395 83.980,199.759 82.270,200.039 80.400 C 200.319 78.530,200.669 76.910,200.816 76.800 C 200.963 76.690,201.313 75.070,201.594 73.200 C 201.876 71.330,202.251 69.616,202.427 69.390 C 202.604 69.165,202.874 67.995,203.028 66.790 C 203.181 65.586,203.442 64.420,203.608 64.200 C 203.775 63.980,204.037 62.855,204.193 61.700 L 204.475 59.600 208.938 59.597 C 213.451 59.595,219.279 60.200,220.425 60.791 C 220.768 60.968,222.748 61.331,224.825 61.598 C 226.901 61.866,228.780 62.225,229.000 62.398 C 229.220 62.570,230.750 62.841,232.400 63.000 C 234.050 63.159,235.580 63.433,235.800 63.610 C 236.020 63.786,238.090 64.153,240.400 64.424 C 242.710 64.696,244.780 65.055,245.000 65.222 C 245.220 65.389,247.560 65.734,250.200 65.988 C 252.840 66.242,255.360 66.605,255.800 66.795 C 259.189 68.254,281.017 68.239,281.533 66.777 C 281.607 66.570,281.974 66.400,282.349 66.400 C 282.974 66.400,283.775 66.033,286.909 64.314 C 288.101 63.660,293.600 58.412,293.600 57.928 C 293.600 57.645,295.224 55.040,295.942 54.173 C 296.137 53.938,296.535 53.083,296.828 52.273 C 297.121 51.463,297.485 50.800,297.636 50.800 C 297.787 50.800,298.022 50.215,298.158 49.500 C 298.293 48.785,298.649 47.731,298.948 47.158 C 299.248 46.585,299.712 45.145,299.981 43.958 C 300.250 42.771,300.706 41.260,300.994 40.600 C 301.282 39.940,301.647 38.410,301.804 37.200 C 301.961 35.990,302.233 34.820,302.407 34.600 C 302.582 34.380,302.856 33.320,303.016 32.245 L 303.307 30.291 301.954 30.525 C 301.209 30.654,299.700 30.871,298.600 31.007 C 297.500 31.143,296.240 31.411,295.800 31.602 C 292.213 33.156,232.259 33.162,228.600 31.608 C 228.160 31.421,224.020 31.060,219.400 30.805 C 214.780 30.551,210.640 30.189,210.200 30.001 C 209.760 29.814,205.980 29.456,201.800 29.206 C 197.620 28.956,193.840 28.594,193.400 28.401 C 191.047 27.370,167.421 26.907,156.200 27.672 M248.500 117.700 C 248.280 117.975,247.882 119.730,247.615 121.600 C 247.348 123.470,246.986 125.180,246.812 125.400 C 246.637 125.620,246.275 127.376,246.006 129.302 C 245.737 131.228,245.373 132.893,245.198 133.001 C 245.022 133.110,244.751 134.324,244.595 135.699 C 244.439 137.075,244.175 138.380,244.008 138.600 C 243.841 138.820,243.467 140.530,243.175 142.400 C 242.884 144.270,242.535 145.890,242.400 146.000 C 242.265 146.110,241.916 147.730,241.625 149.600 C 241.333 151.470,240.968 153.180,240.813 153.400 C 240.658 153.620,240.306 155.330,240.030 157.200 C 239.755 159.070,239.395 160.780,239.230 161.000 C 239.066 161.220,238.706 162.930,238.430 164.800 C 238.155 166.670,237.787 168.380,237.612 168.600 C 237.438 168.820,237.072 170.620,236.800 172.600 C 236.528 174.580,236.158 176.384,235.978 176.610 C 235.799 176.835,235.526 178.005,235.372 179.210 C 235.219 180.414,234.961 181.580,234.799 181.800 C 234.638 182.020,234.271 183.730,233.985 185.600 C 233.699 187.470,233.336 189.180,233.180 189.400 C 233.024 189.620,232.665 191.375,232.383 193.300 C 232.102 195.225,231.752 196.800,231.607 196.800 C 231.461 196.800,231.108 198.510,230.821 200.600 C 230.534 202.690,230.171 204.400,230.014 204.400 C 229.858 204.400,229.491 206.200,229.200 208.400 C 228.909 210.600,228.549 212.400,228.400 212.400 C 228.251 212.400,227.898 213.975,227.617 215.900 C 227.335 217.825,226.976 219.580,226.820 219.800 C 226.664 220.020,226.301 221.730,226.015 223.600 C 225.729 225.470,225.362 227.180,225.201 227.400 C 225.039 227.620,224.781 228.786,224.628 229.990 C 224.474 231.195,224.201 232.365,224.022 232.590 C 223.842 232.816,223.472 234.620,223.200 236.600 C 222.928 238.580,222.562 240.380,222.388 240.600 C 222.213 240.820,221.845 242.530,221.570 244.400 C 221.294 246.270,220.934 247.980,220.770 248.200 C 220.605 248.420,220.245 250.130,219.970 252.000 C 219.694 253.870,219.342 255.580,219.187 255.800 C 219.032 256.020,218.667 257.730,218.375 259.600 C 218.084 261.470,217.735 263.090,217.600 263.200 C 217.465 263.310,217.116 264.930,216.825 266.800 C 216.533 268.670,216.159 270.380,215.992 270.600 C 215.825 270.820,215.561 272.125,215.405 273.501 C 215.249 274.876,214.978 276.090,214.802 276.199 C 214.627 276.307,214.263 277.972,213.994 279.898 C 213.725 281.824,213.363 283.580,213.188 283.800 C 213.014 284.020,212.652 285.730,212.385 287.600 C 212.118 289.470,211.765 291.180,211.602 291.400 C 211.439 291.620,211.071 293.330,210.785 295.200 C 210.499 297.070,210.139 298.780,209.985 299.000 C 209.831 299.220,209.471 300.930,209.185 302.800 C 208.899 304.670,208.536 306.380,208.380 306.600 C 208.223 306.820,207.875 308.575,207.606 310.500 C 207.337 312.425,206.990 314.000,206.835 314.000 C 206.680 314.000,206.324 315.618,206.044 317.596 C 205.764 319.575,205.393 321.281,205.220 321.388 C 205.047 321.495,204.778 322.709,204.622 324.087 C 204.466 325.465,204.196 326.774,204.022 326.996 C 203.848 327.218,203.478 328.930,203.200 330.800 C 202.922 332.670,202.562 334.380,202.400 334.600 C 202.238 334.820,201.878 336.530,201.600 338.400 C 201.322 340.270,200.961 341.980,200.798 342.200 C 200.635 342.420,200.282 344.130,200.015 346.000 C 199.748 347.870,199.386 349.580,199.212 349.800 C 199.037 350.020,198.675 351.775,198.406 353.700 C 198.137 355.625,197.785 357.200,197.623 357.200 C 197.462 357.200,197.100 359.002,196.819 361.205 C 196.538 363.407,196.158 365.303,195.973 365.417 C 195.788 365.531,195.515 366.699,195.367 368.012 C 195.218 369.325,194.976 370.400,194.828 370.400 C 194.681 370.400,194.337 371.944,194.064 373.831 C 193.791 375.718,193.367 377.584,193.121 377.978 C 192.096 379.619,194.794 380.556,196.600 379.185 C 196.820 379.019,198.395 378.659,200.100 378.386 C 201.805 378.113,203.200 377.764,203.200 377.610 C 203.200 377.455,204.731 377.101,206.602 376.823 C 208.473 376.544,210.091 376.176,210.197 376.004 C 210.303 375.833,211.247 375.565,212.295 375.409 C 213.343 375.253,214.380 374.980,214.600 374.802 C 214.820 374.624,216.440 374.263,218.200 374.000 C 219.960 373.737,221.580 373.383,221.800 373.213 C 222.020 373.044,223.460 372.678,225.000 372.400 C 226.540 372.122,227.980 371.754,228.200 371.583 C 228.420 371.411,230.085 371.043,231.900 370.766 C 233.715 370.489,235.200 370.126,235.200 369.960 C 235.200 369.793,236.178 369.535,237.374 369.386 C 239.740 369.090,239.803 369.019,240.218 366.151 C 240.374 365.078,240.634 364.020,240.797 363.800 C 240.961 363.580,241.322 361.870,241.600 360.000 C 241.878 358.130,242.248 356.418,242.422 356.196 C 242.596 355.974,242.866 354.665,243.022 353.287 C 243.178 351.909,243.443 350.697,243.611 350.593 C 243.779 350.489,244.147 348.828,244.428 346.902 C 244.710 344.976,245.076 343.307,245.242 343.194 C 245.408 343.080,245.766 341.370,246.038 339.394 C 246.311 337.417,246.648 335.710,246.789 335.600 C 246.930 335.490,247.284 333.870,247.575 332.000 C 247.867 330.130,248.231 328.420,248.385 328.200 C 248.539 327.980,248.899 326.270,249.185 324.400 C 249.471 322.530,249.840 320.820,250.005 320.600 C 250.170 320.380,250.525 318.624,250.794 316.698 C 251.063 314.772,251.430 313.105,251.610 312.994 C 251.790 312.883,252.063 311.621,252.216 310.190 C 252.369 308.759,252.634 307.502,252.805 307.397 C 252.977 307.291,253.343 305.628,253.620 303.702 C 253.898 301.776,254.256 300.020,254.416 299.800 C 254.577 299.580,254.947 297.825,255.238 295.900 C 255.529 293.975,255.878 292.400,256.014 292.400 C 256.149 292.400,256.503 290.690,256.800 288.600 C 257.097 286.510,257.489 284.800,257.670 284.800 C 257.852 284.800,258.000 284.373,258.000 283.850 C 258.000 283.328,258.113 282.338,258.250 281.650 L 258.500 280.400 261.826 280.400 C 263.656 280.400,265.265 280.581,265.402 280.803 C 265.539 281.025,266.314 281.530,267.125 281.927 C 268.818 282.755,270.508 283.708,270.800 284.000 C 271.161 284.360,273.656 285.600,274.021 285.600 C 274.216 285.600,275.327 286.030,276.488 286.555 C 277.650 287.081,279.230 287.642,280.000 287.802 C 280.770 287.962,281.605 288.257,281.856 288.458 C 282.106 288.660,283.456 289.024,284.856 289.268 C 286.255 289.511,287.528 289.911,287.685 290.155 C 288.077 290.765,304.055 290.773,304.839 290.164 C 305.147 289.924,306.750 289.498,308.400 289.217 C 310.050 288.937,311.580 288.569,311.800 288.400 C 312.020 288.231,312.830 287.961,313.600 287.800 C 314.370 287.639,315.450 287.284,316.000 287.011 C 316.550 286.737,318.800 285.640,321.000 284.572 C 324.968 282.646,327.277 281.277,327.533 280.700 C 327.607 280.535,327.852 280.400,328.078 280.400 C 328.304 280.400,329.349 279.680,330.400 278.800 C 331.451 277.920,332.450 277.200,332.619 277.200 C 333.371 277.200,346.000 263.471,346.000 262.653 C 346.000 262.515,346.666 261.475,347.479 260.343 C 348.892 258.377,349.733 256.998,350.859 254.800 C 351.141 254.250,351.822 253.080,352.372 252.200 C 353.961 249.659,355.597 246.263,355.598 245.500 C 355.599 245.115,355.751 244.800,355.936 244.800 C 356.121 244.800,356.510 244.080,356.800 243.200 C 357.090 242.320,357.457 241.600,357.614 241.600 C 357.771 241.600,358.008 241.060,358.140 240.400 C 358.272 239.740,358.731 238.429,359.161 237.486 C 359.590 236.543,360.070 235.238,360.226 234.586 C 360.382 233.934,360.642 233.220,360.803 233.000 C 360.964 232.780,361.317 231.654,361.588 230.499 C 361.859 229.343,362.227 228.307,362.405 228.197 C 362.584 228.086,362.852 227.277,363.000 226.398 C 363.149 225.519,363.401 224.800,363.562 224.800 C 363.722 224.800,364.090 223.585,364.379 222.100 C 364.668 220.615,365.044 219.220,365.215 219.000 C 365.385 218.780,365.748 217.430,366.020 216.000 C 366.292 214.570,366.645 213.220,366.804 213.000 C 366.964 212.780,367.322 211.070,367.600 209.200 C 367.878 207.330,368.241 205.620,368.406 205.400 C 368.570 205.180,368.928 203.380,369.200 201.400 C 369.472 199.420,369.831 197.620,369.998 197.400 C 370.165 197.180,370.526 194.840,370.800 192.200 C 371.074 189.560,371.438 187.220,371.609 187.000 C 371.780 186.780,372.049 184.980,372.207 183.000 C 372.366 181.020,372.699 179.147,372.948 178.839 C 373.579 178.055,373.586 154.090,372.954 153.686 C 372.709 153.528,372.377 152.320,372.216 151.000 C 372.055 149.680,371.790 148.420,371.628 148.200 C 371.465 147.980,371.110 146.765,370.837 145.500 C 370.565 144.235,370.176 143.200,369.971 143.200 C 369.767 143.200,369.600 142.892,369.600 142.515 C 369.600 141.529,366.502 135.416,365.579 134.581 C 365.151 134.193,364.800 133.666,364.800 133.410 C 364.800 133.154,364.395 132.581,363.900 132.137 C 363.405 131.693,362.608 130.895,362.129 130.365 C 360.719 128.803,358.104 126.400,357.815 126.400 C 357.667 126.400,356.957 125.950,356.236 125.400 C 355.514 124.850,354.716 124.400,354.462 124.400 C 354.208 124.400,354.000 124.249,354.000 124.064 C 354.000 123.879,353.280 123.490,352.400 123.200 C 351.520 122.910,350.800 122.542,350.800 122.383 C 350.800 122.225,349.947 121.880,348.905 121.618 C 347.863 121.355,346.828 120.994,346.605 120.815 C 346.382 120.636,345.120 120.274,343.800 120.010 C 342.480 119.747,341.076 119.359,340.679 119.149 C 340.283 118.939,337.943 118.579,335.479 118.349 C 333.016 118.119,330.687 117.766,330.305 117.565 C 329.407 117.093,318.205 117.088,317.295 117.560 C 316.913 117.758,315.160 118.136,313.400 118.399 C 311.640 118.663,310.020 119.020,309.800 119.193 C 309.580 119.366,308.770 119.639,308.000 119.800 C 307.230 119.961,306.150 120.316,305.600 120.590 C 300.670 123.042,300.141 123.200,296.860 123.200 L 293.600 123.200 293.600 120.200 L 293.600 117.200 271.249 117.200 C 253.847 117.200,248.810 117.311,248.500 117.700 M323.800 129.851 C 324.240 130.099,325.230 130.602,326.000 130.968 C 329.111 132.446,330.800 133.750,330.800 134.675 C 330.800 134.977,331.070 135.329,331.400 135.455 C 331.730 135.582,332.000 135.864,332.000 136.081 C 332.000 136.299,332.335 136.954,332.744 137.538 C 333.154 138.122,333.707 139.590,333.973 140.800 C 334.239 142.010,334.670 143.433,334.929 143.963 C 335.574 145.282,335.600 175.224,334.957 176.039 C 334.713 176.347,334.283 178.850,334.000 181.600 C 333.717 184.350,333.355 186.780,333.196 187.000 C 333.036 187.220,332.672 189.200,332.387 191.400 C 332.102 193.600,331.739 195.580,331.580 195.800 C 331.422 196.020,331.053 197.775,330.762 199.700 C 330.471 201.625,330.122 203.200,329.986 203.200 C 329.851 203.200,329.497 204.910,329.200 207.000 C 328.903 209.090,328.542 210.800,328.399 210.800 C 328.256 210.800,327.911 212.285,327.634 214.100 C 327.357 215.915,326.989 217.580,326.817 217.800 C 326.646 218.020,326.278 219.460,326.000 221.000 C 325.722 222.540,325.362 223.980,325.199 224.200 C 325.037 224.420,324.775 225.320,324.616 226.200 C 324.458 227.080,324.190 227.980,324.022 228.200 C 323.853 228.420,323.501 229.720,323.239 231.089 C 322.978 232.458,322.503 234.078,322.185 234.689 C 321.866 235.300,321.603 236.250,321.600 236.800 C 321.597 237.350,321.343 238.283,321.035 238.873 C 320.727 239.463,320.348 240.543,320.192 241.273 C 320.037 242.003,319.570 243.355,319.155 244.278 C 318.740 245.201,318.400 246.066,318.400 246.200 C 318.400 246.792,316.034 251.720,312.111 259.300 C 311.798 259.905,311.375 260.400,311.171 260.400 C 310.967 260.400,310.800 260.639,310.800 260.931 C 310.800 261.652,304.642 267.600,303.895 267.600 C 303.567 267.600,303.092 267.848,302.841 268.150 C 302.590 268.453,301.533 268.916,300.492 269.180 C 299.452 269.445,298.287 269.827,297.905 270.030 C 297.039 270.492,278.300 270.524,277.780 270.065 C 277.571 269.880,276.171 269.513,274.670 269.249 C 273.168 268.985,271.638 268.620,271.270 268.439 C 267.687 266.673,265.974 265.792,264.701 265.061 L 263.202 264.200 263.201 260.580 C 263.200 258.589,263.359 256.789,263.553 256.580 C 263.747 256.371,264.123 254.670,264.389 252.800 C 264.654 250.930,265.012 249.220,265.185 249.000 C 265.358 248.780,265.718 247.070,265.985 245.200 C 266.252 243.330,266.609 241.620,266.779 241.400 C 266.948 241.180,267.310 239.560,267.584 237.800 C 267.858 236.040,268.214 234.420,268.376 234.200 C 268.537 233.980,268.894 232.270,269.170 230.400 C 269.445 228.530,269.807 226.820,269.973 226.600 C 270.139 226.380,270.502 224.624,270.780 222.698 C 271.057 220.772,271.423 219.109,271.595 219.003 C 271.766 218.898,272.031 217.641,272.184 216.210 C 272.337 214.779,272.610 213.518,272.790 213.406 C 272.969 213.295,273.343 211.628,273.620 209.702 C 273.898 207.776,274.261 206.020,274.427 205.800 C 274.593 205.580,274.955 203.870,275.230 202.000 C 275.506 200.130,275.866 198.420,276.030 198.200 C 276.195 197.980,276.559 196.270,276.839 194.400 C 277.119 192.530,277.463 190.910,277.604 190.800 C 277.744 190.690,278.102 188.980,278.400 187.000 C 278.698 185.020,279.055 183.310,279.194 183.200 C 279.332 183.090,279.684 181.470,279.975 179.600 C 280.267 177.730,280.631 176.020,280.785 175.800 C 280.939 175.580,281.299 173.870,281.585 172.000 C 281.871 170.130,282.241 168.420,282.408 168.200 C 282.574 167.980,282.841 166.810,283.000 165.600 C 283.159 164.390,283.426 163.220,283.592 163.000 C 283.758 162.780,284.124 161.070,284.406 159.200 C 284.687 157.330,285.037 155.710,285.184 155.600 C 285.331 155.490,285.681 153.870,285.961 152.000 C 286.241 150.130,286.605 148.420,286.770 148.200 C 286.934 147.980,287.294 146.270,287.570 144.400 C 287.845 142.530,288.210 140.820,288.381 140.600 C 288.552 140.380,288.789 139.432,288.909 138.494 C 289.122 136.815,290.363 135.244,291.500 135.213 C 291.775 135.206,292.000 135.039,292.000 134.842 C 292.000 134.469,297.573 131.660,300.000 130.810 C 300.770 130.540,301.760 130.167,302.200 129.980 C 303.770 129.315,304.713 129.262,313.800 129.331 C 319.764 129.376,323.281 129.559,323.800 129.851 " stroke="none" fill="#000000" fill-rule="evenodd"></path><path id="logo-outer" d="M149.200 20.900 C 146.230 21.109,143.710 21.416,143.600 21.582 C 143.490 21.749,141.783 22.013,139.806 22.171 C 137.829 22.328,136.119 22.595,136.006 22.764 C 135.893 22.933,133.865 23.307,131.500 23.595 C 129.135 23.883,127.200 24.250,127.200 24.411 C 127.200 24.573,125.760 24.939,124.000 25.224 C 122.240 25.510,120.800 25.868,120.800 26.019 C 120.800 26.170,119.450 26.533,117.800 26.826 C 116.150 27.119,114.800 27.479,114.800 27.625 C 114.800 27.771,113.720 28.120,112.400 28.400 C 111.080 28.680,110.000 29.052,110.000 29.226 C 110.000 29.400,109.010 29.764,107.800 30.035 C 106.590 30.306,105.600 30.676,105.600 30.858 C 105.600 31.040,104.790 31.392,103.800 31.642 C 102.810 31.891,102.000 32.239,102.000 32.416 C 102.000 32.592,101.460 32.855,100.800 33.000 C 100.140 33.145,99.600 33.422,99.600 33.616 C 99.600 33.810,98.880 34.163,98.000 34.400 C 97.120 34.637,96.400 34.997,96.400 35.199 C 96.400 35.402,95.680 35.784,94.800 36.047 C 93.920 36.311,93.200 36.642,93.200 36.783 C 93.200 36.924,92.570 37.267,91.800 37.546 C 91.030 37.824,90.400 38.203,90.400 38.387 C 90.400 38.571,89.860 38.910,89.200 39.140 C 88.540 39.370,88.000 39.714,88.000 39.905 C 88.000 40.095,87.377 40.495,86.617 40.793 C 85.856 41.092,85.141 41.576,85.029 41.868 C 84.917 42.161,84.549 42.400,84.213 42.400 C 83.876 42.400,83.600 42.584,83.600 42.809 C 83.600 43.033,83.105 43.436,82.500 43.702 C 81.895 43.969,81.165 44.505,80.877 44.894 C 80.590 45.282,80.179 45.600,79.964 45.600 C 79.749 45.600,79.045 46.140,78.400 46.800 C 77.755 47.460,77.107 48.000,76.960 48.000 C 76.451 48.000,37.200 87.488,37.200 88.000 C 37.200 88.282,36.660 89.029,36.000 89.660 C 35.340 90.291,34.800 90.948,34.800 91.121 C 34.800 91.294,34.087 92.237,33.216 93.218 C 30.788 95.950,30.642 96.141,30.001 97.412 C 29.671 98.065,29.176 98.744,28.901 98.920 C 28.625 99.096,28.400 99.492,28.400 99.800 C 28.400 100.108,28.164 100.504,27.877 100.680 C 27.589 100.856,27.117 101.585,26.828 102.300 C 26.539 103.015,26.174 103.600,26.015 103.600 C 25.857 103.600,25.490 104.320,25.200 105.200 C 24.910 106.080,24.557 106.800,24.416 106.800 C 24.276 106.800,23.919 107.475,23.624 108.300 C 23.329 109.125,22.978 109.890,22.844 110.000 C 22.376 110.384,21.235 113.013,20.804 114.700 C 20.565 115.635,20.221 116.400,20.039 116.400 C 19.858 116.400,19.480 117.480,19.200 118.800 C 18.920 120.120,18.568 121.200,18.417 121.200 C 18.267 121.200,17.906 122.685,17.614 124.500 C 17.322 126.315,16.933 127.899,16.749 128.019 C 16.565 128.140,16.195 130.435,15.927 133.119 C 15.658 135.804,15.295 138.000,15.119 138.000 C 14.944 138.000,14.800 143.850,14.800 151.000 C 14.800 158.150,14.947 164.000,15.127 164.000 C 15.307 164.000,15.663 165.562,15.919 167.471 C 16.174 169.380,16.530 171.045,16.708 171.171 C 16.887 171.297,17.280 172.165,17.581 173.100 C 17.882 174.035,18.265 174.800,18.432 174.800 C 18.600 174.800,18.852 175.325,18.993 175.966 C 19.133 176.607,19.688 177.642,20.224 178.266 C 20.760 178.890,21.199 179.625,21.200 179.900 C 21.200 180.175,21.342 180.400,21.515 180.400 C 21.688 180.400,22.723 181.206,23.815 182.190 C 26.861 184.937,26.942 184.997,28.417 185.594 C 29.178 185.903,29.890 186.255,30.000 186.377 C 30.553 186.992,32.995 187.985,35.071 188.440 C 36.352 188.721,37.497 189.090,37.615 189.261 C 37.941 189.732,44.506 190.393,48.900 190.397 C 51.231 190.399,52.800 190.561,52.800 190.800 C 52.800 191.040,54.420 191.200,56.861 191.200 L 60.922 191.200 63.863 188.100 C 65.481 186.395,68.241 183.470,69.997 181.600 C 71.753 179.730,74.992 176.323,77.195 174.030 C 79.398 171.736,81.200 169.716,81.200 169.541 C 81.200 169.367,82.820 167.622,84.800 165.664 C 86.780 163.707,88.400 161.976,88.400 161.818 C 88.400 161.392,92.773 157.200,93.218 157.200 C 93.770 157.200,93.692 149.554,93.117 147.406 C 92.851 146.413,92.499 145.600,92.333 145.600 C 92.168 145.600,91.809 144.835,91.536 143.900 C 91.262 142.965,90.883 142.092,90.691 141.959 C 90.500 141.826,90.137 139.981,89.885 137.859 C 89.633 135.737,89.285 134.000,89.113 134.000 C 88.941 134.000,88.800 130.670,88.800 126.600 C 88.800 122.530,88.942 119.200,89.115 119.200 C 89.289 119.200,89.660 116.549,89.940 113.308 C 90.220 110.068,90.598 107.323,90.780 107.208 C 90.962 107.094,91.319 105.650,91.573 104.000 C 91.827 102.350,92.207 100.940,92.417 100.867 C 92.628 100.793,92.800 100.376,92.800 99.940 C 92.800 98.352,93.509 97.715,95.585 97.440 C 96.693 97.293,97.600 97.012,97.600 96.815 C 97.600 96.618,98.635 96.330,99.900 96.175 C 101.165 96.019,102.299 95.739,102.420 95.552 C 102.541 95.365,105.286 94.993,108.520 94.725 C 111.754 94.458,114.400 94.095,114.400 93.919 C 114.400 93.744,115.390 93.600,116.600 93.600 C 118.289 93.600,118.800 93.739,118.800 94.200 C 118.800 94.530,118.652 94.800,118.472 94.800 C 118.292 94.800,117.923 96.460,117.653 98.488 C 117.383 100.517,117.020 102.272,116.848 102.388 C 116.675 102.505,116.311 104.217,116.038 106.194 C 115.766 108.170,115.406 109.880,115.238 109.994 C 115.071 110.107,114.711 111.817,114.438 113.794 C 114.166 115.770,113.798 117.480,113.620 117.594 C 113.442 117.707,113.167 118.925,113.009 120.301 C 112.851 121.676,112.578 122.890,112.402 122.999 C 112.227 123.107,111.866 124.727,111.600 126.598 C 111.335 128.469,110.988 130.000,110.831 130.000 C 110.673 130.000,110.323 131.660,110.053 133.688 C 109.783 135.717,109.420 137.472,109.246 137.588 C 109.072 137.705,108.694 139.465,108.407 141.500 C 108.119 143.535,107.762 145.200,107.613 145.200 C 107.464 145.200,107.108 146.910,106.821 149.000 C 106.534 151.090,106.174 152.800,106.021 152.800 C 105.868 152.800,105.508 154.510,105.221 156.600 C 104.934 158.690,104.565 160.400,104.401 160.400 C 104.237 160.400,103.877 162.110,103.600 164.200 C 103.323 166.290,102.955 168.000,102.780 168.000 C 102.606 168.000,102.338 169.170,102.185 170.600 C 102.032 172.030,101.774 173.200,101.611 173.200 C 101.449 173.200,101.081 174.865,100.793 176.900 C 100.506 178.935,100.132 180.693,99.963 180.806 C 99.794 180.920,99.434 182.630,99.162 184.606 C 98.889 186.583,98.529 188.293,98.362 188.406 C 98.194 188.520,97.834 190.230,97.562 192.206 C 97.289 194.183,96.929 195.893,96.762 196.006 C 96.594 196.120,96.234 197.830,95.962 199.806 C 95.689 201.783,95.325 203.495,95.152 203.612 C 94.980 203.728,94.617 205.483,94.347 207.512 C 94.077 209.540,93.717 211.200,93.548 211.200 C 93.378 211.200,93.118 212.280,92.968 213.600 C 92.819 214.920,92.571 216.000,92.418 216.000 C 92.266 216.000,91.897 217.710,91.600 219.800 C 91.303 221.890,90.943 223.600,90.800 223.600 C 90.657 223.600,90.297 225.310,90.000 227.400 C 89.703 229.490,89.334 231.200,89.180 231.200 C 89.027 231.200,88.666 232.910,88.379 235.000 C 88.092 237.090,87.732 238.800,87.579 238.800 C 87.426 238.800,87.066 240.510,86.779 242.600 C 86.492 244.690,86.136 246.400,85.987 246.400 C 85.838 246.400,85.484 248.020,85.200 250.000 C 84.916 251.980,84.562 253.600,84.413 253.600 C 84.264 253.600,83.908 255.310,83.621 257.400 C 83.334 259.490,82.956 261.200,82.781 261.200 C 82.607 261.200,82.338 262.370,82.185 263.800 C 82.032 265.230,81.774 266.400,81.611 266.400 C 81.449 266.400,81.084 268.020,80.800 270.000 C 80.516 271.980,80.162 273.600,80.013 273.600 C 79.864 273.600,79.508 275.310,79.221 277.400 C 78.934 279.490,78.574 281.200,78.421 281.200 C 78.268 281.200,77.908 282.910,77.621 285.000 C 77.334 287.090,76.973 288.800,76.820 288.800 C 76.666 288.800,76.297 290.510,76.000 292.600 C 75.703 294.690,75.343 296.400,75.200 296.400 C 75.057 296.400,74.697 298.110,74.400 300.200 C 74.103 302.290,73.734 304.000,73.582 304.000 C 73.429 304.000,73.181 305.080,73.032 306.400 C 72.882 307.720,72.622 308.800,72.452 308.800 C 72.283 308.800,71.923 310.460,71.653 312.488 C 71.383 314.517,71.020 316.272,70.848 316.388 C 70.675 316.505,70.311 318.220,70.040 320.200 C 69.769 322.180,69.379 323.860,69.174 323.933 C 68.968 324.007,68.800 325.852,68.800 328.033 L 68.800 332.000 99.100 331.997 L 129.400 331.994 132.600 328.597 C 134.360 326.729,138.185 322.757,141.100 319.770 C 144.015 316.784,146.400 314.234,146.400 314.104 C 146.400 313.974,147.885 312.385,149.700 310.574 C 151.515 308.763,153.292 306.947,153.649 306.540 C 154.006 306.133,154.951 305.221,155.749 304.512 C 156.547 303.804,157.200 303.066,157.200 302.872 C 157.200 302.678,158.269 301.439,159.576 300.120 L 161.953 297.721 162.443 294.161 C 162.713 292.202,163.075 290.505,163.248 290.388 C 163.420 290.272,163.783 288.517,164.053 286.488 C 164.323 284.460,164.683 282.800,164.852 282.800 C 165.022 282.800,165.282 281.720,165.432 280.400 C 165.581 279.080,165.829 278.000,165.982 278.000 C 166.134 278.000,166.503 276.290,166.800 274.200 C 167.097 272.110,167.466 270.400,167.620 270.400 C 167.773 270.400,168.134 268.690,168.421 266.600 C 168.708 264.510,169.068 262.800,169.221 262.800 C 169.374 262.800,169.734 261.090,170.021 259.000 C 170.308 256.910,170.665 255.200,170.814 255.200 C 170.964 255.200,171.308 253.580,171.578 251.600 C 171.849 249.620,172.202 248.000,172.363 248.000 C 172.524 248.000,172.877 246.340,173.147 244.312 C 173.417 242.283,173.788 240.528,173.971 240.412 C 174.154 240.295,174.437 239.030,174.600 237.600 C 174.763 236.170,175.042 234.907,175.220 234.794 C 175.398 234.680,175.766 232.970,176.038 230.994 C 176.311 229.017,176.671 227.307,176.838 227.194 C 177.006 227.080,177.366 225.370,177.638 223.394 C 177.911 221.417,178.271 219.707,178.438 219.594 C 178.606 219.480,178.966 217.770,179.238 215.794 C 179.511 213.817,179.875 212.105,180.048 211.988 C 180.220 211.872,180.583 210.117,180.853 208.088 C 181.123 206.060,181.476 204.400,181.637 204.400 C 181.798 204.400,182.151 202.780,182.422 200.800 C 182.692 198.820,183.045 197.200,183.205 197.200 C 183.366 197.200,183.723 195.490,184.000 193.400 C 184.277 191.310,184.645 189.600,184.820 189.600 C 184.994 189.600,185.262 188.430,185.415 187.000 C 185.568 185.570,185.826 184.400,185.989 184.400 C 186.151 184.400,186.516 182.780,186.800 180.800 C 187.084 178.820,187.438 177.200,187.587 177.200 C 187.736 177.200,188.092 175.490,188.379 173.400 C 188.666 171.310,189.026 169.600,189.179 169.600 C 189.332 169.600,189.692 167.890,189.979 165.800 C 190.266 163.710,190.627 162.000,190.780 162.000 C 190.934 162.000,191.303 160.290,191.600 158.200 C 191.897 156.110,192.257 154.400,192.400 154.400 C 192.543 154.400,192.903 152.690,193.200 150.600 C 193.497 148.510,193.866 146.800,194.018 146.800 C 194.171 146.800,194.419 145.720,194.568 144.400 C 194.718 143.080,194.978 142.000,195.148 142.000 C 195.317 142.000,195.677 140.340,195.947 138.312 C 196.217 136.283,196.580 134.528,196.752 134.412 C 196.925 134.295,197.289 132.583,197.562 130.606 C 197.834 128.630,198.194 126.920,198.362 126.806 C 198.529 126.693,198.889 124.983,199.162 123.006 C 199.434 121.030,199.794 119.320,199.962 119.206 C 200.129 119.093,200.489 117.383,200.762 115.406 C 201.034 113.430,201.399 111.720,201.574 111.606 C 201.749 111.493,202.023 110.337,202.183 109.037 C 202.342 107.738,202.566 106.433,202.679 106.137 C 202.904 105.551,205.200 105.381,205.200 105.950 C 205.200 106.143,207.585 106.533,210.500 106.817 C 213.415 107.101,215.890 107.457,216.000 107.607 C 217.120 109.137,253.300 109.163,255.400 107.635 C 255.620 107.475,256.565 107.103,257.500 106.808 C 258.435 106.513,259.200 106.121,259.200 105.936 C 259.200 105.751,259.476 105.600,259.813 105.600 C 260.149 105.600,260.529 105.330,260.655 105.000 C 260.782 104.670,261.135 104.400,261.439 104.400 C 261.744 104.400,262.218 104.040,262.493 103.600 C 262.768 103.160,263.194 102.800,263.440 102.800 C 264.009 102.800,270.000 97.022,270.000 96.473 C 270.000 96.248,271.086 95.014,272.413 93.732 C 277.931 88.400,279.200 87.095,279.200 86.754 C 279.200 86.557,281.270 84.347,283.800 81.842 C 286.330 79.338,288.400 77.150,288.400 76.980 C 288.400 76.810,291.055 74.043,294.300 70.831 C 297.545 67.619,300.470 64.453,300.799 63.796 C 301.129 63.138,301.489 62.510,301.600 62.400 C 301.711 62.290,302.071 61.660,302.401 61.000 C 302.730 60.340,303.218 59.569,303.484 59.287 C 303.751 59.005,304.086 58.150,304.229 57.387 C 304.372 56.624,304.641 56.000,304.826 56.000 C 305.012 56.000,305.282 55.370,305.426 54.600 C 305.571 53.830,305.824 53.200,305.990 53.200 C 306.155 53.200,306.526 52.075,306.813 50.700 C 307.100 49.325,307.481 48.101,307.660 47.981 C 307.839 47.860,308.203 46.330,308.469 44.581 C 308.735 42.831,309.080 41.310,309.235 41.200 C 309.390 41.090,309.752 39.560,310.040 37.800 C 310.329 36.040,310.675 34.510,310.809 34.400 C 310.944 34.290,311.296 32.895,311.591 31.300 C 311.887 29.705,312.279 28.400,312.464 28.400 C 312.649 28.400,312.800 26.671,312.800 24.559 L 312.800 20.718 307.733 20.859 C 304.136 20.959,302.618 21.145,302.500 21.501 C 302.408 21.776,301.628 22.114,300.766 22.252 C 299.905 22.390,299.200 22.641,299.200 22.810 C 299.200 22.979,297.625 23.347,295.700 23.629 C 293.775 23.910,292.110 24.265,292.000 24.416 C 291.764 24.741,283.840 25.603,281.100 25.601 C 280.055 25.600,279.200 25.780,279.200 26.000 C 279.200 26.259,274.533 26.400,266.000 26.400 C 257.467 26.400,252.800 26.259,252.800 26.000 C 252.800 25.769,251.572 25.603,249.900 25.607 C 245.164 25.619,228.800 24.678,228.800 24.394 C 228.800 24.250,224.840 23.892,220.000 23.600 C 215.160 23.308,211.200 22.940,211.200 22.783 C 211.200 22.625,208.770 22.366,205.800 22.207 C 202.830 22.048,200.400 21.786,200.400 21.626 C 200.400 20.571,161.662 20.022,149.200 20.900 M185.749 27.625 C 189.517 27.859,192.960 28.208,193.400 28.401 C 193.840 28.594,197.620 28.956,201.800 29.206 C 205.980 29.456,209.760 29.814,210.200 30.001 C 210.640 30.189,214.780 30.551,219.400 30.805 C 224.020 31.060,228.160 31.421,228.600 31.608 C 232.259 33.162,292.213 33.156,295.800 31.602 C 296.240 31.411,297.500 31.143,298.600 31.007 C 299.700 30.871,301.209 30.654,301.954 30.525 L 303.307 30.291 303.016 32.245 C 302.856 33.320,302.582 34.380,302.407 34.600 C 302.233 34.820,301.961 35.990,301.804 37.200 C 301.647 38.410,301.282 39.940,300.994 40.600 C 300.706 41.260,300.250 42.771,299.981 43.958 C 299.712 45.145,299.248 46.585,298.948 47.158 C 298.649 47.731,298.293 48.785,298.158 49.500 C 298.022 50.215,297.787 50.800,297.636 50.800 C 297.485 50.800,297.121 51.463,296.828 52.273 C 296.535 53.083,296.137 53.938,295.942 54.173 C 295.224 55.040,293.600 57.645,293.600 57.928 C 293.600 58.412,288.101 63.660,286.909 64.314 C 283.775 66.033,282.974 66.400,282.349 66.400 C 281.974 66.400,281.607 66.570,281.533 66.777 C 281.017 68.239,259.189 68.254,255.800 66.795 C 255.360 66.605,252.840 66.242,250.200 65.988 C 247.560 65.734,245.220 65.389,245.000 65.222 C 244.780 65.055,242.710 64.696,240.400 64.424 C 238.090 64.153,236.020 63.786,235.800 63.610 C 235.580 63.433,234.050 63.159,232.400 63.000 C 230.750 62.841,229.220 62.570,229.000 62.398 C 228.780 62.225,226.901 61.866,224.825 61.598 C 222.748 61.331,220.768 60.968,220.425 60.791 C 219.279 60.200,213.451 59.595,208.938 59.597 L 204.475 59.600 204.193 61.700 C 204.037 62.855,203.775 63.980,203.608 64.200 C 203.442 64.420,203.181 65.586,203.028 66.790 C 202.874 67.995,202.604 69.165,202.427 69.390 C 202.251 69.616,201.876 71.330,201.594 73.200 C 201.313 75.070,200.963 76.690,200.816 76.800 C 200.669 76.910,200.319 78.530,200.039 80.400 C 199.759 82.270,199.395 83.980,199.230 84.200 C 199.066 84.420,198.706 86.130,198.430 88.000 C 198.155 89.870,197.795 91.580,197.630 91.800 C 197.466 92.020,197.106 93.730,196.830 95.600 C 196.555 97.470,196.188 99.180,196.015 99.400 C 195.843 99.620,195.482 101.330,195.215 103.200 C 194.948 105.070,194.586 106.780,194.412 107.000 C 194.237 107.220,193.875 108.976,193.606 110.902 C 193.337 112.828,192.970 114.495,192.790 114.606 C 192.610 114.717,192.337 115.979,192.184 117.410 C 192.031 118.841,191.761 120.100,191.585 120.209 C 191.409 120.318,191.036 122.025,190.756 124.004 C 190.476 125.982,190.120 127.600,189.965 127.600 C 189.810 127.600,189.463 129.175,189.194 131.100 C 188.925 133.025,188.563 134.780,188.388 135.000 C 188.214 135.220,187.852 136.930,187.585 138.800 C 187.318 140.670,186.958 142.380,186.785 142.600 C 186.612 142.820,186.252 144.530,185.985 146.400 C 185.718 148.270,185.358 149.980,185.185 150.200 C 185.012 150.420,184.652 152.130,184.385 154.000 C 184.118 155.870,183.747 157.592,183.562 157.826 C 183.376 158.061,183.104 159.276,182.957 160.526 C 182.810 161.777,182.572 162.800,182.429 162.800 C 182.285 162.800,181.929 164.375,181.638 166.300 C 181.347 168.225,180.979 169.980,180.822 170.200 C 180.664 170.420,180.301 172.130,180.015 174.000 C 179.729 175.870,179.362 177.580,179.200 177.800 C 179.038 178.020,178.678 179.730,178.400 181.600 C 178.122 183.470,177.762 185.180,177.600 185.400 C 177.438 185.620,177.078 187.330,176.800 189.200 C 176.522 191.070,176.162 192.780,176.000 193.000 C 175.838 193.220,175.471 194.930,175.185 196.800 C 174.899 198.670,174.536 200.380,174.378 200.600 C 174.221 200.820,173.853 202.575,173.562 204.500 C 173.271 206.425,172.915 208.000,172.771 208.000 C 172.628 208.000,172.390 209.023,172.243 210.274 C 172.096 211.524,171.824 212.739,171.638 212.974 C 171.453 213.208,171.082 214.930,170.815 216.800 C 170.548 218.670,170.188 220.380,170.015 220.600 C 169.842 220.820,169.482 222.530,169.215 224.400 C 168.948 226.270,168.586 227.980,168.412 228.200 C 168.237 228.420,167.875 230.175,167.606 232.100 C 167.337 234.025,166.988 235.600,166.831 235.600 C 166.673 235.600,166.323 237.260,166.053 239.288 C 165.783 241.317,165.420 243.072,165.246 243.188 C 165.072 243.305,164.694 245.110,164.407 247.200 C 164.119 249.290,163.747 251.180,163.580 251.400 C 163.412 251.620,163.145 252.700,162.987 253.800 C 162.829 254.900,162.566 255.980,162.403 256.200 C 162.239 256.420,161.878 258.130,161.600 260.000 C 161.322 261.870,160.962 263.580,160.800 263.800 C 160.638 264.020,160.271 265.730,159.985 267.600 C 159.699 269.470,159.339 271.180,159.185 271.400 C 159.031 271.620,158.671 273.330,158.385 275.200 C 158.099 277.070,157.736 278.780,157.578 279.000 C 157.421 279.220,157.053 280.975,156.762 282.900 C 156.471 284.825,156.113 286.400,155.968 286.400 C 155.822 286.400,155.581 287.480,155.432 288.800 L 155.160 291.200 132.780 291.200 C 111.720 291.200,110.402 291.159,110.432 290.500 C 110.486 289.296,111.388 284.620,111.647 284.200 C 111.783 283.980,112.133 282.270,112.424 280.400 C 112.716 278.530,113.065 276.910,113.200 276.800 C 113.335 276.690,113.684 275.070,113.975 273.200 C 114.267 271.330,114.638 269.620,114.799 269.400 C 114.961 269.180,115.219 268.014,115.372 266.810 C 115.526 265.605,115.797 264.435,115.975 264.210 C 116.153 263.984,116.518 262.270,116.785 260.400 C 117.052 258.530,117.414 256.820,117.588 256.600 C 117.763 256.380,118.125 254.625,118.394 252.700 C 118.663 250.775,119.008 249.200,119.161 249.200 C 119.314 249.200,119.667 247.630,119.944 245.712 C 120.221 243.793,120.588 242.038,120.759 241.812 C 120.929 241.585,121.294 239.870,121.570 238.000 C 121.845 236.130,122.204 234.420,122.367 234.200 C 122.531 233.980,122.899 232.270,123.185 230.400 C 123.471 228.530,123.838 226.820,123.999 226.600 C 124.161 226.380,124.419 225.214,124.572 224.010 C 124.726 222.805,124.996 221.635,125.173 221.410 C 125.349 221.184,125.724 219.470,126.006 217.600 C 126.287 215.730,126.637 214.110,126.784 214.000 C 126.931 213.890,127.281 212.270,127.561 210.400 C 127.841 208.530,128.205 206.820,128.370 206.600 C 128.534 206.380,128.894 204.670,129.170 202.800 C 129.445 200.930,129.805 199.220,129.970 199.000 C 130.134 198.780,130.494 197.070,130.770 195.200 C 131.045 193.330,131.412 191.620,131.585 191.400 C 131.757 191.180,132.118 189.470,132.385 187.600 C 132.652 185.730,133.014 184.020,133.188 183.800 C 133.363 183.580,133.725 181.824,133.994 179.898 C 134.263 177.972,134.630 176.305,134.810 176.194 C 134.990 176.083,135.263 174.821,135.416 173.390 C 135.569 171.959,135.839 170.700,136.015 170.591 C 136.191 170.482,136.564 168.775,136.844 166.796 C 137.124 164.818,137.480 163.200,137.635 163.200 C 137.790 163.200,138.137 161.625,138.406 159.700 C 138.675 157.775,139.037 156.020,139.212 155.800 C 139.386 155.580,139.748 153.870,140.015 152.000 C 140.282 150.130,140.642 148.420,140.815 148.200 C 140.988 147.980,141.348 146.270,141.615 144.400 C 141.882 142.530,142.242 140.820,142.415 140.600 C 142.588 140.380,142.948 138.670,143.215 136.800 C 143.482 134.930,143.842 133.220,144.013 133.000 C 144.185 132.780,144.455 131.700,144.613 130.600 C 144.771 129.500,145.028 128.420,145.183 128.200 C 145.338 127.980,145.699 126.270,145.985 124.400 C 146.271 122.530,146.631 120.820,146.785 120.600 C 146.939 120.380,147.299 118.670,147.585 116.800 C 147.871 114.930,148.238 113.220,148.400 113.000 C 148.562 112.780,148.922 111.070,149.200 109.200 C 149.478 107.330,149.838 105.620,150.000 105.400 C 150.162 105.180,150.522 103.470,150.800 101.600 C 151.078 99.730,151.446 98.020,151.618 97.800 C 151.789 97.580,152.155 95.870,152.430 94.000 C 152.706 92.130,153.071 90.415,153.241 90.188 C 153.412 89.962,153.779 88.207,154.056 86.288 C 154.333 84.370,154.683 82.800,154.834 82.800 C 154.985 82.800,155.236 81.765,155.392 80.500 C 155.549 79.235,155.816 78.020,155.986 77.800 C 156.155 77.580,156.522 75.870,156.800 74.000 C 157.078 72.130,157.438 70.420,157.600 70.200 C 157.762 69.980,158.129 68.270,158.415 66.400 C 158.701 64.530,159.107 62.776,159.316 62.501 C 159.525 62.227,159.790 60.022,159.905 57.601 L 160.113 53.200 151.264 53.200 C 142.301 53.200,132.862 53.766,131.400 54.391 C 130.960 54.580,129.160 54.947,127.400 55.208 C 125.640 55.469,124.020 55.822,123.800 55.994 C 123.580 56.166,122.410 56.510,121.200 56.759 C 119.990 57.007,118.415 57.478,117.700 57.805 C 116.985 58.132,115.815 58.644,115.100 58.942 C 111.520 60.435,106.681 63.070,106.467 63.643 C 106.393 63.839,106.059 64.000,105.725 64.000 C 104.995 64.000,94.000 74.897,94.000 75.620 C 94.000 75.898,93.527 76.745,92.948 77.504 C 91.818 78.985,88.800 84.852,88.800 85.567 C 88.800 85.805,88.640 86.000,88.445 86.000 C 88.249 86.000,87.978 86.585,87.842 87.300 C 87.707 88.015,87.341 89.088,87.029 89.685 C 86.718 90.282,86.249 91.812,85.988 93.085 C 85.727 94.358,85.376 95.580,85.209 95.800 C 85.042 96.020,84.685 97.730,84.416 99.600 C 84.147 101.470,83.773 103.297,83.585 103.661 C 83.396 104.024,83.116 106.145,82.963 108.373 C 82.810 110.601,82.530 112.520,82.342 112.636 C 81.895 112.912,81.895 140.288,82.341 140.564 C 82.529 140.680,82.803 142.072,82.951 143.658 C 83.098 145.243,83.370 146.734,83.554 146.970 C 84.673 148.403,84.451 149.645,83.113 149.438 C 82.391 149.327,80.919 149.122,79.841 148.984 C 78.764 148.846,77.594 148.580,77.241 148.393 C 76.889 148.206,75.700 147.852,74.600 147.606 C 72.186 147.066,66.804 144.473,66.077 143.500 C 65.790 143.115,65.332 142.800,65.061 142.800 C 64.500 142.800,61.200 139.561,61.200 139.011 C 61.200 138.813,60.849 138.278,60.420 137.822 C 59.290 136.618,56.884 131.853,56.574 130.204 C 56.429 129.427,56.164 128.701,55.986 128.591 C 55.808 128.481,55.537 127.221,55.384 125.790 C 55.231 124.359,54.947 123.091,54.753 122.971 C 54.299 122.690,54.288 111.316,54.742 111.036 C 54.930 110.920,55.209 109.159,55.363 107.123 C 55.516 105.087,55.776 103.326,55.939 103.211 C 56.102 103.095,56.470 101.560,56.757 99.800 C 57.044 98.040,57.414 96.420,57.580 96.200 C 57.745 95.980,58.112 94.675,58.395 93.300 C 58.678 91.925,59.045 90.800,59.210 90.800 C 59.376 90.800,59.622 90.215,59.758 89.500 C 59.893 88.785,60.234 87.750,60.515 87.200 C 60.796 86.650,61.274 85.435,61.577 84.500 C 61.880 83.565,62.279 82.800,62.464 82.800 C 62.649 82.800,62.800 82.601,62.800 82.358 C 62.800 81.694,65.443 76.612,67.147 73.998 C 67.506 73.447,67.980 72.701,68.200 72.339 C 69.598 70.041,71.385 67.600,71.667 67.600 C 71.850 67.600,72.000 67.319,72.000 66.975 C 72.000 66.145,85.721 52.400,86.549 52.400 C 86.903 52.400,87.418 52.040,87.693 51.600 C 87.968 51.160,88.344 50.800,88.529 50.800 C 88.714 50.800,89.634 50.170,90.574 49.400 C 91.514 48.630,92.444 47.995,92.641 47.989 C 92.839 47.983,93.707 47.443,94.571 46.789 C 95.435 46.135,96.380 45.600,96.671 45.600 C 96.962 45.600,97.200 45.445,97.200 45.255 C 97.200 45.065,98.325 44.345,99.700 43.656 C 101.075 42.966,102.650 42.149,103.200 41.840 C 105.365 40.626,110.259 38.406,111.300 38.167 C 111.905 38.027,112.400 37.773,112.400 37.601 C 112.400 37.429,113.075 37.166,113.900 37.015 C 114.725 36.864,115.779 36.497,116.242 36.200 C 116.704 35.902,117.741 35.535,118.546 35.384 C 119.351 35.233,120.100 34.962,120.211 34.782 C 120.323 34.601,121.446 34.242,122.707 33.984 C 123.968 33.725,125.180 33.377,125.400 33.209 C 125.620 33.042,127.060 32.678,128.600 32.400 C 130.140 32.122,131.580 31.754,131.800 31.583 C 132.020 31.411,133.730 31.052,135.600 30.785 C 137.470 30.518,139.180 30.164,139.400 29.999 C 139.620 29.834,141.960 29.481,144.600 29.213 C 147.240 28.946,149.760 28.569,150.200 28.377 C 152.498 27.369,174.226 26.910,185.749 27.625 M240.200 111.860 C 239.540 112.631,237.650 114.603,236.000 116.240 C 234.350 117.878,232.235 119.977,231.300 120.904 C 230.365 121.831,229.600 122.730,229.600 122.901 C 229.600 123.073,225.100 127.693,219.600 133.168 C 214.100 138.644,209.600 143.306,209.600 143.528 C 209.600 143.751,209.408 143.997,209.173 144.076 C 208.937 144.154,208.550 145.609,208.311 147.309 C 208.073 149.009,207.748 150.400,207.590 150.400 C 207.432 150.400,207.077 152.110,206.800 154.200 C 206.523 156.290,206.163 158.000,205.999 158.000 C 205.835 158.000,205.466 159.710,205.179 161.800 C 204.892 163.890,204.541 165.600,204.399 165.600 C 204.257 165.600,203.897 167.310,203.600 169.400 C 203.303 171.490,202.934 173.200,202.782 173.200 C 202.629 173.200,202.381 174.280,202.232 175.600 C 202.082 176.920,201.816 178.000,201.639 178.000 C 201.463 178.000,201.085 179.890,200.800 182.200 C 200.515 184.510,200.144 186.400,199.976 186.400 C 199.808 186.400,199.449 188.020,199.178 190.000 C 198.908 191.980,198.555 193.600,198.395 193.600 C 198.234 193.600,197.877 195.310,197.600 197.400 C 197.323 199.490,196.972 201.200,196.820 201.200 C 196.667 201.200,196.308 202.910,196.021 205.000 C 195.734 207.090,195.373 208.800,195.220 208.800 C 195.066 208.800,194.697 210.510,194.400 212.600 C 194.103 214.690,193.732 216.400,193.576 216.400 C 193.421 216.400,193.164 217.615,193.005 219.100 C 192.846 220.585,192.568 221.893,192.387 222.006 C 192.205 222.120,191.834 223.830,191.562 225.806 C 191.289 227.783,190.925 229.495,190.752 229.612 C 190.580 229.728,190.217 231.483,189.947 233.512 C 189.677 235.540,189.331 237.200,189.178 237.200 C 189.026 237.200,188.666 238.910,188.379 241.000 C 188.092 243.090,187.735 244.800,187.586 244.800 C 187.436 244.800,187.092 246.420,186.822 248.400 C 186.551 250.380,186.198 252.000,186.037 252.000 C 185.876 252.000,185.523 253.660,185.253 255.688 C 184.983 257.717,184.615 259.472,184.435 259.588 C 184.254 259.705,183.874 261.645,183.589 263.900 C 183.304 266.155,182.929 268.000,182.755 268.000 C 182.582 268.000,182.318 269.080,182.168 270.400 C 182.019 271.720,181.771 272.800,181.618 272.800 C 181.466 272.800,181.097 274.510,180.800 276.600 C 180.503 278.690,180.134 280.400,179.981 280.400 C 179.828 280.400,179.477 282.110,179.200 284.200 C 178.923 286.290,178.563 288.000,178.400 288.000 C 178.237 288.000,177.877 289.710,177.600 291.800 C 177.323 293.890,176.963 295.600,176.800 295.600 C 176.637 295.600,176.273 297.355,175.993 299.500 C 175.712 301.645,175.337 303.495,175.160 303.612 C 174.983 303.728,174.617 305.483,174.347 307.512 C 174.077 309.540,173.717 311.200,173.548 311.200 C 173.378 311.200,173.118 312.280,172.968 313.600 C 172.819 314.920,172.572 316.000,172.420 316.000 C 172.267 316.000,171.908 317.710,171.621 319.800 C 171.334 321.890,170.974 323.600,170.821 323.600 C 170.668 323.600,170.308 325.310,170.021 327.400 C 169.734 329.490,169.365 331.200,169.201 331.200 C 169.037 331.200,168.673 332.955,168.393 335.100 C 168.112 337.245,167.741 339.093,167.569 339.206 C 167.397 339.320,167.034 341.030,166.762 343.006 C 166.489 344.983,166.125 346.695,165.952 346.812 C 165.780 346.928,165.417 348.683,165.147 350.712 C 164.877 352.740,164.540 354.400,164.398 354.400 C 164.256 354.400,163.897 356.110,163.600 358.200 C 163.303 360.290,162.929 362.000,162.769 362.000 C 162.609 362.000,162.353 363.080,162.200 364.400 C 162.047 365.720,161.788 366.800,161.625 366.800 C 161.463 366.800,161.091 368.600,160.800 370.800 C 160.509 373.000,160.146 374.800,159.993 374.800 C 159.841 374.800,159.481 376.465,159.193 378.500 C 158.906 380.535,158.528 382.295,158.354 382.412 C 158.180 382.528,157.817 384.283,157.547 386.312 C 157.277 388.340,156.940 390.000,156.798 390.000 C 156.656 390.000,156.297 391.710,156.000 393.800 C 155.703 395.890,155.343 397.600,155.201 397.600 C 155.059 397.600,154.708 399.310,154.421 401.400 C 154.134 403.490,153.765 405.200,153.601 405.200 C 153.437 405.200,153.176 406.323,153.021 407.695 C 152.866 409.068,152.539 410.314,152.294 410.465 C 152.015 410.638,151.784 412.924,151.673 416.622 L 151.496 422.504 157.378 422.327 C 161.033 422.217,163.363 421.984,163.532 421.711 C 163.681 421.469,165.287 421.044,167.102 420.767 C 168.916 420.489,170.400 420.145,170.400 420.003 C 170.400 419.861,171.843 419.510,173.606 419.223 C 175.370 418.937,176.905 418.553,177.019 418.370 C 177.132 418.187,178.299 417.915,179.612 417.767 C 180.925 417.618,182.000 417.362,182.000 417.197 C 182.000 417.033,183.440 416.674,185.200 416.400 C 186.960 416.126,188.400 415.760,188.400 415.586 C 188.400 415.412,190.020 415.049,192.000 414.778 C 193.980 414.508,195.600 414.153,195.600 413.991 C 195.600 413.828,197.040 413.461,198.800 413.176 C 200.560 412.890,202.000 412.527,202.000 412.369 C 202.000 412.212,203.530 411.865,205.400 411.600 C 207.270 411.335,208.800 410.974,208.800 410.798 C 208.800 410.622,209.872 410.354,211.182 410.202 C 213.444 409.940,215.600 408.711,215.600 407.685 C 215.600 407.490,218.125 404.737,221.211 401.566 C 224.297 398.395,228.880 393.640,231.396 391.000 C 233.911 388.360,237.731 384.368,239.885 382.129 C 242.038 379.889,244.089 377.729,244.443 377.329 C 244.796 376.928,245.461 376.295,245.920 375.923 C 246.523 375.434,246.831 374.574,247.029 372.823 C 247.180 371.490,247.437 370.400,247.601 370.400 C 247.765 370.400,248.134 368.690,248.421 366.600 C 248.708 364.510,249.067 362.800,249.220 362.800 C 249.372 362.800,249.723 361.090,250.000 359.000 C 250.277 356.910,250.634 355.200,250.795 355.200 C 250.955 355.200,251.308 353.580,251.578 351.600 C 251.849 349.620,252.208 348.000,252.376 348.000 C 252.544 348.000,252.915 346.110,253.200 343.800 C 253.485 341.490,253.863 339.600,254.039 339.600 C 254.216 339.600,254.482 338.520,254.632 337.200 C 254.781 335.880,255.049 334.800,255.228 334.800 C 255.406 334.800,255.608 334.125,255.676 333.300 L 255.800 331.800 267.127 331.579 C 274.369 331.438,278.553 331.207,278.727 330.938 C 278.877 330.707,280.485 330.289,282.300 330.010 C 284.115 329.731,285.600 329.373,285.600 329.215 C 285.600 329.057,286.590 328.706,287.800 328.435 C 289.010 328.164,290.000 327.796,290.000 327.616 C 290.000 327.436,290.630 327.171,291.400 327.026 C 292.170 326.882,292.800 326.599,292.800 326.398 C 292.800 326.197,293.520 325.816,294.400 325.553 C 295.280 325.289,296.000 324.951,296.000 324.801 C 296.000 324.651,296.720 324.290,297.600 324.000 C 298.480 323.710,299.200 323.316,299.200 323.126 C 299.200 322.936,299.650 322.609,300.200 322.400 C 300.750 322.191,301.200 321.835,301.200 321.610 C 301.200 321.384,301.425 321.200,301.700 321.200 C 302.158 321.199,303.531 320.219,305.300 318.629 C 305.685 318.283,306.136 318.000,306.303 318.000 C 306.469 318.000,307.184 317.370,307.890 316.600 C 308.597 315.830,309.366 315.200,309.600 315.200 C 309.834 315.200,310.125 314.939,310.248 314.619 C 310.370 314.300,314.955 309.559,320.435 304.083 C 325.916 298.608,330.400 294.015,330.400 293.876 C 330.400 293.738,334.720 289.301,340.000 284.017 C 345.280 278.732,349.600 274.182,349.600 273.904 C 349.601 273.458,350.398 272.323,352.071 270.388 C 352.362 270.051,352.870 269.241,353.199 268.588 C 353.529 267.935,354.024 267.256,354.299 267.080 C 354.575 266.904,354.800 266.518,354.800 266.223 C 354.800 265.927,355.053 265.588,355.362 265.470 C 355.672 265.351,356.046 264.702,356.194 264.027 C 356.342 263.352,356.639 262.800,356.853 262.800 C 357.067 262.800,357.430 262.260,357.660 261.600 C 357.890 260.940,358.226 260.400,358.407 260.400 C 358.588 260.400,358.855 259.861,358.999 259.202 C 359.144 258.544,359.493 257.869,359.775 257.702 C 360.056 257.536,360.506 256.725,360.774 255.900 C 361.043 255.075,361.410 254.400,361.591 254.400 C 361.772 254.400,362.136 253.500,362.400 252.400 C 362.664 251.300,363.043 250.400,363.241 250.400 C 363.440 250.400,363.820 249.590,364.084 248.600 C 364.349 247.610,364.700 246.800,364.865 246.800 C 365.029 246.800,365.282 246.170,365.426 245.400 C 365.571 244.630,365.836 244.000,366.016 244.000 C 366.196 244.000,366.564 243.010,366.835 241.800 C 367.106 240.590,367.454 239.600,367.609 239.600 C 367.764 239.600,368.120 238.520,368.400 237.200 C 368.680 235.880,369.045 234.800,369.211 234.800 C 369.377 234.800,369.746 233.630,370.030 232.200 C 370.314 230.770,370.677 229.600,370.837 229.600 C 370.997 229.600,371.340 228.340,371.600 226.800 C 371.860 225.260,372.217 224.000,372.395 224.000 C 372.572 224.000,372.945 222.470,373.223 220.600 C 373.501 218.730,373.866 217.200,374.033 217.200 C 374.200 217.200,374.462 216.030,374.615 214.600 C 374.768 213.170,375.032 212.000,375.202 212.000 C 375.371 212.000,375.739 210.200,376.020 208.000 C 376.300 205.800,376.656 204.000,376.810 204.000 C 376.964 204.000,377.322 201.705,377.604 198.900 C 377.887 196.095,378.259 193.708,378.430 193.595 C 378.601 193.481,378.972 190.466,379.254 186.895 C 379.536 183.323,379.909 180.400,380.084 180.400 C 380.258 180.400,380.400 173.830,380.400 165.800 C 380.400 156.333,380.259 151.200,380.000 151.200 C 379.780 151.200,379.600 150.525,379.601 149.700 C 379.601 147.666,378.729 141.448,378.409 141.200 C 378.267 141.090,377.924 139.965,377.647 138.700 C 377.369 137.435,377.015 136.400,376.859 136.400 C 376.702 136.400,376.335 135.590,376.043 134.600 C 375.751 133.610,375.366 132.800,375.188 132.800 C 375.009 132.800,374.745 132.260,374.600 131.600 C 374.455 130.940,374.188 130.400,374.007 130.400 C 373.826 130.400,373.490 129.860,373.260 129.200 C 373.030 128.540,372.664 128.000,372.448 128.000 C 372.231 128.000,371.942 127.649,371.806 127.219 C 371.670 126.790,370.938 125.818,370.179 125.059 C 369.421 124.301,368.800 123.482,368.800 123.240 C 368.800 122.998,368.620 122.800,368.400 122.800 C 368.180 122.800,367.320 122.125,366.488 121.300 C 365.656 120.475,364.441 119.530,363.788 119.201 C 363.135 118.871,362.464 118.390,362.298 118.132 C 362.131 117.874,361.456 117.544,360.798 117.399 C 360.139 117.255,359.600 116.978,359.600 116.784 C 359.600 116.591,358.880 116.216,358.000 115.953 C 357.120 115.689,356.400 115.351,356.400 115.200 C 356.400 115.050,355.365 114.697,354.100 114.415 C 352.835 114.134,351.700 113.747,351.578 113.555 C 351.456 113.363,350.466 113.087,349.378 112.942 C 348.290 112.796,347.295 112.517,347.166 112.322 C 347.037 112.127,344.742 111.761,342.066 111.509 C 339.390 111.257,337.200 110.905,337.200 110.726 C 337.200 110.547,331.170 110.400,323.800 110.400 C 315.133 110.400,310.400 110.541,310.400 110.800 C 310.400 111.020,309.926 111.200,309.346 111.200 C 307.618 111.200,303.200 112.112,303.200 112.469 C 303.200 112.651,302.750 112.800,302.200 112.800 C 301.356 112.800,301.200 112.613,301.200 111.600 L 301.200 110.400 271.300 110.429 L 241.400 110.457 240.200 111.860 M293.600 120.200 L 293.600 123.200 296.860 123.200 C 300.141 123.200,300.670 123.042,305.600 120.590 C 306.150 120.316,307.230 119.961,308.000 119.800 C 308.770 119.639,309.580 119.366,309.800 119.193 C 310.020 119.020,311.640 118.663,313.400 118.399 C 315.160 118.136,316.913 117.758,317.295 117.560 C 318.205 117.088,329.407 117.093,330.305 117.565 C 330.687 117.766,333.016 118.119,335.479 118.349 C 337.943 118.579,340.283 118.939,340.679 119.149 C 341.076 119.359,342.480 119.747,343.800 120.010 C 345.120 120.274,346.382 120.636,346.605 120.815 C 346.828 120.994,347.863 121.355,348.905 121.618 C 349.947 121.880,350.800 122.225,350.800 122.383 C 350.800 122.542,351.520 122.910,352.400 123.200 C 353.280 123.490,354.000 123.879,354.000 124.064 C 354.000 124.249,354.208 124.400,354.462 124.400 C 354.716 124.400,355.514 124.850,356.236 125.400 C 356.957 125.950,357.667 126.400,357.815 126.400 C 358.104 126.400,360.719 128.803,362.129 130.365 C 362.608 130.895,363.405 131.693,363.900 132.137 C 364.395 132.581,364.800 133.154,364.800 133.410 C 364.800 133.666,365.151 134.193,365.579 134.581 C 366.502 135.416,369.600 141.529,369.600 142.515 C 369.600 142.892,369.767 143.200,369.971 143.200 C 370.176 143.200,370.565 144.235,370.837 145.500 C 371.110 146.765,371.465 147.980,371.628 148.200 C 371.790 148.420,372.055 149.680,372.216 151.000 C 372.377 152.320,372.709 153.528,372.954 153.686 C 373.586 154.090,373.579 178.055,372.948 178.839 C 372.699 179.147,372.366 181.020,372.207 183.000 C 372.049 184.980,371.780 186.780,371.609 187.000 C 371.438 187.220,371.074 189.560,370.800 192.200 C 370.526 194.840,370.165 197.180,369.998 197.400 C 369.831 197.620,369.472 199.420,369.200 201.400 C 368.928 203.380,368.570 205.180,368.406 205.400 C 368.241 205.620,367.878 207.330,367.600 209.200 C 367.322 211.070,366.964 212.780,366.804 213.000 C 366.645 213.220,366.292 214.570,366.020 216.000 C 365.748 217.430,365.385 218.780,365.215 219.000 C 365.044 219.220,364.668 220.615,364.379 222.100 C 364.090 223.585,363.722 224.800,363.562 224.800 C 363.401 224.800,363.149 225.519,363.000 226.398 C 362.852 227.277,362.584 228.086,362.405 228.197 C 362.227 228.307,361.859 229.343,361.588 230.499 C 361.317 231.654,360.964 232.780,360.803 233.000 C 360.642 233.220,360.382 233.934,360.226 234.586 C 360.070 235.238,359.590 236.543,359.161 237.486 C 358.731 238.429,358.272 239.740,358.140 240.400 C 358.008 241.060,357.771 241.600,357.614 241.600 C 357.457 241.600,357.090 242.320,356.800 243.200 C 356.510 244.080,356.121 244.800,355.936 244.800 C 355.751 244.800,355.599 245.115,355.598 245.500 C 355.597 246.263,353.961 249.659,352.372 252.200 C 351.822 253.080,351.141 254.250,350.859 254.800 C 349.733 256.998,348.892 258.377,347.479 260.343 C 346.666 261.475,346.000 262.515,346.000 262.653 C 346.000 263.471,333.371 277.200,332.619 277.200 C 332.450 277.200,331.451 277.920,330.400 278.800 C 329.349 279.680,328.304 280.400,328.078 280.400 C 327.852 280.400,327.607 280.535,327.533 280.700 C 327.277 281.277,324.968 282.646,321.000 284.572 C 318.800 285.640,316.550 286.737,316.000 287.011 C 315.450 287.284,314.370 287.639,313.600 287.800 C 312.830 287.961,312.020 288.231,311.800 288.400 C 311.580 288.569,310.050 288.937,308.400 289.217 C 306.750 289.498,305.147 289.924,304.839 290.164 C 304.055 290.773,288.077 290.765,287.685 290.155 C 287.528 289.911,286.255 289.511,284.856 289.268 C 283.456 289.024,282.106 288.660,281.856 288.458 C 281.605 288.257,280.770 287.962,280.000 287.802 C 279.230 287.642,277.650 287.081,276.488 286.555 C 275.327 286.030,274.216 285.600,274.021 285.600 C 273.656 285.600,271.161 284.360,270.800 284.000 C 270.508 283.708,268.818 282.755,267.125 281.927 C 266.314 281.530,265.539 281.025,265.402 280.803 C 265.265 280.581,263.656 280.400,261.826 280.400 L 258.500 280.400 258.250 281.650 C 258.113 282.338,258.000 283.328,258.000 283.850 C 258.000 284.373,257.852 284.800,257.670 284.800 C 257.489 284.800,257.097 286.510,256.800 288.600 C 256.503 290.690,256.149 292.400,256.014 292.400 C 255.878 292.400,255.529 293.975,255.238 295.900 C 254.947 297.825,254.577 299.580,254.416 299.800 C 254.256 300.020,253.898 301.776,253.620 303.702 C 253.343 305.628,252.977 307.291,252.805 307.397 C 252.634 307.502,252.369 308.759,252.216 310.190 C 252.063 311.621,251.790 312.883,251.610 312.994 C 251.430 313.105,251.063 314.772,250.794 316.698 C 250.525 318.624,250.170 320.380,250.005 320.600 C 249.840 320.820,249.471 322.530,249.185 324.400 C 248.899 326.270,248.539 327.980,248.385 328.200 C 248.231 328.420,247.867 330.130,247.575 332.000 C 247.284 333.870,246.930 335.490,246.789 335.600 C 246.648 335.710,246.311 337.417,246.038 339.394 C 245.766 341.370,245.408 343.080,245.242 343.194 C 245.076 343.307,244.710 344.976,244.428 346.902 C 244.147 348.828,243.779 350.489,243.611 350.593 C 243.443 350.697,243.178 351.909,243.022 353.287 C 242.866 354.665,242.596 355.974,242.422 356.196 C 242.248 356.418,241.878 358.130,241.600 360.000 C 241.322 361.870,240.961 363.580,240.797 363.800 C 240.634 364.020,240.374 365.078,240.218 366.151 C 239.803 369.019,239.740 369.090,237.374 369.386 C 236.178 369.535,235.200 369.793,235.200 369.960 C 235.200 370.126,233.715 370.489,231.900 370.766 C 230.085 371.043,228.420 371.411,228.200 371.583 C 227.980 371.754,226.540 372.122,225.000 372.400 C 223.460 372.678,222.020 373.044,221.800 373.213 C 221.580 373.383,219.960 373.737,218.200 374.000 C 216.440 374.263,214.820 374.624,214.600 374.802 C 214.380 374.980,213.343 375.253,212.295 375.409 C 211.247 375.565,210.303 375.833,210.197 376.004 C 210.091 376.176,208.473 376.544,206.602 376.823 C 204.731 377.101,203.200 377.455,203.200 377.610 C 203.200 377.764,201.805 378.113,200.100 378.386 C 198.395 378.659,196.820 379.019,196.600 379.185 C 194.794 380.556,192.096 379.619,193.121 377.978 C 193.367 377.584,193.791 375.718,194.064 373.831 C 194.337 371.944,194.681 370.400,194.828 370.400 C 194.976 370.400,195.218 369.325,195.367 368.012 C 195.515 366.699,195.788 365.531,195.973 365.417 C 196.158 365.303,196.538 363.407,196.819 361.205 C 197.100 359.002,197.462 357.200,197.623 357.200 C 197.785 357.200,198.137 355.625,198.406 353.700 C 198.675 351.775,199.037 350.020,199.212 349.800 C 199.386 349.580,199.748 347.870,200.015 346.000 C 200.282 344.130,200.635 342.420,200.798 342.200 C 200.961 341.980,201.322 340.270,201.600 338.400 C 201.878 336.530,202.238 334.820,202.400 334.600 C 202.562 334.380,202.922 332.670,203.200 330.800 C 203.478 328.930,203.848 327.218,204.022 326.996 C 204.196 326.774,204.466 325.465,204.622 324.087 C 204.778 322.709,205.047 321.495,205.220 321.388 C 205.393 321.281,205.764 319.575,206.044 317.596 C 206.324 315.618,206.680 314.000,206.835 314.000 C 206.990 314.000,207.337 312.425,207.606 310.500 C 207.875 308.575,208.223 306.820,208.380 306.600 C 208.536 306.380,208.899 304.670,209.185 302.800 C 209.471 300.930,209.831 299.220,209.985 299.000 C 210.139 298.780,210.499 297.070,210.785 295.200 C 211.071 293.330,211.439 291.620,211.602 291.400 C 211.765 291.180,212.118 289.470,212.385 287.600 C 212.652 285.730,213.014 284.020,213.188 283.800 C 213.363 283.580,213.725 281.824,213.994 279.898 C 214.263 277.972,214.627 276.307,214.802 276.199 C 214.978 276.090,215.249 274.876,215.405 273.501 C 215.561 272.125,215.825 270.820,215.992 270.600 C 216.159 270.380,216.533 268.670,216.825 266.800 C 217.116 264.930,217.465 263.310,217.600 263.200 C 217.735 263.090,218.084 261.470,218.375 259.600 C 218.667 257.730,219.032 256.020,219.187 255.800 C 219.342 255.580,219.694 253.870,219.970 252.000 C 220.245 250.130,220.605 248.420,220.770 248.200 C 220.934 247.980,221.294 246.270,221.570 244.400 C 221.845 242.530,222.213 240.820,222.388 240.600 C 222.562 240.380,222.928 238.580,223.200 236.600 C 223.472 234.620,223.842 232.816,224.022 232.590 C 224.201 232.365,224.474 231.195,224.628 229.990 C 224.781 228.786,225.039 227.620,225.201 227.400 C 225.362 227.180,225.729 225.470,226.015 223.600 C 226.301 221.730,226.664 220.020,226.820 219.800 C 226.976 219.580,227.335 217.825,227.617 215.900 C 227.898 213.975,228.251 212.400,228.400 212.400 C 228.549 212.400,228.909 210.600,229.200 208.400 C 229.491 206.200,229.858 204.400,230.014 204.400 C 230.171 204.400,230.534 202.690,230.821 200.600 C 231.108 198.510,231.461 196.800,231.607 196.800 C 231.752 196.800,232.102 195.225,232.383 193.300 C 232.665 191.375,233.024 189.620,233.180 189.400 C 233.336 189.180,233.699 187.470,233.985 185.600 C 234.271 183.730,234.638 182.020,234.799 181.800 C 234.961 181.580,235.219 180.414,235.372 179.210 C 235.526 178.005,235.799 176.835,235.978 176.610 C 236.158 176.384,236.528 174.580,236.800 172.600 C 237.072 170.620,237.438 168.820,237.612 168.600 C 237.787 168.380,238.155 166.670,238.430 164.800 C 238.706 162.930,239.066 161.220,239.230 161.000 C 239.395 160.780,239.755 159.070,240.030 157.200 C 240.306 155.330,240.658 153.620,240.813 153.400 C 240.968 153.180,241.333 151.470,241.625 149.600 C 241.916 147.730,242.265 146.110,242.400 146.000 C 242.535 145.890,242.884 144.270,243.175 142.400 C 243.467 140.530,243.841 138.820,244.008 138.600 C 244.175 138.380,244.439 137.075,244.595 135.699 C 244.751 134.324,245.022 133.110,245.198 133.001 C 245.373 132.893,245.737 131.228,246.006 129.302 C 246.275 127.376,246.637 125.620,246.812 125.400 C 246.986 125.180,247.348 123.470,247.615 121.600 C 247.882 119.730,248.280 117.975,248.500 117.700 C 248.810 117.311,253.847 117.200,271.249 117.200 L 293.600 117.200 293.600 120.200 M303.800 129.451 C 303.360 129.556,302.640 129.794,302.200 129.980 C 301.760 130.167,300.770 130.540,300.000 130.810 C 297.573 131.660,292.000 134.469,292.000 134.842 C 292.000 135.039,291.775 135.206,291.500 135.213 C 290.363 135.244,289.122 136.815,288.909 138.494 C 288.789 139.432,288.552 140.380,288.381 140.600 C 288.210 140.820,287.845 142.530,287.570 144.400 C 287.294 146.270,286.934 147.980,286.770 148.200 C 286.605 148.420,286.241 150.130,285.961 152.000 C 285.681 153.870,285.331 155.490,285.184 155.600 C 285.037 155.710,284.687 157.330,284.406 159.200 C 284.124 161.070,283.758 162.780,283.592 163.000 C 283.426 163.220,283.159 164.390,283.000 165.600 C 282.841 166.810,282.574 167.980,282.408 168.200 C 282.241 168.420,281.871 170.130,281.585 172.000 C 281.299 173.870,280.939 175.580,280.785 175.800 C 280.631 176.020,280.267 177.730,279.975 179.600 C 279.684 181.470,279.332 183.090,279.194 183.200 C 279.055 183.310,278.698 185.020,278.400 187.000 C 278.102 188.980,277.744 190.690,277.604 190.800 C 277.463 190.910,277.119 192.530,276.839 194.400 C 276.559 196.270,276.195 197.980,276.030 198.200 C 275.866 198.420,275.506 200.130,275.230 202.000 C 274.955 203.870,274.593 205.580,274.427 205.800 C 274.261 206.020,273.898 207.776,273.620 209.702 C 273.343 211.628,272.969 213.295,272.790 213.406 C 272.610 213.518,272.337 214.779,272.184 216.210 C 272.031 217.641,271.766 218.898,271.595 219.003 C 271.423 219.109,271.057 220.772,270.780 222.698 C 270.502 224.624,270.139 226.380,269.973 226.600 C 269.807 226.820,269.445 228.530,269.170 230.400 C 268.894 232.270,268.537 233.980,268.376 234.200 C 268.214 234.420,267.858 236.040,267.584 237.800 C 267.310 239.560,266.948 241.180,266.779 241.400 C 266.609 241.620,266.252 243.330,265.985 245.200 C 265.718 247.070,265.358 248.780,265.185 249.000 C 265.012 249.220,264.654 250.930,264.389 252.800 C 264.123 254.670,263.747 256.371,263.553 256.580 C 263.359 256.789,263.200 258.589,263.201 260.580 L 263.202 264.200 264.701 265.061 C 265.974 265.792,267.687 266.673,271.270 268.439 C 271.638 268.620,273.168 268.985,274.670 269.249 C 276.171 269.513,277.571 269.880,277.780 270.065 C 278.300 270.524,297.039 270.492,297.905 270.030 C 298.287 269.827,299.452 269.445,300.492 269.180 C 301.533 268.916,302.590 268.453,302.841 268.150 C 303.092 267.848,303.567 267.600,303.895 267.600 C 304.642 267.600,310.800 261.652,310.800 260.931 C 310.800 260.639,310.967 260.400,311.171 260.400 C 311.375 260.400,311.798 259.905,312.111 259.300 C 316.034 251.720,318.400 246.792,318.400 246.200 C 318.400 246.066,318.740 245.201,319.155 244.278 C 319.570 243.355,320.037 242.003,320.192 241.273 C 320.348 240.543,320.727 239.463,321.035 238.873 C 321.343 238.283,321.597 237.350,321.600 236.800 C 321.603 236.250,321.866 235.300,322.185 234.689 C 322.503 234.078,322.978 232.458,323.239 231.089 C 323.501 229.720,323.853 228.420,324.022 228.200 C 324.190 227.980,324.458 227.080,324.616 226.200 C 324.775 225.320,325.037 224.420,325.199 224.200 C 325.362 223.980,325.722 222.540,326.000 221.000 C 326.278 219.460,326.646 218.020,326.817 217.800 C 326.989 217.580,327.357 215.915,327.634 214.100 C 327.911 212.285,328.256 210.800,328.399 210.800 C 328.542 210.800,328.903 209.090,329.200 207.000 C 329.497 204.910,329.851 203.200,329.986 203.200 C 330.122 203.200,330.471 201.625,330.762 199.700 C 331.053 197.775,331.422 196.020,331.580 195.800 C 331.739 195.580,332.102 193.600,332.387 191.400 C 332.672 189.200,333.036 187.220,333.196 187.000 C 333.355 186.780,333.717 184.350,334.000 181.600 C 334.283 178.850,334.713 176.347,334.957 176.039 C 335.600 175.224,335.574 145.282,334.929 143.963 C 334.670 143.433,334.239 142.010,333.973 140.800 C 333.707 139.590,333.154 138.122,332.744 137.538 C 332.335 136.954,332.000 136.299,332.000 136.081 C 332.000 135.864,331.730 135.582,331.400 135.455 C 331.070 135.329,330.800 134.977,330.800 134.675 C 330.800 133.750,329.111 132.446,326.000 130.968 C 325.230 130.602,324.240 130.099,323.800 129.851 C 323.001 129.400,305.488 129.050,303.800 129.451 M291.599 176.212 C 291.929 176.865,292.424 177.544,292.699 177.720 C 292.975 177.896,293.200 178.301,293.200 178.620 C 293.200 178.939,293.355 179.200,293.545 179.200 C 293.735 179.200,294.126 180.325,294.413 181.700 C 294.700 183.075,295.130 184.329,295.367 184.486 C 295.948 184.871,295.902 203.162,295.320 203.536 C 295.093 203.681,294.668 206.185,294.375 209.100 C 294.082 212.015,293.719 214.400,293.568 214.400 C 293.417 214.400,293.168 215.570,293.015 217.000 C 292.862 218.430,292.605 219.600,292.444 219.600 C 292.282 219.600,291.920 221.490,291.637 223.800 C 291.355 226.110,290.984 228.000,290.814 228.000 C 290.643 228.000,290.277 229.710,290.000 231.800 C 289.723 233.890,289.366 235.600,289.207 235.600 C 289.047 235.600,288.684 237.220,288.400 239.200 C 288.116 241.180,287.759 242.800,287.606 242.800 C 287.454 242.800,287.091 244.330,286.800 246.200 C 286.509 248.070,286.146 249.600,285.992 249.600 C 285.839 249.600,285.482 250.950,285.200 252.600 C 284.918 254.250,284.561 255.600,284.407 255.600 C 284.254 255.600,283.903 256.860,283.628 258.400 C 283.353 259.940,282.964 261.200,282.764 261.200 C 282.564 261.200,282.400 261.535,282.400 261.945 C 282.400 262.697,278.568 262.438,278.001 261.647 C 277.891 261.493,277.035 261.120,276.100 260.819 C 275.165 260.518,274.400 260.154,274.400 260.011 C 274.400 259.867,273.753 259.496,272.963 259.185 L 271.526 258.622 271.805 256.011 C 271.958 254.575,272.216 253.310,272.378 253.200 C 272.540 253.090,272.917 251.335,273.214 249.300 C 273.512 247.265,273.877 245.600,274.026 245.600 C 274.175 245.600,274.419 244.520,274.568 243.200 C 274.718 241.880,274.978 240.800,275.148 240.800 C 275.317 240.800,275.677 239.140,275.947 237.112 C 276.217 235.083,276.580 233.328,276.754 233.212 C 276.928 233.095,277.306 231.335,277.593 229.300 C 277.881 227.265,278.238 225.600,278.387 225.600 C 278.536 225.600,278.892 223.890,279.179 221.800 C 279.466 219.710,279.826 218.000,279.979 218.000 C 280.132 218.000,280.492 216.290,280.779 214.200 C 281.066 212.110,281.435 210.400,281.599 210.400 C 281.763 210.400,282.123 208.690,282.400 206.600 C 282.677 204.510,283.040 202.800,283.206 202.800 C 283.373 202.800,283.739 201.000,284.020 198.800 C 284.300 196.600,284.671 194.800,284.845 194.800 C 285.018 194.800,285.282 193.720,285.432 192.400 C 285.581 191.080,285.829 190.000,285.982 190.000 C 286.134 190.000,286.503 188.290,286.800 186.200 C 287.097 184.110,287.457 182.400,287.600 182.400 C 287.743 182.400,288.103 180.690,288.400 178.600 C 288.697 176.510,289.089 174.800,289.270 174.800 C 289.452 174.800,289.600 174.530,289.600 174.200 C 289.600 173.390,290.769 174.566,291.599 176.212 " stroke="none" fill="#ffffff" fill-rule="evenodd"></path></g></svg>