<svg id="svg" version="1.1" width="400" height="159.74603174603175" viewBox="0 0 400 159.74603174603175" xmlns="http://www.w3.org/2000/svg" xmlns:xlink="http://www.w3.org/1999/xlink" ><g id="svgg"><path id="path0" d="M110.965 57.471 C 108.453 58.364,107.298 62.170,109.191 63.317 C 112.109 65.086,116.001 63.279,116.057 60.130 C 116.098 57.786,113.661 56.514,110.965 57.471 M89.375 66.614 C 89.260 66.658,89.167 66.878,89.167 67.102 C 89.167 67.653,88.967 67.629,94.361 67.723 C 99.543 67.814,99.814 67.776,99.615 66.983 L 99.514 66.582 94.549 66.558 C 91.818 66.544,89.490 66.570,89.375 66.614 M115.042 72.019 C 114.304 72.779,115.037 73.175,116.954 73.051 C 118.387 72.958,120.350 73.267,120.917 73.675 C 121.211 73.887,122.148 74.028,122.506 73.915 C 123.650 73.552,121.790 72.519,119.333 72.154 C 117.282 71.849,115.268 71.785,115.042 72.019 M85.509 72.573 C 85.397 72.707,85.332 72.952,85.363 73.117 C 85.425 73.438,85.216 73.409,90.273 73.815 C 91.478 73.912,92.803 74.082,93.219 74.194 C 94.088 74.426,94.553 74.204,94.466 73.598 C 94.424 73.303,94.260 73.233,93.398 73.138 C 92.838 73.076,92.088 72.947,91.731 72.852 C 91.375 72.756,90.333 72.636,89.417 72.584 C 88.500 72.533,87.291 72.455,86.731 72.410 C 85.962 72.349,85.661 72.389,85.509 72.573 M111.367 74.033 C 110.871 74.529,111.218 75.055,112.167 75.245 C 112.487 75.309,113.462 75.572,114.333 75.828 C 117.174 76.664,117.653 76.757,121.333 77.176 C 122.569 77.317,122.775 77.303,122.948 77.067 C 123.246 76.661,122.872 76.185,122.168 76.075 C 120.090 75.749,119.441 75.657,118.250 75.517 C 116.402 75.300,114.861 74.945,113.750 74.481 C 112.293 73.874,111.648 73.752,111.367 74.033 M113.250 79.157 C 110.464 79.261,110.167 79.325,110.167 79.823 C 110.167 80.342,110.610 80.587,111.087 80.332 C 111.407 80.160,112.488 80.132,116.123 80.201 C 121.711 80.307,123.054 80.222,123.142 79.761 C 123.292 78.970,121.397 78.854,113.250 79.157 M89.742 83.898 C 89.288 84.117,88.579 84.427,88.167 84.588 C 87.754 84.748,87.192 84.971,86.917 85.085 C 86.642 85.198,86.042 85.421,85.583 85.580 C 85.125 85.739,84.600 85.928,84.417 86.000 C 84.233 86.072,83.708 86.261,83.250 86.420 C 81.606 86.990,81.333 87.167,81.333 87.668 C 81.333 88.156,81.733 88.446,82.063 88.198 C 82.166 88.120,82.925 87.810,83.750 87.509 C 84.575 87.208,86.075 86.624,87.083 86.210 C 90.837 84.671,91.170 84.462,90.839 83.844 C 90.616 83.426,90.732 83.421,89.742 83.898 M177.583 95.833 C 177.527 95.925,177.016 96.006,176.448 96.013 C 174.113 96.041,172.857 97.489,175.042 97.633 C 175.712 97.678,175.852 97.760,176.256 98.342 C 176.807 99.137,177.317 99.202,177.834 98.544 C 178.158 98.133,178.209 98.116,178.355 98.378 C 178.573 98.768,179.120 98.744,179.249 98.338 C 179.334 98.068,179.406 98.043,179.654 98.198 C 180.044 98.441,180.500 98.263,180.500 97.868 C 180.500 97.457,179.898 96.925,179.125 96.653 C 178.781 96.532,178.500 96.338,178.500 96.222 C 178.500 95.858,177.762 95.545,177.583 95.833 M215.229 110.245 C 214.897 111.109,216.158 112.305,217.552 112.449 C 220.245 112.727,221.587 111.278,219.163 110.710 C 218.677 110.597,218.155 110.390,218.002 110.252 C 217.613 109.900,215.363 109.894,215.229 110.245 " stroke="none" fill="#000000" fill-rule="evenodd"></path>
<path id="dog" d="M184.333 44.056 C 183.737 44.263,182.612 44.774,181.833 45.192 C 177.353 47.597,176.962 47.879,173.985 50.833 C 171.096 53.700,170.384 54.694,168.081 59.074 C 167.457 60.261,166.515 61.924,165.987 62.771 C 165.459 63.617,164.616 65.053,164.113 65.960 C 163.611 66.868,162.669 68.429,162.021 69.430 C 161.373 70.431,160.372 72.019,159.796 72.959 C 154.869 81.010,151.824 84.508,148.851 85.536 C 147.552 85.985,139.993 86.116,138.500 85.715 C 138.087 85.605,137.112 85.394,136.333 85.247 C 135.554 85.100,133.567 84.654,131.917 84.256 C 130.267 83.858,127.942 83.406,126.750 83.253 C 125.558 83.100,124.133 82.874,123.583 82.751 C 123.033 82.628,121.571 82.407,120.333 82.261 C 117.518 81.928,115.525 81.578,113.523 81.066 C 112.665 80.846,111.934 80.667,111.898 80.667 C 111.863 80.667,111.833 80.610,111.833 80.541 C 111.833 80.471,114.274 80.442,117.258 80.476 C 122.261 80.532,122.708 80.514,123.008 80.243 C 123.493 79.804,123.338 79.000,122.768 79.000 C 122.677 79.000,122.738 79.099,122.903 79.219 C 124.132 80.118,122.702 80.325,116.123 80.201 C 112.488 80.132,111.407 80.160,111.087 80.332 C 110.610 80.587,110.167 80.342,110.167 79.823 C 110.167 79.325,110.463 79.261,113.250 79.153 L 115.917 79.050 113.333 79.043 L 110.750 79.035 110.699 78.530 C 110.582 77.376,111.580 75.500,112.312 75.500 C 112.464 75.500,113.481 75.762,114.572 76.083 C 115.662 76.404,116.673 76.659,116.819 76.650 C 116.964 76.640,116.821 76.556,116.500 76.462 C 116.179 76.368,115.204 76.082,114.333 75.827 C 113.462 75.571,112.487 75.309,112.167 75.245 C 111.189 75.049,110.845 74.475,111.419 73.998 C 111.675 73.786,113.351 74.163,113.742 74.521 C 113.984 74.744,114.500 74.695,114.413 74.458 C 114.216 73.926,116.648 73.127,118.167 73.225 C 119.241 73.294,119.483 73.274,119.167 73.142 C 118.919 73.038,118.077 73.002,117.088 73.053 C 115.020 73.160,114.202 72.731,115.083 72.000 C 115.569 71.597,119.675 72.054,121.583 72.725 C 123.241 73.307,123.271 74.244,121.621 73.919 C 121.221 73.840,121.147 73.858,121.333 73.987 C 121.673 74.224,122.555 74.212,122.800 73.967 C 123.063 73.704,123.057 73.005,122.792 72.932 C 122.677 72.901,121.977 72.674,121.235 72.428 C 120.494 72.183,119.471 71.938,118.961 71.886 L 118.036 71.790 118.124 70.816 C 118.289 68.991,117.272 66.585,114.921 63.241 C 114.802 63.072,114.900 62.863,115.287 62.463 C 117.541 60.135,115.279 55.998,112.280 56.962 C 111.794 57.119,111.836 57.134,112.789 57.150 C 116.221 57.206,117.209 60.389,114.609 63.012 C 113.067 64.568,109.399 64.232,108.479 62.451 C 108.113 61.742,108.228 60.509,108.756 59.489 C 108.904 59.203,108.982 58.926,108.930 58.874 C 108.878 58.822,108.752 59.017,108.651 59.307 C 108.441 59.908,108.472 59.898,105.852 60.250 C 104.808 60.390,103.626 60.650,103.225 60.827 C 102.355 61.212,98.450 64.657,97.768 65.640 C 97.504 66.021,97.204 66.343,97.102 66.355 C 97.000 66.366,95.217 66.358,93.140 66.337 L 89.364 66.298 89.089 66.718 C 88.431 67.722,88.802 67.833,92.790 67.833 C 94.739 67.833,96.333 67.870,96.333 67.915 C 96.333 67.985,95.226 70.109,94.072 72.250 C 93.662 73.012,93.599 73.020,91.250 72.596 C 88.891 72.172,85.710 72.124,85.326 72.507 C 84.435 73.398,85.512 73.855,88.398 73.810 L 89.917 73.786 87.833 73.641 C 85.427 73.474,85.333 73.451,85.333 73.026 C 85.333 72.313,88.975 72.248,92.059 72.906 C 92.714 73.046,93.513 73.180,93.833 73.205 C 94.280 73.239,94.428 73.332,94.466 73.598 C 94.551 74.191,94.086 74.426,93.261 74.205 C 92.869 74.100,92.031 73.976,91.399 73.930 C 90.620 73.873,90.411 73.891,90.750 73.986 C 91.025 74.064,91.554 74.136,91.926 74.147 C 93.200 74.184,93.232 74.342,92.390 76.417 C 91.137 79.506,90.671 80.977,90.558 82.195 C 90.479 83.047,90.377 83.389,90.183 83.457 C 90.037 83.508,89.804 83.640,89.667 83.749 C 89.529 83.858,88.945 84.119,88.370 84.329 C 87.794 84.539,87.362 84.751,87.410 84.798 C 87.499 84.888,88.528 84.505,89.417 84.052 C 90.474 83.513,90.648 83.488,90.842 83.849 C 91.081 84.296,90.813 84.616,89.854 85.027 C 89.450 85.200,89.161 85.383,89.211 85.433 C 89.261 85.483,89.534 85.405,89.818 85.258 L 90.333 84.991 90.337 86.621 C 90.338 87.517,90.452 89.188,90.590 90.333 C 90.727 91.479,90.946 93.392,91.075 94.583 C 91.512 98.611,92.179 99.663,95.846 102.115 C 98.532 103.911,100.041 104.557,102.417 104.927 C 104.476 105.248,122.822 105.275,123.683 104.958 C 124.625 104.612,131.653 104.677,132.910 105.044 C 133.666 105.264,134.526 105.333,136.505 105.333 C 139.017 105.333,139.815 105.451,141.083 106.006 C 142.060 106.433,142.766 106.670,144.025 106.989 C 145.871 107.458,146.192 107.582,149.250 108.999 C 153.959 111.180,157.136 113.915,158.193 116.694 C 158.898 118.551,158.539 125.897,157.492 131.036 C 157.151 132.711,157.082 156.721,157.412 158.875 L 157.534 159.667 178.922 159.667 L 200.310 159.667 200.840 157.958 C 202.030 154.128,202.531 152.976,204.013 150.667 C 206.010 147.554,207.559 146.866,212.083 147.082 C 216.445 147.290,220.008 148.298,223.435 150.293 C 231.774 155.148,235.474 155.927,237.898 153.336 C 238.869 152.298,239.365 151.284,240.915 147.167 C 244.333 138.085,245.455 134.377,246.084 130.083 C 246.232 129.075,246.431 127.837,246.525 127.333 C 246.787 125.939,246.892 117.609,246.685 114.667 C 246.359 110.033,246.145 108.707,245.195 105.417 C 244.334 102.432,244.333 102.421,244.333 87.886 C 244.333 73.494,244.233 70.902,243.485 66.083 C 242.940 62.568,242.686 60.719,242.421 58.333 C 241.541 50.425,240.224 49.608,232.500 52.181 C 224.661 54.791,222.182 56.803,219.234 62.942 C 217.318 66.934,217.253 67.083,216.860 68.363 C 214.283 76.760,208.237 88.135,204.250 92.087 C 200.489 95.815,197.939 96.187,195.723 93.334 C 193.761 90.807,193.380 89.900,192.711 86.167 L 192.278 83.750 192.172 69.750 L 192.065 55.750 191.620 53.167 C 190.180 44.813,188.438 42.634,184.333 44.056 M110.750 57.343 C 110.248 57.491,108.922 58.478,109.052 58.608 C 109.090 58.646,109.358 58.468,109.648 58.213 C 109.938 57.958,110.530 57.625,110.963 57.471 C 111.781 57.181,111.624 57.087,110.750 57.343 M99.615 66.983 C 99.814 67.776,99.543 67.814,94.361 67.723 C 88.967 67.629,89.167 67.653,89.167 67.102 C 89.167 66.523,89.083 66.531,94.549 66.558 L 99.514 66.582 99.615 66.983 M119.833 73.470 C 120.213 73.700,121.116 73.888,120.917 73.696 C 120.825 73.608,120.487 73.486,120.167 73.427 C 119.787 73.357,119.671 73.372,119.833 73.470 M114.849 74.824 C 114.996 74.914,115.446 75.030,115.849 75.081 C 116.750 75.196,116.248 74.936,115.250 74.770 C 114.782 74.693,114.663 74.709,114.849 74.824 M116.833 75.317 C 116.971 75.401,117.721 75.511,118.500 75.561 C 119.489 75.625,119.690 75.612,119.167 75.516 C 117.747 75.258,116.574 75.158,116.833 75.317 M120.343 75.724 C 120.395 75.780,120.946 75.898,121.567 75.986 C 122.324 76.093,122.774 76.246,122.927 76.448 C 123.058 76.621,123.158 76.662,123.161 76.546 C 123.171 76.180,122.440 75.858,121.333 75.739 C 120.737 75.675,120.292 75.668,120.343 75.724 M117.583 76.841 C 118.228 77.041,120.413 77.221,119.833 77.026 C 119.604 76.949,118.892 76.841,118.250 76.786 C 117.409 76.714,117.223 76.730,117.583 76.841 M122.939 77.085 C 122.856 77.302,122.646 77.335,121.794 77.267 L 120.750 77.183 121.723 77.363 C 122.651 77.534,123.489 77.267,123.136 76.913 C 123.084 76.861,122.995 76.939,122.939 77.085 M118.292 78.957 C 118.865 78.989,119.802 78.989,120.375 78.957 C 120.948 78.924,120.479 78.898,119.333 78.898 C 118.188 78.898,117.719 78.924,118.292 78.957 M85.788 85.287 C 85.168 85.523,84.696 85.752,84.741 85.797 C 84.835 85.891,86.838 85.185,87.075 84.974 C 87.331 84.746,87.004 84.826,85.788 85.287 M87.583 85.985 C 87.033 86.239,85.608 86.807,84.417 87.249 C 83.225 87.691,82.144 88.149,82.014 88.268 C 81.885 88.386,82.222 88.311,82.764 88.100 C 86.486 86.652,87.352 86.305,88.167 85.935 C 88.671 85.706,88.971 85.520,88.833 85.522 C 88.696 85.523,88.133 85.732,87.583 85.985 M83.333 86.149 C 82.921 86.313,82.441 86.498,82.268 86.561 C 82.094 86.623,81.986 86.708,82.027 86.749 C 82.109 86.831,84.289 86.100,84.453 85.936 C 84.645 85.744,84.085 85.851,83.333 86.149 M81.276 87.138 C 80.857 87.601,81.186 88.703,81.615 88.274 C 81.674 88.215,81.635 88.167,81.528 88.167 C 81.224 88.167,81.300 87.312,81.625 87.065 C 81.785 86.944,81.835 86.842,81.734 86.839 C 81.634 86.836,81.428 86.970,81.276 87.138 M177.699 91.125 C 178.018 91.497,178.294 92.626,178.393 93.971 C 178.436 94.550,178.580 95.150,178.714 95.304 C 179.197 95.859,179.386 96.364,179.162 96.503 C 179.021 96.590,179.081 96.668,179.353 96.751 C 179.905 96.919,180.500 97.498,180.500 97.868 C 180.500 98.263,180.044 98.441,179.654 98.198 C 179.406 98.043,179.334 98.068,179.249 98.338 C 179.120 98.743,178.574 98.769,178.356 98.380 C 178.211 98.120,178.165 98.132,177.862 98.505 C 177.679 98.731,177.561 98.949,177.599 98.988 C 177.638 99.027,177.787 98.914,177.929 98.738 C 178.113 98.510,178.213 98.477,178.274 98.625 C 178.378 98.873,179.103 98.904,179.250 98.667 C 179.307 98.575,179.530 98.500,179.746 98.500 C 180.834 98.500,180.990 97.818,180.083 97.022 C 179.330 96.361,179.322 96.395,180.542 95.146 C 182.486 93.155,186.167 92.194,186.167 93.677 C 186.167 94.082,186.016 94.156,184.793 94.352 C 183.757 94.518,182.333 95.102,182.333 95.361 C 182.333 95.435,182.598 95.606,182.921 95.741 C 184.923 96.578,184.852 101.000,182.837 101.000 C 182.267 101.000,182.133 101.066,182.000 101.417 C 181.674 102.275,179.500 101.133,179.500 100.104 C 179.500 100.003,179.228 100.333,178.895 100.836 C 177.384 103.119,175.833 103.746,175.833 102.075 C 175.833 101.517,176.841 99.371,177.215 99.134 C 177.346 99.050,177.294 99.004,177.064 99.003 C 176.844 99.001,176.541 98.754,176.256 98.342 C 175.852 97.760,175.712 97.678,175.042 97.633 C 172.873 97.490,174.109 96.042,176.425 96.013 C 176.980 96.006,177.515 95.918,177.615 95.818 C 177.850 95.584,178.500 95.906,178.500 96.256 C 178.500 96.390,178.573 96.500,178.663 96.500 C 178.763 96.500,178.753 96.339,178.638 96.087 C 178.433 95.637,177.954 95.406,177.636 95.602 C 177.527 95.670,176.973 95.749,176.407 95.779 L 175.378 95.832 174.607 95.008 C 172.518 92.775,173.419 91.184,175.843 92.825 C 176.879 93.528,177.129 93.298,176.662 92.072 C 176.340 91.225,177.150 90.486,177.699 91.125 M267.750 96.149 C 266.376 96.497,264.373 98.249,262.474 100.765 C 261.670 101.830,260.865 104.229,259.653 109.167 C 258.636 113.312,258.144 130.143,258.425 151.125 L 258.540 159.667 264.527 159.667 L 270.515 159.667 270.491 134.700 C 270.465 107.039,270.370 109.422,271.572 107.611 C 273.451 104.780,276.764 102.835,279.709 102.833 C 282.128 102.831,283.507 103.795,285.189 106.667 C 287.608 110.795,288.456 112.302,288.704 112.917 C 290.559 117.518,291.302 120.125,292.082 124.774 C 292.910 129.710,294.500 134.173,296.062 135.947 C 298.133 138.300,302.076 137.863,303.542 135.118 C 304.090 134.092,304.078 129.996,303.521 127.667 C 302.847 124.855,302.691 124.047,302.580 122.804 C 302.239 118.981,301.390 117.053,295.963 107.770 C 293.065 102.813,287.006 97.967,282.042 96.637 L 280.083 96.112 274.167 96.067 C 270.912 96.043,268.025 96.080,267.750 96.149 M181.426 97.658 C 180.665 98.436,180.747 98.645,182.097 99.357 C 183.179 99.927,183.349 99.499,182.768 97.669 C 182.516 96.875,182.192 96.872,181.426 97.658 M214.833 107.833 C 215.375 108.110,215.816 108.167,217.407 108.167 C 220.130 108.167,221.282 108.698,220.809 109.737 C 220.396 110.644,219.021 110.807,218.145 110.052 C 217.542 109.533,215.276 109.687,215.055 110.263 C 214.947 110.545,215.448 111.774,215.607 111.616 C 215.658 111.565,215.568 111.301,215.408 111.030 C 214.922 110.207,215.146 110.000,216.523 110.000 C 217.360 110.000,217.808 110.076,218.002 110.252 C 218.155 110.390,218.677 110.597,219.163 110.710 C 220.088 110.927,220.591 111.402,220.406 111.884 C 220.165 112.513,217.117 112.667,216.243 112.094 C 215.683 111.727,215.505 111.779,215.977 112.172 C 216.193 112.352,216.568 112.506,216.810 112.514 L 217.250 112.527 216.730 112.755 C 216.444 112.881,216.170 113.135,216.122 113.321 C 215.995 113.805,215.236 114.124,214.823 113.866 C 214.648 113.756,214.245 113.667,213.928 113.667 C 212.307 113.667,211.690 111.344,212.892 109.767 C 213.209 109.352,213.310 109.032,213.290 108.512 C 213.248 107.462,213.708 107.259,214.833 107.833 M77.302 109.987 C 72.552 111.269,68.289 117.317,67.240 124.263 C 66.470 129.357,67.704 132.375,70.273 131.683 C 72.137 131.181,73.340 129.476,74.691 125.424 C 75.648 122.551,77.147 119.875,77.684 120.081 C 78.274 120.307,78.378 121.264,78.502 127.583 C 78.568 130.975,78.705 134.387,78.807 135.167 C 78.909 135.946,79.073 137.408,79.172 138.417 C 79.271 139.425,79.496 141.675,79.671 143.417 C 79.847 145.158,79.993 147.340,79.995 148.265 C 79.998 149.190,80.079 150.540,80.176 151.265 C 80.273 151.990,80.404 154.008,80.468 155.750 L 80.583 158.917 84.500 158.917 L 88.417 158.917 88.550 151.667 C 88.683 144.435,88.807 132.379,88.879 119.750 C 88.916 113.273,88.907 113.064,88.568 112.417 C 87.434 110.247,81.268 108.917,77.302 109.987 M214.024 110.651 C 213.856 110.755,213.848 110.823,213.993 110.913 C 214.222 111.054,214.394 110.929,214.309 110.682 C 214.274 110.582,214.157 110.569,214.024 110.651 " stroke="none" fill="#3f47cc" fill-rule="evenodd"></path></g></svg>