<?xml version="1.0" encoding="UTF-8" standalone="no"?>
<!-- Created with Inkscape (http://www.inkscape.org/) -->

<svg
   xmlns:dc="http://purl.org/dc/elements/1.1/"
   xmlns:cc="http://creativecommons.org/ns#"
   xmlns:rdf="http://www.w3.org/1999/02/22-rdf-syntax-ns#"
   xmlns:svg="http://www.w3.org/2000/svg"
   xmlns="http://www.w3.org/2000/svg"
   xmlns:sodipodi="http://sodipodi.sourceforge.net/DTD/sodipodi-0.dtd"
   xmlns:inkscape="http://www.inkscape.org/namespaces/inkscape"
   version="1.1"
   id="svg21"
   width="178.49675"
   height="229.85458"
   viewBox="0 0 537.87021 722.56849"
   sodipodi:docname="no-friends-sad.svg"
   inkscape:version="0.92.3 (2405546, 2018-03-11)">
  <metadata
     id="metadata27">
    <rdf:RDF>
      <cc:Work
         rdf:about="">
        <dc:format>image/svg+xml</dc:format>
        <dc:type
           rdf:resource="http://purl.org/dc/dcmitype/StillImage" />
        <dc:title />
      </cc:Work>
    </rdf:RDF>
  </metadata>
  <defs
     id="defs25" />
  <sodipodi:namedview
     pagecolor="#ffffff"
     bordercolor="#666666"
     borderopacity="1"
     objecttolerance="10"
     gridtolerance="10"
     guidetolerance="10"
     inkscape:pageopacity="0"
     inkscape:pageshadow="2"
     inkscape:window-width="1920"
     inkscape:window-height="1001"
     id="namedview23"
     showgrid="false"
     inkscape:zoom="1.6333821"
     inkscape:cx="226.65007"
     inkscape:cy="128.10606"
     inkscape:window-x="-9"
     inkscape:window-y="-9"
     inkscape:window-maximized="1"
     inkscape:current-layer="svg21" />
  <g
     id="g81"
     transform="translate(-160.31228,-94.764823)">
    <rect
       style="fill:#ffffff;stroke-width:3.14358974"
       id="rect17"
       width="143.91414"
       height="85.736076"
       x="310.81766"
       y="220.58299" />
    <path
       style="fill:#c83737;fill-opacity:1;stroke-width:1.33333337"
       d="m 367.09873,784.33331 c 0.43942,-18.15 1.39583,-35.7 2.12536,-39 0.76812,-3.47448 1.35088,-31.75406 1.38451,-67.18521 0.0515,-54.27293 -0.23141,-62.93418 -2.50436,-76.66666 -1.40933,-8.5148 -3.85216,-25.38146 -5.42851,-37.48146 -1.57636,-12.1 -4.02596,-27.4 -5.44358,-34 -4.19687,-19.5393 -5.20968,-28.40681 -5.25388,-45.99999 -0.0231,-9.16667 -0.72411,-19.06667 -1.55794,-22 -0.97878,-3.44334 -1.7944,-27.6217 -2.30152,-68.22803 L 347.33333,330.87728 344,327.31195 c -5.81699,-6.22184 -9.46365,-7.31196 -24.46,-7.31196 -17.46001,0 -28.16175,3.0488 -39.07935,11.13327 -9.17926,6.79724 -33.28902,29.43185 -35.24709,33.09052 -1.31323,2.4538 -0.70743,7.98947 6.11265,18.6441 1.52121,2.37652 1.56678,2.61849 0.22904,3.95624 -2.46387,2.46387 -2.6764,0.89566 -7.37136,-7.14585 -2.2,-3.76816 -5.30937,-6.27587 -5.87016,-6.30039 -0.56077,-0.0245 -2.18041,1.86426 -3.5992,4.19726 -2.45425,4.03569 -2.46949,4.43277 -0.31373,8.17117 1.24623,2.16115 3.28487,7.10004 6.40153,9.72787 5.89447,4.96992 6.95841,4.79157 3.62893,6.0692 -2.40308,0.92214 -6.96619,-2.87502 -12.02131,-8.81841 -2.07567,-2.4404 -5.13739,-3.09945 -5.76424,-2.71202 -0.62686,0.38741 -2.30208,3.84299 -3.72274,7.67905 -5.06141,13.66699 -6.34501,13.51425 8.9471,19.91647 16.16902,6.76933 17.19913,4.99317 14.73951,7.95682 -0.94346,1.13681 -1.92626,1.04625 -2.7038,1.04625 -0.77752,0 -6.38754,-1.25841 -14.02608,-4.66768 -15.7941,-7.04933 -14.57357,-6.36967 -20.07667,8.05613 -1.95826,5.13333 -5.03891,12.93333 -6.84591,17.33333 -1.807,4.4 -5.22619,13.5584 -7.5982,20.35201 -4.19001,12.00046 -7.57259,17.6499 -10.56557,17.64618 -0.93018,-10e-4 -2.90669,2.26202 -2.62507,6.77374 0.51052,8.17884 -0.0845,9.58673 -4.3612,6.91591 -1.87588,-1.17152 -4.35243,-0.0908 -6.14961,2.00812 -3.2557,3.80237 -2.7533,2.80932 -4.91034,-3.30305 -2.24621,-6.36504 -3.84248,-8.2199 0.47207,-13.34744 l 3.21997,-3.82672 -2.76904,-7.94271 c -3.70488,-10.62708 -3.45973,-26.37113 0.78803,-50.60937 1.79924,-10.26667 3.18221,-18.74951 3.07327,-18.85077 -0.40955,-0.38062 -19.81129,1.08883 -23.31029,1.92697 -4.57908,1.09685 -6.2855,-1.38568 -2.60578,-4.07635 2.32576,-1.70064 13.29283,-4.75478 22.63553,-5.3521 4.79962,-0.30687 4.96324,-0.49556 6.82255,-7.86771 l 1.905,-7.55328 -5.60347,-2.13999 c -8.06498,-3.08005 -17.50525,-9.36196 -20.16188,-13.41648 -2.10144,-3.20721 -2.1143,-3.67384 -0.1554,-5.63276 1.95892,-1.9589 2.46392,-1.78465 6.096,2.1035 3.4549,3.69848 14.58375,9.87394 20.01802,11.10812 1.24025,0.28168 2.81368,-2.71767 4.836,-9.21856 l 2.99762,-9.63608 -5.836,-3.42014 c -9.68066,-5.67324 -6.23514,-11.60453 3.54731,-6.10649 l 5.16576,2.90332 3.49157,-11.71893 c 1.92038,-6.44542 3.82999,-12.91894 4.24359,-14.3856 1.95051,-6.91663 11.63016,-27.00196 16.393,-34.01555 2.92077,-4.30102 14.16325,-16.72589 24.98331,-27.6108 10.82004,-10.88492 24.61488,-24.98762 30.65521,-31.33937 13.54869,-14.24724 19.05693,-18.08432 38.78835,-27.02024 21.00074,-9.51079 25.10413,-10.76664 43.4836,-13.30835 11.97973,-1.65668 20.24776,-3.81468 33.95718,-8.863 9.96699,-3.67021 23.92023,-8.39777 31.00722,-10.50569 21.93904,-6.52542 27.66044,-10.69233 33.82302,-24.63333 7.93587,-17.95253 26.76438,-41.13053 36.9861,-45.530122 4.81824,-2.073844 10.37248,-2.496785 38.16848,-2.906437 27.82022,-0.41001 33.36452,-0.16059 38.29616,1.722818 6.1955,2.36609 15.72516,11.925121 21.19736,21.262741 3.38114,5.76949 7.25742,20.01793 7.29041,26.79815 0.0284,5.85221 -5.27079,15.4563 -10.41349,18.87284 -7.63147,5.06994 -24.00328,8.89097 -47.24314,11.02612 -16.27658,1.49539 -25.8955,4.90518 -31.0211,10.99662 -8.40008,9.98292 -1.20838,20.55643 24.22934,35.62287 22.48811,13.31942 52.56632,34.04186 58.59332,40.36796 7.26151,7.62186 13.25298,17.84674 16.0052,27.31409 4.72003,16.23633 0.15687,69.44661 -7.42966,86.63622 -6.02831,13.65895 -22.87168,14.78778 -41.5671,2.78576 -11.99618,-7.70125 -25.33286,-19.93541 -30.61292,-28.08217 -5.39189,-8.31935 -11.90289,-26.33844 -15.13197,-41.87749 -1.09945,-5.29083 -3.14156,-12.87046 -4.53801,-16.84361 -2.94679,-8.38415 -11.85052,-22.03195 -17.03298,-26.10848 -10.87365,-8.55322 -20.56524,-2.90624 -18.75906,10.93028 0.45184,3.4613 6.9596,18.00814 16.83954,37.6415 9.1938,18.26984 18.35496,38.61088 21.35135,47.40757 7.43773,21.83544 13.24797,33.92692 23.91255,49.7636 11.31025,16.79549 20.22856,34.25072 24.03965,47.05124 4.24069,14.2434 10.47916,56.79817 11.98848,81.77758 1.87495,31.03072 2.29636,108.79477 0.92283,170.29255 l -1.16795,52.29254 3.86075,1.70745 c 2.57821,1.14024 10.5047,1.70746 23.86074,1.70746 h 20 l 6,-4.14583 c 3.3,-2.28021 7.95051,-5.14588 10.33447,-6.36817 2.38396,-1.22228 9.28396,-6.87603 15.33333,-12.56388 6.04938,-5.68787 15.05844,-13.23169 20.02015,-16.76407 10.32844,-7.3531 13.47603,-12.04106 20.83063,-31.0248 4.09182,-10.56185 5.25402,-15.6133 5.93586,-25.79992 0.46631,-6.96666 1.73999,-15.56272 2.83039,-19.10233 1.39597,-4.53153 2.22661,-15.97196 2.80744,-38.66666 1.03673,-40.50878 -0.79635,-52.05027 -11.77577,-74.14346 -3.81191,-7.67044 -8.35332,-15.63691 -10.09204,-17.70326 -5.3489,-6.3568 -0.8703,-10.83635 4.71662,-4.71761 3.0859,3.37964 13.7292,21.90317 16.77851,29.20118 4.78645,11.45561 6.95,27.84648 6.83727,51.79881 -0.17988,38.21816 -0.60712,46.93003 -2.71363,55.33333 -1.10296,4.4 -2.50347,14 -3.11221,21.33334 -0.92164,11.10249 -2.06211,15.6757 -6.8164,27.33333 -7.6547,18.76947 -10.48314,22.71044 -23.12751,32.22455 -5.93291,4.46416 -14.98711,12.1803 -20.12044,17.14702 -5.13333,4.96671 -12.63333,10.93383 -16.66667,13.26027 -4.03333,2.32642 -9.43333,5.53598 -12,7.13234 -4.25216,2.64468 -6.44309,2.90248 -24.66666,2.90248 -11,0 -22.25,-0.51677 -25,-1.14838 l -5,-1.14839 v 23.48172 23.48172 h -98.18344 -98.18344 z m 72.48244,-503.8317 c 0.49996,-1.30291 1.68404,-3.1978 0.35646,-3.94073 -2.76096,-1.54512 -3.53251,-4.09466 -0.83839,-5.12849 2.93916,-1.12787 3.05778,3.1435 3.76869,6.11259 1.90146,2.30111 0.12219,-0.0759 3.34372,-0.44468 5.17302,-0.59213 5.42927,-4.58776 0.6601,-10.29243 -3.52966,-4.22202 -1.81905,0.82205 -9.62712,0.69032 -7.68133,-0.1296 -11.12596,-5.1918 -13.70894,-1.77042 -2.59272,3.4343 -2.65681,4.0083 -0.81409,7.29133 1.20204,2.1416 3.85131,4.0786 6.63928,4.85428 2.55152,0.70991 5.11893,2.0788 5.70537,3.042 1.4548,2.38945 3.51155,2.20096 4.51492,-0.41377 z M 339.17213,238.69453 c 0.74866,-0.74866 2.59687,-1.3612 4.10714,-1.3612 4.16442,0 6.27714,-4.29546 4.54984,-9.25046 -1.59662,-4.58001 -4.5895,-5.22406 -10.29006,-2.21438 -1.94648,1.02766 -6.08068,2.54924 -9.1871,3.38128 -3.10643,0.83202 -7.23068,2.8741 -9.165,4.53793 -3.40195,2.92623 -3.43755,3.10456 -1.08851,5.4536 2.04397,2.04396 3.79665,2.30067 11.07047,1.62144 4.75312,-0.44385 9.25456,-1.41955 10.00322,-2.16821 z"
       id="path87"
       class="fav-fill"
       inkscape:connector-curvature="0"
       sodipodi:nodetypes="scssssccsccsscccsccccssccscsccsscsccsccssccccscsccscsccscccscsssssssscscsscsscssccsscssssssccscscsssssscsccsccsccccsccccccscccccsccccccsscccscss" />
    <path
       style="fill:#333333;fill-opacity:1;stroke-width:1.33333337"
       d="m 166.09765,501.12847 c -3.56974,-7.15574 -3.82717,-13.56201 1.72729,-18.95644 5.26028,-5.10872 11.54838,-5.99872 13.69638,-3.85072 0.72933,0.72933 1.43541,5.92364 1.56904,11.54288 0.18629,7.83324 -0.22363,10.50718 -1.75703,11.46142 -1.3496,0.83987 -2.60865,0.63615 -3.87162,-0.62642 -1.6064,-1.60588 -2.23419,-1.4101 -4.43011,1.38156 -3.34473,4.25213 -4.41067,4.10574 -6.93395,-0.95228 z m 58.56902,-80.08626 c -16.84846,-8.20925 -20.37532,-11.79434 -20.96924,-17.1089 -0.47368,-4.23861 4.9079,-5.52785 5.9789,-1.43233 0.9296,3.55476 11.49299,9.22859 26.52301,15.30283 9.25408,3.73993 13.1996,5.66656 13.1996,7.47549 0,4.29505 -7.98381,3.92343 -24.73227,-4.23709 z M 141.45473,404.8952 c -0.3766,-0.9814 -0.96639,-3.27527 -0.52198,-3.99439 0.90276,-1.46067 12.98506,-4.61233 24.59862,-5.79205 6.91876,-0.70281 7.80194,1.1153 7.80194,3.4036 0,3.01292 -1.80907,5.74336 -8.44415,5.77161 -2.69001,0.012 -8.26418,0.78161 -12.5359,1.78668 -6.47453,1.52336 -9.98338,0.98167 -10.55418,-0.50578 z m 97.77898,-3.68204 c -9.22069,-6.29594 -15.49647,-18.13662 -12.71488,-22.40746 1.81166,-2.78162 4.99789,-0.88875 5.87352,3.48933 0.44917,2.24588 4.31162,6.52237 8.65216,10.82843 5.97521,5.92774 6.67474,8.11634 5.24029,9.30684 -1.35855,1.12748 -3.57405,1.15701 -7.05109,-1.21714 z m 7.3085,-15.03617 c -6.30817,-9.07979 -9.53445,-18.03164 -8.66037,-21.51423 1.15877,-4.61693 5.29597,-3.9804 5.86245,0.90199 0.22603,1.94807 3.48181,7.34293 6.29945,11.9886 3.68127,6.06957 4.48399,9.08579 3.50395,10.28342 -2.02087,2.4695 -4.18048,2.40642 -7.00548,-1.65978 z m -65.80842,-3.40172 c -0.4163,-0.6736 -6.21737,-1.7266 -12.26753,-4.65504 -12.3736,-5.98917 -20.04156,-13.06975 -20.04156,-17.1019 0,-3.06659 6.43697,-4.88097 8.07261,-2.12365 1.68976,2.84858 10.42646,9.56296 18.71331,12.71542 8.42372,3.20455 12.18935,7.2224 10.99294,10.34022 -0.86337,2.24992 -4.27141,2.76392 -5.46977,0.82495 z m 14.4736,-23.44032 c -2.13074,-1.83244 -5.86819,-2.45108 -6.54786,-2.45197 -2.30377,-0.003 -18.22669,-11.55215 -17.25264,-14.45323 1.159,-3.45196 6.70814,-2.34491 17.82301,3.74519 11.50275,6.3026 14.29457,10.99981 12.91462,14.5959 -1.02865,2.6806 -2.50615,2.37479 -6.93713,-1.43589 z m 242.12594,-86.00162 c 0,-2.0082 0.6962,-2.72812 2.33334,-2.41284 1.28333,0.24714 2.33333,1.33292 2.33333,2.41284 0,1.07992 -1.05,2.16569 -2.33333,2.41284 -1.63714,0.31528 -2.33334,-0.40464 -2.33334,-2.41284 z m -112,-37.33334 c 0,-2.0082 0.6962,-2.72812 2.33334,-2.41284 1.28333,0.24715 2.33333,1.33292 2.33333,2.41284 0,1.07992 -1.05,2.1657 -2.33333,2.41284 -1.63714,0.31528 -2.33334,-0.40464 -2.33334,-2.41284 z"
       id="path83"
       inkscape:connector-curvature="0"
       sodipodi:nodetypes="csscccscssccssccsscscccscscccccccccssccscccscccscscsscscs" />
  </g>
</svg>
