<svg id="svg" version="1.1" width="200" height="180" viewBox="0 0 400 429.81366459627327" xmlns="http://www.w3.org/2000/svg" xmlns:xlink="http://www.w3.org/1999/xlink" ><g id="svgg"><path id="path0" d="M155.467 185.867 C 154.522 186.812,155.232 188.400,156.600 188.400 C 157.933 188.400,158.000 188.333,158.000 187.000 C 158.000 185.632,156.412 184.922,155.467 185.867 M259.230 187.145 C 258.316 188.851,261.098 189.989,262.136 188.334 C 262.438 187.852,262.408 187.491,262.028 187.034 C 261.312 186.171,259.717 186.234,259.230 187.145 M335.740 248.400 C 335.740 250.270,335.809 251.035,335.893 250.100 C 335.977 249.165,335.977 247.635,335.893 246.700 C 335.809 245.765,335.740 246.530,335.740 248.400 M335.714 267.000 C 335.717 268.100,335.795 268.503,335.887 267.895 C 335.979 267.286,335.977 266.386,335.882 265.895 C 335.787 265.403,335.711 265.900,335.714 267.000 M138.489 266.623 C 137.518 267.303,137.306 268.869,138.100 269.499 C 138.375 269.718,142.470 270.206,147.200 270.583 C 155.678 271.259,158.522 271.523,166.800 272.398 C 187.382 274.575,192.131 275.017,201.000 275.583 C 204.300 275.793,207.900 276.058,209.000 276.170 C 210.100 276.282,214.060 276.564,217.800 276.796 C 221.540 277.029,226.310 277.392,228.400 277.604 C 246.642 279.451,260.857 280.351,276.600 280.657 C 290.597 280.929,291.437 280.827,292.580 278.722 L 293.360 277.286 292.260 275.843 C 291.167 274.410,291.137 274.400,288.080 274.379 C 283.077 274.345,267.413 273.654,261.800 273.220 C 258.940 272.998,254.260 272.635,251.400 272.412 C 239.415 271.478,228.867 270.900,207.400 270.003 C 194.748 269.474,184.158 268.896,178.000 268.399 C 147.625 265.948,139.945 265.603,138.489 266.623 " stroke="none" fill="#000004" fill-rule="evenodd"></path><path class="fav-fill" id="path1" d="M207.600 17.600 C 207.600 17.820,206.711 18.000,205.624 18.000 C 204.537 18.000,203.536 18.180,203.400 18.400 C 203.264 18.620,202.803 18.800,202.376 18.800 C 201.949 18.800,201.600 18.980,201.600 19.200 C 201.600 19.420,201.280 19.600,200.888 19.600 C 200.497 19.600,199.917 19.960,199.600 20.400 C 199.283 20.840,198.800 21.200,198.526 21.200 C 197.824 21.200,191.600 27.355,191.600 28.050 C 191.600 28.365,191.240 28.883,190.800 29.200 C 190.360 29.517,190.000 30.025,190.000 30.328 C 190.000 30.631,189.460 31.383,188.800 32.000 C 188.140 32.617,187.600 33.337,187.600 33.600 C 187.600 33.863,187.060 34.583,186.400 35.200 C 185.740 35.817,185.200 36.569,185.200 36.872 C 185.200 37.175,184.840 37.683,184.400 38.000 C 183.960 38.317,183.600 38.807,183.600 39.088 C 183.600 39.370,183.420 39.600,183.200 39.600 C 182.980 39.600,182.800 39.960,182.800 40.400 C 182.800 40.840,182.620 41.200,182.400 41.200 C 182.180 41.200,182.000 41.560,182.000 42.000 C 182.000 42.440,181.820 42.800,181.600 42.800 C 181.380 42.800,181.200 43.321,181.200 43.957 C 181.200 44.617,180.942 45.213,180.600 45.345 C 179.698 45.691,179.698 63.200,180.600 63.200 C 181.019 63.200,181.200 63.622,181.200 64.600 C 181.200 65.370,181.380 66.000,181.600 66.000 C 181.820 66.000,182.000 66.360,182.000 66.800 C 182.000 67.240,182.180 67.600,182.400 67.600 C 182.620 67.600,182.800 67.883,182.800 68.229 C 182.800 69.037,183.763 70.000,184.571 70.000 C 184.917 70.000,185.200 70.180,185.200 70.400 C 185.200 70.620,185.560 70.800,186.000 70.800 C 186.440 70.800,186.800 70.980,186.800 71.200 C 186.800 71.420,187.340 71.600,188.000 71.600 C 188.660 71.600,189.200 71.780,189.200 72.000 C 189.200 72.220,189.920 72.400,190.800 72.400 C 191.680 72.400,192.400 72.580,192.400 72.800 C 192.400 73.020,192.670 73.200,193.000 73.200 C 193.330 73.200,193.600 73.380,193.600 73.600 C 193.600 73.820,193.358 74.000,193.061 74.000 C 192.154 74.000,189.984 75.237,189.482 76.040 C 189.221 76.458,188.691 76.800,188.304 76.800 C 187.917 76.800,187.600 76.980,187.600 77.200 C 187.600 77.420,187.312 77.600,186.960 77.600 C 186.609 77.600,185.817 78.140,185.200 78.800 C 184.583 79.460,183.831 80.000,183.528 80.000 C 183.225 80.000,182.717 80.360,182.400 80.800 C 182.083 81.240,181.503 81.600,181.112 81.600 C 180.720 81.600,180.400 81.780,180.400 82.000 C 180.400 82.220,180.202 82.400,179.960 82.400 C 179.719 82.400,179.017 82.940,178.400 83.600 C 177.783 84.260,177.063 84.800,176.800 84.800 C 176.537 84.800,175.817 85.340,175.200 86.000 C 174.583 86.660,173.944 87.200,173.779 87.200 C 173.615 87.200,172.715 88.010,171.780 89.000 C 170.844 89.990,169.813 90.800,169.488 90.800 C 169.163 90.800,168.155 91.520,167.248 92.400 C 166.341 93.280,165.405 94.000,165.168 94.000 C 164.931 94.000,164.046 94.720,163.200 95.600 C 162.354 96.480,161.463 97.200,161.218 97.200 C 160.657 97.200,158.000 99.831,158.000 100.387 C 158.000 100.614,157.640 100.800,157.200 100.800 C 156.760 100.800,156.400 100.980,156.400 101.200 C 156.400 101.420,156.206 101.600,155.969 101.600 C 155.731 101.600,154.846 102.320,154.000 103.200 C 153.154 104.080,152.254 104.800,152.000 104.800 C 151.746 104.800,150.846 105.520,150.000 106.400 C 149.154 107.280,148.242 108.000,147.973 108.000 C 147.703 108.000,146.019 109.485,144.230 111.300 C 142.440 113.115,140.487 114.855,139.888 115.168 C 139.290 115.480,138.800 116.065,138.800 116.468 C 138.800 116.870,138.521 117.200,138.181 117.200 C 137.467 117.200,128.000 126.473,128.000 127.173 C 128.000 127.429,126.740 128.881,125.200 130.400 C 123.660 131.919,122.400 133.336,122.400 133.549 C 122.400 133.762,121.590 134.747,120.600 135.737 C 119.610 136.727,118.800 137.745,118.800 138.000 C 118.800 138.254,118.080 139.154,117.200 140.000 C 116.320 140.846,115.600 141.746,115.600 142.000 C 115.600 142.254,114.880 143.154,114.000 144.000 C 113.120 144.846,112.400 145.776,112.400 146.069 C 112.399 146.663,110.678 148.800,110.200 148.800 C 109.822 148.800,108.001 150.881,108.000 151.314 C 108.000 151.487,106.200 153.415,104.000 155.600 C 101.800 157.785,100.000 159.681,100.000 159.815 C 100.000 160.104,98.941 161.200,98.662 161.200 C 98.243 161.200,93.200 166.390,93.200 166.822 C 93.200 167.073,92.660 167.783,92.000 168.400 C 91.340 169.017,90.800 169.775,90.800 170.085 C 90.800 170.395,90.440 171.036,90.000 171.508 C 89.560 171.980,89.200 172.604,89.200 172.895 C 89.200 173.186,88.840 173.683,88.400 174.000 C 87.960 174.317,87.600 174.897,87.600 175.288 C 87.600 175.680,87.330 176.000,87.000 176.000 C 86.667 176.000,86.400 176.356,86.400 176.800 C 86.400 177.240,86.220 177.600,86.000 177.600 C 85.780 177.600,85.600 177.938,85.600 178.351 C 85.600 178.764,85.339 179.319,85.019 179.584 C 84.339 180.149,82.400 183.920,82.400 184.679 C 82.400 184.965,82.220 185.200,82.000 185.200 C 81.780 185.200,81.600 185.740,81.600 186.400 C 81.600 187.060,81.420 187.600,81.200 187.600 C 80.980 187.600,80.800 188.140,80.800 188.800 C 80.800 189.460,80.620 190.000,80.400 190.000 C 80.180 190.000,80.000 190.720,80.000 191.600 C 80.000 192.480,79.820 193.200,79.600 193.200 C 79.341 193.200,79.200 198.267,79.200 207.600 C 79.200 216.933,79.341 222.000,79.600 222.000 C 79.839 222.000,80.000 223.533,80.000 225.800 C 80.000 228.067,80.161 229.600,80.400 229.600 C 80.645 229.600,80.800 231.525,80.800 234.576 C 80.800 237.463,80.632 239.657,80.400 239.800 C 80.180 239.936,80.000 241.297,80.000 242.824 C 80.000 244.408,79.828 245.600,79.600 245.600 C 79.380 245.600,79.200 246.140,79.200 246.800 C 79.200 247.460,79.020 248.000,78.800 248.000 C 78.580 248.000,78.400 248.360,78.400 248.800 C 78.400 249.240,78.220 249.600,78.000 249.600 C 77.780 249.600,77.600 249.960,77.600 250.400 C 77.600 250.840,77.420 251.200,77.200 251.200 C 76.980 251.200,76.800 251.639,76.800 252.176 C 76.800 252.713,76.620 253.264,76.400 253.400 C 76.180 253.536,76.000 254.087,76.000 254.624 C 76.000 255.161,75.820 255.600,75.600 255.600 C 75.380 255.600,75.200 256.063,75.200 256.629 C 75.200 257.194,74.930 257.927,74.600 258.257 C 74.270 258.587,74.000 259.374,74.000 260.005 C 74.000 260.636,73.820 261.264,73.600 261.400 C 73.380 261.536,73.200 262.616,73.200 263.800 C 73.200 264.984,73.020 266.064,72.800 266.200 C 72.580 266.336,72.400 267.236,72.400 268.200 C 72.400 269.164,72.220 270.064,72.000 270.200 C 71.780 270.336,71.600 271.157,71.600 272.024 C 71.600 272.891,71.420 273.600,71.200 273.600 C 70.980 273.600,70.800 274.320,70.800 275.200 C 70.800 276.080,70.620 276.800,70.400 276.800 C 70.180 276.800,70.000 277.790,70.000 279.000 C 70.000 280.210,69.820 281.200,69.600 281.200 C 69.380 281.200,69.200 281.920,69.200 282.800 C 69.200 283.680,69.020 284.400,68.800 284.400 C 68.580 284.400,68.400 284.940,68.400 285.600 C 68.400 286.260,68.220 286.800,68.000 286.800 C 67.780 286.800,67.600 287.509,67.600 288.376 C 67.600 289.243,67.420 290.064,67.200 290.200 C 66.980 290.336,66.800 291.157,66.800 292.024 C 66.800 292.891,66.620 293.600,66.400 293.600 C 66.180 293.600,66.000 294.320,66.000 295.200 C 66.000 296.080,65.820 296.800,65.600 296.800 C 65.380 296.800,65.200 297.700,65.200 298.800 C 65.200 299.900,65.020 300.800,64.800 300.800 C 64.580 300.800,64.400 301.610,64.400 302.600 C 64.400 303.590,64.220 304.400,64.000 304.400 C 63.780 304.400,63.600 304.940,63.600 305.600 C 63.600 306.260,63.419 306.800,63.197 306.800 C 62.975 306.800,62.505 307.520,62.153 308.400 C 61.801 309.280,61.353 310.000,61.157 310.000 C 60.960 310.000,60.800 310.358,60.800 310.797 C 60.800 311.235,60.440 311.818,60.000 312.093 C 59.560 312.368,59.200 312.909,59.200 313.296 C 59.200 313.683,59.020 314.000,58.800 314.000 C 58.580 314.000,58.400 314.270,58.400 314.600 C 58.400 314.930,58.220 315.200,58.000 315.200 C 57.780 315.200,57.600 315.476,57.600 315.813 C 57.600 316.824,54.814 319.374,54.287 318.847 C 53.700 318.260,34.400 318.215,34.400 318.800 C 34.400 319.020,33.860 319.200,33.200 319.200 C 32.540 319.200,32.000 319.380,32.000 319.600 C 32.000 319.820,31.724 320.000,31.387 320.000 C 31.049 320.000,30.172 320.585,29.437 321.300 C 28.703 322.015,27.449 323.200,26.651 323.932 C 25.300 325.173,25.197 325.435,25.151 327.732 C 25.051 332.798,25.290 337.804,25.639 337.933 C 25.838 338.007,26.000 338.481,26.000 338.988 C 26.000 340.857,29.933 345.600,31.483 345.600 C 31.767 345.600,32.000 345.780,32.000 346.000 C 32.000 346.220,32.349 346.400,32.776 346.400 C 33.203 346.400,33.664 346.580,33.800 346.800 C 33.936 347.020,34.487 347.200,35.024 347.200 C 35.561 347.200,36.000 347.380,36.000 347.600 C 36.000 347.820,36.360 348.000,36.800 348.000 C 37.240 348.000,37.600 348.180,37.600 348.400 C 37.600 348.620,38.050 348.800,38.600 348.800 C 39.150 348.800,39.600 348.980,39.600 349.200 C 39.600 349.420,40.140 349.600,40.800 349.600 C 41.460 349.600,42.000 349.780,42.000 350.000 C 42.000 350.220,42.360 350.400,42.800 350.400 C 43.240 350.400,43.600 350.580,43.600 350.800 C 43.600 351.020,44.301 351.200,45.157 351.200 C 46.172 351.200,46.795 351.409,46.945 351.800 C 47.114 352.242,47.812 352.400,49.587 352.400 C 50.929 352.400,52.000 352.578,52.000 352.800 C 52.000 353.033,53.325 353.200,55.176 353.200 C 56.923 353.200,58.464 353.380,58.600 353.600 C 58.736 353.820,59.636 354.000,60.600 354.000 C 61.564 354.000,62.464 354.180,62.600 354.400 C 62.736 354.620,63.366 354.800,64.000 354.800 C 64.634 354.800,65.264 354.980,65.400 355.200 C 65.536 355.420,66.627 355.600,67.824 355.600 C 69.021 355.600,70.000 355.780,70.000 356.000 C 70.000 356.252,72.725 356.400,77.376 356.400 C 81.863 356.400,84.850 356.557,85.000 356.800 C 85.136 357.020,86.317 357.200,87.624 357.200 C 88.941 357.200,90.000 357.378,90.000 357.600 C 90.000 357.820,90.720 358.000,91.600 358.000 C 92.480 358.000,93.200 358.180,93.200 358.400 C 93.200 358.620,93.920 358.800,94.800 358.800 C 95.680 358.800,96.400 358.980,96.400 359.200 C 96.400 359.420,97.210 359.600,98.200 359.600 C 99.190 359.600,100.000 359.780,100.000 360.000 C 100.000 360.220,100.900 360.400,102.000 360.400 C 103.100 360.400,104.000 360.580,104.000 360.800 C 104.000 361.035,105.400 361.200,107.400 361.200 C 109.400 361.200,110.800 361.365,110.800 361.600 C 110.800 361.851,113.267 362.000,117.400 362.000 C 121.533 362.000,124.000 362.149,124.000 362.400 C 124.000 362.645,125.933 362.800,129.000 362.800 C 132.067 362.800,134.000 362.955,134.000 363.200 C 134.000 363.431,135.276 363.600,137.029 363.600 C 139.187 363.600,140.229 363.772,140.657 364.200 C 140.987 364.530,141.954 364.800,142.805 364.800 C 143.656 364.800,144.464 364.980,144.600 365.200 C 144.736 365.420,145.557 365.600,146.424 365.600 C 147.291 365.600,148.000 365.780,148.000 366.000 C 148.000 366.220,148.900 366.400,150.000 366.400 C 151.100 366.400,152.000 366.580,152.000 366.800 C 152.000 367.035,153.392 367.200,155.376 367.200 C 157.233 367.200,158.864 367.380,159.000 367.600 C 159.151 367.844,162.204 368.000,166.824 368.000 C 171.608 368.000,174.400 368.147,174.400 368.400 C 174.400 368.620,174.220 368.800,174.000 368.800 C 173.780 368.800,173.600 369.160,173.600 369.600 C 173.600 370.040,173.420 370.400,173.200 370.400 C 172.980 370.400,172.800 370.760,172.800 371.200 C 172.800 371.640,172.620 372.000,172.400 372.000 C 172.180 372.000,172.000 372.360,172.000 372.800 C 172.000 373.240,171.820 373.600,171.600 373.600 C 171.380 373.600,171.200 374.230,171.200 375.000 C 171.200 375.770,171.020 376.400,170.800 376.400 C 170.580 376.400,170.400 377.109,170.400 377.976 C 170.400 378.843,170.220 379.664,170.000 379.800 C 169.457 380.136,169.457 400.264,170.000 400.600 C 170.220 400.736,170.400 401.467,170.400 402.224 C 170.400 402.981,170.580 403.600,170.800 403.600 C 171.020 403.600,171.200 403.920,171.200 404.312 C 171.200 404.703,171.560 405.283,172.000 405.600 C 172.440 405.917,172.800 406.413,172.800 406.702 C 172.800 407.384,175.416 410.000,176.098 410.000 C 176.387 410.000,176.888 410.369,177.212 410.819 C 177.942 411.836,179.816 412.800,181.061 412.800 C 181.578 412.800,182.000 412.980,182.000 413.200 C 182.000 413.714,206.485 413.749,207.020 413.235 C 207.229 413.035,208.390 412.775,209.600 412.659 C 213.392 412.295,214.800 411.942,214.800 411.356 C 214.800 411.005,215.242 410.800,216.000 410.800 C 216.660 410.800,217.200 410.620,217.200 410.400 C 217.200 410.180,217.830 410.000,218.600 410.000 C 219.370 410.000,220.000 409.820,220.000 409.600 C 220.000 409.380,220.360 409.200,220.800 409.200 C 221.240 409.200,221.600 409.020,221.600 408.800 C 221.600 408.580,221.960 408.400,222.400 408.400 C 222.840 408.400,223.200 408.220,223.200 408.000 C 223.200 407.780,223.560 407.600,224.000 407.600 C 224.466 407.600,224.800 407.333,224.800 406.960 C 224.800 406.609,225.340 405.817,226.000 405.200 C 226.660 404.583,227.200 403.791,227.200 403.440 C 227.200 403.088,227.380 402.800,227.600 402.800 C 227.820 402.800,228.000 402.260,228.000 401.600 C 228.000 400.940,228.180 400.400,228.400 400.400 C 228.620 400.400,228.800 399.590,228.800 398.600 C 228.800 397.267,228.956 396.800,229.400 396.800 C 229.832 396.800,230.000 396.358,230.000 395.224 C 230.000 394.357,230.180 393.536,230.400 393.400 C 230.620 393.264,230.800 392.364,230.800 391.400 C 230.800 390.436,230.980 389.536,231.200 389.400 C 231.420 389.264,231.600 388.443,231.600 387.576 C 231.600 386.709,231.780 386.000,232.000 386.000 C 232.220 386.000,232.400 385.280,232.400 384.400 C 232.400 383.520,232.580 382.800,232.800 382.800 C 233.028 382.800,233.200 381.608,233.200 380.024 C 233.200 378.497,233.380 377.136,233.600 377.000 C 233.820 376.864,234.000 375.683,234.000 374.376 L 234.000 372.000 237.000 372.000 C 238.733 372.000,240.000 372.169,240.000 372.400 C 240.000 372.663,251.067 372.800,272.400 372.800 C 293.733 372.800,304.800 372.663,304.800 372.400 C 304.800 372.169,306.067 372.000,307.800 372.000 C 309.533 372.000,310.800 371.831,310.800 371.600 C 310.800 371.380,311.610 371.200,312.600 371.200 C 313.590 371.200,314.400 371.020,314.400 370.800 C 314.400 370.580,315.300 370.400,316.400 370.400 C 317.500 370.400,318.400 370.220,318.400 370.000 C 318.400 369.780,319.300 369.600,320.400 369.600 C 321.500 369.600,322.400 369.420,322.400 369.200 C 322.400 368.980,323.109 368.800,323.976 368.800 C 324.843 368.800,325.664 368.620,325.800 368.400 C 325.936 368.180,326.656 368.000,327.400 368.000 C 328.144 368.000,328.864 367.820,329.000 367.600 C 329.136 367.380,329.766 367.200,330.400 367.200 C 331.034 367.200,331.664 367.020,331.800 366.800 C 331.936 366.580,332.667 366.400,333.424 366.400 C 334.181 366.400,334.800 366.220,334.800 366.000 C 334.800 365.780,335.509 365.600,336.376 365.600 C 337.243 365.600,338.064 365.420,338.200 365.200 C 338.336 364.980,339.252 364.800,340.236 364.800 C 341.457 364.800,342.098 364.610,342.255 364.200 C 342.417 363.780,343.072 363.600,344.443 363.600 C 345.519 363.600,346.400 363.420,346.400 363.200 C 346.400 362.980,347.210 362.800,348.200 362.800 C 349.190 362.800,350.000 362.620,350.000 362.400 C 350.000 362.180,350.540 362.000,351.200 362.000 C 351.860 362.000,352.400 361.820,352.400 361.600 C 352.400 361.380,353.120 361.200,354.000 361.200 C 354.880 361.200,355.600 361.020,355.600 360.800 C 355.600 360.580,355.960 360.400,356.400 360.400 C 356.840 360.400,357.200 360.220,357.200 360.000 C 357.200 359.780,357.729 359.600,358.376 359.600 C 359.023 359.600,359.664 359.420,359.800 359.200 C 359.936 358.980,360.357 358.800,360.735 358.800 C 361.114 358.800,361.683 358.440,362.000 358.000 C 362.317 357.560,362.815 357.200,363.106 357.200 C 363.694 357.200,368.800 352.148,368.800 351.567 C 368.800 351.365,369.166 351.200,369.613 351.200 C 370.059 351.200,370.545 350.885,370.692 350.500 C 370.839 350.115,371.823 348.957,372.879 347.926 C 373.936 346.895,374.800 345.810,374.800 345.514 C 374.800 345.219,375.160 344.717,375.600 344.400 C 376.040 344.083,376.400 343.503,376.400 343.112 C 376.400 342.720,376.580 342.400,376.800 342.400 C 377.020 342.400,377.200 342.040,377.200 341.600 C 377.200 341.160,377.380 340.800,377.600 340.800 C 377.820 340.800,378.000 340.350,378.000 339.800 C 378.000 339.250,378.180 338.800,378.400 338.800 C 378.620 338.800,378.800 338.080,378.800 337.200 C 378.800 336.320,378.980 335.600,379.200 335.600 C 379.448 335.600,379.600 333.400,379.600 329.800 C 379.600 326.200,379.448 324.000,379.200 324.000 C 378.978 324.000,378.800 322.933,378.800 321.600 C 378.800 320.267,378.622 319.200,378.400 319.200 C 378.180 319.200,378.000 318.732,378.000 318.160 C 378.000 317.521,377.538 316.689,376.800 316.000 C 376.140 315.383,375.600 314.766,375.600 314.627 C 375.600 313.658,371.234 310.800,369.754 310.800 C 369.229 310.800,368.800 310.620,368.800 310.400 C 368.800 310.180,368.260 310.000,367.600 310.000 C 366.940 310.000,366.400 309.820,366.400 309.600 C 366.400 309.380,365.691 309.200,364.824 309.200 C 363.957 309.200,363.136 309.020,363.000 308.800 C 362.864 308.580,361.154 308.400,359.200 308.400 C 357.246 308.400,355.536 308.220,355.400 308.000 C 355.264 307.780,353.644 307.600,351.800 307.600 C 349.956 307.600,348.336 307.420,348.200 307.200 C 348.064 306.980,347.423 306.800,346.776 306.800 C 346.129 306.800,345.600 306.620,345.600 306.400 C 345.600 306.180,345.060 306.000,344.400 306.000 C 343.740 306.000,343.200 305.820,343.200 305.600 C 343.200 305.380,342.840 305.200,342.400 305.200 C 341.960 305.200,341.600 305.020,341.600 304.800 C 341.600 304.580,341.324 304.400,340.987 304.400 C 340.651 304.400,340.261 304.085,340.122 303.700 C 339.983 303.315,339.539 302.522,339.135 301.938 C 338.731 301.354,338.400 300.499,338.400 300.038 C 338.400 299.577,338.220 299.200,338.000 299.200 C 337.780 299.200,337.600 298.660,337.600 298.000 C 337.600 297.340,337.420 296.800,337.200 296.800 C 336.980 296.800,336.800 296.080,336.800 295.200 C 336.800 294.320,336.620 293.600,336.400 293.600 C 336.178 293.600,336.000 292.529,336.000 291.187 C 336.000 289.412,335.842 288.714,335.400 288.545 C 334.608 288.241,334.497 272.863,335.281 272.079 C 335.991 271.369,336.009 237.450,335.300 236.740 C 334.954 236.394,334.800 234.722,334.800 231.320 C 334.800 228.307,334.645 226.400,334.400 226.400 C 334.152 226.400,334.000 224.200,334.000 220.600 C 334.000 217.000,333.848 214.800,333.600 214.800 C 333.367 214.800,333.200 213.467,333.200 211.600 C 333.200 209.733,333.033 208.400,332.800 208.400 C 332.567 208.400,332.400 207.075,332.400 205.224 C 332.400 203.477,332.220 201.936,332.000 201.800 C 331.740 201.639,331.600 192.196,331.600 174.776 C 331.600 157.192,331.463 148.000,331.200 148.000 C 330.980 148.000,330.800 147.010,330.800 145.800 C 330.800 144.590,330.620 143.600,330.400 143.600 C 330.180 143.600,330.000 143.060,330.000 142.400 C 330.000 141.740,329.820 141.200,329.600 141.200 C 329.380 141.200,329.200 140.761,329.200 140.224 C 329.200 139.687,329.020 139.136,328.800 139.000 C 328.580 138.864,328.400 138.403,328.400 137.976 C 328.400 137.549,328.220 137.200,328.000 137.200 C 327.780 137.200,327.600 136.851,327.600 136.424 C 327.600 135.997,327.420 135.536,327.200 135.400 C 326.980 135.264,326.800 134.803,326.800 134.376 C 326.800 133.949,326.665 133.599,326.500 133.597 C 326.141 133.593,325.200 131.656,325.200 130.920 C 325.200 130.634,325.020 130.400,324.800 130.400 C 324.580 130.400,324.400 130.040,324.400 129.600 C 324.400 129.160,324.160 128.800,323.868 128.800 C 323.575 128.800,323.080 128.311,322.768 127.714 C 322.455 127.117,321.570 125.938,320.800 125.095 C 317.186 121.136,314.804 118.800,314.383 118.800 C 314.129 118.800,313.417 118.260,312.800 117.600 C 312.183 116.940,311.413 116.400,311.088 116.400 C 310.763 116.400,309.755 115.680,308.848 114.800 C 307.941 113.920,307.006 113.200,306.771 113.200 C 306.250 113.200,305.200 112.195,305.200 111.696 C 305.200 111.498,304.708 111.080,304.107 110.768 C 303.506 110.455,302.489 109.705,301.848 109.100 C 301.206 108.495,300.388 108.000,300.029 108.000 C 299.670 108.000,299.117 107.640,298.800 107.200 C 298.483 106.760,297.903 106.400,297.512 106.400 C 297.120 106.400,296.800 106.220,296.800 106.000 C 296.800 105.780,296.440 105.600,296.000 105.600 C 295.560 105.600,295.200 105.420,295.200 105.200 C 295.200 104.980,294.840 104.800,294.400 104.800 C 293.960 104.800,293.600 104.620,293.600 104.400 C 293.600 104.180,293.240 104.000,292.800 104.000 C 292.360 104.000,292.000 103.820,292.000 103.600 C 292.000 103.380,291.730 103.200,291.400 103.200 C 291.070 103.200,290.800 103.020,290.800 102.800 C 290.800 102.580,290.566 102.400,290.280 102.400 C 289.544 102.400,287.607 101.459,287.603 101.100 C 287.601 100.935,287.240 100.800,286.800 100.800 C 286.360 100.800,286.000 100.619,286.000 100.399 C 286.000 100.178,285.280 99.686,284.400 99.304 C 283.520 98.923,282.800 98.474,282.800 98.306 C 282.800 98.138,282.440 98.000,282.000 98.000 C 281.560 98.000,281.200 97.820,281.200 97.600 C 281.200 97.380,280.840 97.200,280.400 97.200 C 279.960 97.200,279.600 97.020,279.600 96.800 C 279.600 96.580,279.251 96.400,278.824 96.400 C 278.397 96.400,277.936 96.220,277.800 96.000 C 277.664 95.780,277.203 95.600,276.776 95.600 C 276.349 95.600,276.000 95.420,276.000 95.200 C 276.000 94.980,275.640 94.800,275.200 94.800 C 274.760 94.800,274.400 94.620,274.400 94.400 C 274.400 94.180,274.040 94.000,273.600 94.000 C 273.160 94.000,272.800 93.820,272.800 93.600 C 272.800 93.380,272.480 93.200,272.088 93.200 C 271.697 93.200,271.117 92.840,270.800 92.400 C 270.483 91.960,269.943 91.600,269.600 91.600 C 269.257 91.600,268.717 91.240,268.400 90.800 C 268.083 90.360,267.543 90.000,267.200 90.000 C 266.857 90.000,266.317 89.640,266.000 89.200 C 265.683 88.760,265.212 88.400,264.954 88.400 C 264.697 88.400,264.382 88.130,264.255 87.800 C 264.129 87.470,263.822 87.200,263.573 87.200 C 263.324 87.200,262.617 86.660,262.000 86.000 C 261.383 85.340,260.631 84.800,260.328 84.800 C 260.025 84.800,259.517 84.440,259.200 84.000 C 258.883 83.560,258.343 83.200,258.000 83.200 C 257.657 83.200,257.117 82.840,256.800 82.400 C 256.483 81.960,255.986 81.600,255.695 81.600 C 255.404 81.600,254.780 81.240,254.308 80.800 C 253.836 80.360,253.123 80.000,252.725 80.000 C 252.326 80.000,252.000 79.820,252.000 79.600 C 252.000 79.380,251.640 79.200,251.200 79.200 C 250.760 79.200,250.400 79.020,250.400 78.800 C 250.400 78.580,250.040 78.400,249.600 78.400 C 249.156 78.400,248.800 78.133,248.800 77.800 C 248.800 77.470,249.120 77.200,249.512 77.200 C 249.903 77.200,250.483 76.840,250.800 76.400 C 251.117 75.960,251.653 75.600,251.990 75.600 C 252.328 75.600,253.369 74.880,254.303 74.000 C 255.237 73.120,256.205 72.400,256.454 72.400 C 256.932 72.400,258.799 70.411,258.800 69.902 C 258.800 69.738,259.700 68.685,260.800 67.561 C 261.900 66.438,262.800 65.177,262.800 64.759 C 262.800 64.342,262.980 64.000,263.200 64.000 C 263.420 64.000,263.600 63.640,263.600 63.200 C 263.600 62.760,263.780 62.400,264.000 62.400 C 264.220 62.400,264.400 61.699,264.400 60.843 C 264.400 59.828,264.609 59.205,265.000 59.055 C 265.449 58.883,265.600 58.166,265.600 56.213 C 265.600 54.157,265.472 53.600,265.000 53.600 C 264.556 53.600,264.400 53.133,264.400 51.800 C 264.400 50.810,264.220 50.000,264.000 50.000 C 263.780 50.000,263.600 49.460,263.600 48.800 C 263.600 48.140,263.420 47.600,263.200 47.600 C 262.980 47.600,262.800 47.060,262.800 46.400 C 262.800 45.740,262.620 45.200,262.400 45.200 C 262.180 45.200,262.000 44.840,262.000 44.400 C 262.000 43.960,261.820 43.600,261.600 43.600 C 261.380 43.600,261.200 43.060,261.200 42.400 C 261.200 41.740,261.020 41.200,260.800 41.200 C 260.580 41.200,260.400 40.750,260.400 40.200 C 260.400 39.650,260.220 39.200,260.000 39.200 C 259.780 39.200,259.600 38.840,259.600 38.400 C 259.600 37.960,259.420 37.600,259.200 37.600 C 258.980 37.600,258.800 37.240,258.800 36.800 C 258.800 36.360,258.620 36.000,258.400 36.000 C 258.180 36.000,258.000 35.460,258.000 34.800 C 258.000 34.140,257.820 33.600,257.600 33.600 C 257.380 33.600,257.200 33.240,257.200 32.800 C 257.200 32.360,257.020 32.000,256.800 32.000 C 256.580 32.000,256.400 31.680,256.400 31.288 C 256.400 30.897,256.040 30.317,255.600 30.000 C 255.160 29.683,254.800 29.221,254.800 28.973 C 254.800 28.140,253.526 25.961,252.760 25.482 C 252.342 25.221,252.000 24.809,252.000 24.567 C 252.000 23.863,248.543 20.400,247.840 20.400 C 247.488 20.400,247.200 20.220,247.200 20.000 C 247.200 19.780,246.840 19.600,246.400 19.600 C 245.960 19.600,245.600 19.420,245.600 19.200 C 245.600 18.980,244.880 18.800,244.000 18.800 C 243.120 18.800,242.400 18.620,242.400 18.400 C 242.400 18.141,237.533 18.000,228.600 18.000 C 219.667 18.000,214.800 17.859,214.800 17.600 C 214.800 17.363,213.333 17.200,211.200 17.200 C 209.067 17.200,207.600 17.363,207.600 17.600 M225.029 48.171 C 225.343 48.486,225.600 49.206,225.600 49.771 C 225.600 50.337,225.780 50.800,226.000 50.800 C 226.231 50.800,226.400 52.067,226.400 53.800 C 226.400 55.533,226.231 56.800,226.000 56.800 C 225.780 56.800,225.600 57.329,225.600 57.976 C 225.600 58.623,225.420 59.264,225.200 59.400 C 224.980 59.536,224.800 60.059,224.800 60.562 C 224.800 61.065,224.440 61.802,224.000 62.200 C 223.560 62.598,223.200 63.169,223.200 63.469 C 223.200 63.978,218.276 69.200,217.797 69.200 C 217.291 69.200,214.000 65.569,214.000 65.011 C 214.000 64.675,213.820 64.400,213.600 64.400 C 213.380 64.400,213.200 64.218,213.200 63.996 C 213.200 63.774,212.660 63.028,212.000 62.337 C 211.340 61.646,210.800 60.878,210.800 60.629 C 210.800 60.380,210.440 59.917,210.000 59.600 C 209.560 59.283,209.200 58.703,209.200 58.312 C 209.200 57.920,209.020 57.600,208.800 57.600 C 208.580 57.600,208.400 56.687,208.400 55.571 C 208.400 53.481,209.004 52.400,210.171 52.400 C 210.517 52.400,210.800 52.220,210.800 52.000 C 210.800 51.780,211.160 51.600,211.600 51.600 C 212.040 51.600,212.400 51.420,212.400 51.200 C 212.400 50.980,212.940 50.800,213.600 50.800 C 214.260 50.800,214.800 50.620,214.800 50.400 C 214.800 50.180,215.340 50.000,216.000 50.000 C 216.660 50.000,217.200 49.820,217.200 49.600 C 217.200 49.380,217.830 49.200,218.600 49.200 C 219.370 49.200,220.000 49.020,220.000 48.800 C 220.000 48.580,220.360 48.400,220.800 48.400 C 221.240 48.400,221.600 48.220,221.600 48.000 C 221.600 47.386,224.382 47.525,225.029 48.171 M262.441 180.473 C 267.708 184.915,267.382 192.273,261.869 193.374 C 258.772 193.992,258.422 193.967,257.315 193.048 C 256.702 192.538,255.682 191.995,255.049 191.840 C 249.812 190.561,250.421 183.008,256.001 180.052 C 259.102 178.408,260.067 178.471,262.441 180.473 M166.311 180.223 C 167.554 181.094,166.431 185.890,164.850 186.461 C 164.609 186.548,164.595 187.275,164.814 188.400 C 165.669 192.801,163.564 195.770,160.976 193.813 C 160.429 193.398,159.656 193.293,158.354 193.457 C 156.778 193.655,156.421 193.565,155.917 192.846 C 155.592 192.382,154.713 191.796,153.963 191.543 C 151.305 190.648,150.942 189.391,152.428 186.230 C 154.237 182.382,155.522 181.411,158.917 181.329 C 161.059 181.277,162.371 181.023,163.464 180.446 C 165.343 179.454,165.227 179.464,166.311 180.223 M155.200 185.600 C 154.239 186.561,154.172 187.715,155.029 188.571 C 156.320 189.862,158.800 188.942,158.800 187.171 C 158.800 186.256,157.450 184.800,156.600 184.800 C 156.270 184.800,155.640 185.160,155.200 185.600 M158.000 187.000 C 158.000 188.333,157.933 188.400,156.600 188.400 C 155.232 188.400,154.522 186.812,155.467 185.867 C 156.412 184.922,158.000 185.632,158.000 187.000 M259.030 186.367 C 258.091 187.405,258.372 188.846,259.654 189.563 C 261.814 190.771,263.900 187.919,262.069 186.262 C 261.097 185.383,259.883 185.425,259.030 186.367 M262.028 187.034 C 262.408 187.491,262.438 187.852,262.136 188.334 C 261.544 189.278,259.950 189.420,259.338 188.583 C 258.185 187.006,260.770 185.518,262.028 187.034 M150.800 266.392 C 156.823 266.777,169.349 267.701,178.000 268.399 C 184.158 268.896,194.748 269.474,207.400 270.003 C 228.867 270.900,239.415 271.478,251.400 272.412 C 254.260 272.635,258.940 272.998,261.800 273.220 C 267.413 273.654,283.077 274.345,288.080 274.379 C 291.137 274.400,291.167 274.410,292.260 275.843 L 293.360 277.286 292.580 278.722 C 291.437 280.827,290.597 280.929,276.600 280.657 C 260.857 280.351,246.642 279.451,228.400 277.604 C 226.310 277.392,221.540 277.029,217.800 276.796 C 214.060 276.564,210.100 276.282,209.000 276.170 C 207.900 276.058,204.300 275.793,201.000 275.583 C 192.131 275.017,187.382 274.575,166.800 272.398 C 158.522 271.523,155.678 271.259,147.200 270.583 C 138.249 269.869,137.600 269.706,137.600 268.174 C 137.600 265.947,139.602 265.677,150.800 266.392 " stroke="none" fill="#3f47cc" fill-rule="evenodd"></path><path id="path2" d="M256.001 180.052 C 250.421 183.008,249.812 190.561,255.049 191.840 C 255.682 191.995,256.702 192.538,257.315 193.048 C 258.422 193.967,258.772 193.992,261.869 193.374 C 267.382 192.273,267.708 184.915,262.441 180.473 C 260.067 178.471,259.102 178.408,256.001 180.052 M163.464 180.446 C 162.371 181.023,161.059 181.277,158.917 181.329 C 155.522 181.411,154.237 182.382,152.428 186.230 C 150.942 189.391,151.305 190.648,153.963 191.543 C 154.713 191.796,155.592 192.382,155.917 192.846 C 156.421 193.565,156.778 193.655,158.354 193.457 C 159.656 193.293,160.429 193.398,160.976 193.813 C 163.564 195.770,165.669 192.801,164.814 188.400 C 164.595 187.275,164.609 186.548,164.850 186.461 C 165.365 186.275,167.200 182.438,167.200 181.548 C 167.200 179.881,165.491 179.377,163.464 180.446 M158.000 185.600 C 158.961 186.561,159.028 187.715,158.171 188.571 C 156.880 189.862,154.400 188.942,154.400 187.171 C 154.400 186.256,155.750 184.800,156.600 184.800 C 156.930 184.800,157.560 185.160,158.000 185.600 M262.069 186.262 C 263.900 187.919,261.814 190.771,259.654 189.563 C 258.372 188.846,258.091 187.405,259.030 186.367 C 259.883 185.425,261.097 185.383,262.069 186.262 " stroke="none" fill="#fdfdfe" fill-rule="evenodd"></path></g></svg>