<?xml version="1.0" encoding="UTF-8" standalone="no"?>
<!-- Created with Inkscape (http://www.inkscape.org/) -->

<svg
   xmlns:dc="http://purl.org/dc/elements/1.1/"
   xmlns:cc="http://creativecommons.org/ns#"
   xmlns:rdf="http://www.w3.org/1999/02/22-rdf-syntax-ns#"
   xmlns:svg="http://www.w3.org/2000/svg"
   xmlns="http://www.w3.org/2000/svg"
   xmlns:sodipodi="http://sodipodi.sourceforge.net/DTD/sodipodi-0.dtd"
   xmlns:inkscape="http://www.inkscape.org/namespaces/inkscape"
   version="1.1"
   id="svg3713"
   width="300"
   height="250"
   viewBox="0 0 620 698.66669"
   sodipodi:docname="no-search-results-sad.svg"
   inkscape:version="0.92.3 (2405546, 2018-03-11)">
  <metadata
     id="metadata3719">
    <rdf:RDF>
      <cc:Work
         rdf:about="">
        <dc:format>image/svg+xml</dc:format>
        <dc:type
           rdf:resource="http://purl.org/dc/dcmitype/StillImage" />
      </cc:Work>
    </rdf:RDF>
  </metadata>
  <defs
     id="defs3717" />
  <sodipodi:namedview
     pagecolor="#ffffff"
     bordercolor="#666666"
     borderopacity="1"
     objecttolerance="10"
     gridtolerance="10"
     guidetolerance="10"
     inkscape:pageopacity="0"
     inkscape:pageshadow="2"
     inkscape:window-width="1920"
     inkscape:window-height="1001"
     id="namedview3715"
     showgrid="false"
     inkscape:zoom="1.6355217"
     inkscape:cx="132.24104"
     inkscape:cy="51.037902"
     inkscape:window-x="-9"
     inkscape:window-y="-9"
     inkscape:window-maximized="1"
     inkscape:current-layer="g3803" />
  <rect
     style="fill:#ffffff"
     id="rect9"
     width="221.14357"
     height="79.983505"
     x="91.440598"
     y="171.20792" />
  <g
     id="g3803">
    <path
       style="fill:#3e46ca;stroke-width:1.33333337"
       d="m 112.94442,665.00124 c 0.15276,-18.51734 0.98618,-46.56789 1.85204,-62.33455 0.86587,-15.76667 1.16074,-31.36667 0.65527,-34.66667 -0.50547,-3.3 -1.4313,-19.5 -2.05741,-36 -2.22191,-58.55464 -7.92735,-90.5579 -28.795163,-161.51937 C 66.967612,310.5242 64.669229,300.05233 61.841455,266.79234 59.763017,242.34598 59.016995,157.45906 60.785739,146.66667 c 2.752549,-16.79529 7.893622,-39.76663 11.190193,-50 2.126119,-6.6 5.130293,-16.362006 6.675941,-21.693346 9.28519,-32.027005 22.649137,-45.130208 44.534277,-43.665371 27.89864,1.867339 38.18056,9.940367 58.81385,46.178691 11.87675,20.859182 11.065,18.449754 14.07151,41.766706 3.46678,26.88656 6.34382,28.26945 11.2622,5.41332 5.6048,-26.04604 28.77428,-96.962717 33.32025,-101.985959 15.37224,-16.9861433 82.38989,50.717917 88.57316,89.480359 0.74624,4.67808 1.98847,13.0056 2.76051,18.5056 3.78314,26.95095 9.12314,36.77518 27.99273,51.49943 8.04365,6.2766 18.4226,16.09039 24.67704,23.33333 8.21811,9.51698 14.27624,14.88735 25.38213,22.50058 117.70984,80.69157 73.14411,172.68466 -63.37286,130.81498 -4.76667,-1.46194 -12.71668,-3.58474 -17.6667,-4.71734 C 317.63131,351.49641 305.93016,345.6553 294,336.62596 c -36.18172,-27.38412 -65.27436,-15.67295 -68.78955,27.69108 -0.66949,8.25896 -2.18624,24.86976 -3.37054,36.91288 -1.7951,18.25425 -2.07214,35.77555 -1.66547,105.33334 0.47843,81.83165 0.43261,83.65479 -2.38151,94.77009 -1.81232,7.15835 -3.18669,17.96419 -3.73085,29.33334 -0.47384,9.9 -1.39589,21 -2.04899,24.66667 -0.6531,3.66666 -1.22984,12.66666 -1.28161,20 -0.18269,25.87093 5.24487,23.33316 -49.90593,23.33454 l -48.15888,10e-4 z m 37.73983,-425.68909 c 1.13628,-1.36913 1.45868,-4.74642 0.99938,-10.46852 -0.37295,-4.64604 -0.10947,-9.46325 0.58533,-10.70492 0.99036,-1.76968 0.0889,-3.39741 -4.17096,-7.53148 -6.18269,-6.0001 -7.43085,-6.34514 -9.43133,-2.60722 -0.78494,1.46666 -1.96699,2.66666 -2.62678,2.66666 -7.60088,0 -9.9359,4.11268 -4.10375,9.09465 5.89983,5.03979 3.73811,4.49936 0.23376,7.54634 -3.98495,3.46488 1.37667,10.02568 6.27617,10.02568 1.30768,0 3.54226,0.88092 4.96576,1.9576 3.33377,2.52153 5.19284,2.52696 7.27242,0.0212 z m -27.18411,-13.36373 c 1.82945,-1.82945 8.14494,-8.68258 -1.28444,-10.99732 -2.2528,-2.6025 -18.21572,4.10939 -18.21572,7.81257 0,4.96992 14.19827,9.18918 18.36524,5.02221 z m 166.84147,-16.28175 c 0.30947,-0.94241 -0.55881,-1.66666 -1.99808,-1.66666 -4.33004,0 -8.85485,-5.88658 -7.07752,-9.20754 0.82196,-1.53585 2.67336,-2.79246 4.11423,-2.79246 3.61173,0 3.27816,-1.95523 -0.89339,-5.23656 -6.39949,-5.03386 -19.32301,4.40064 -17.26426,12.60333 1.58296,6.307 21.34814,11.69297 23.11902,6.29989 z m 131.48662,484.00002 c 0.40112,-2.75 1.09476,-14.9 1.54142,-27 0.81378,-22.04471 1.58322,-26.73759 6.01175,-36.66667 1.30832,-2.93333 3.08737,-9.23333 3.95345,-14 1.89547,-10.43212 7.3775,-28.15292 10.79254,-34.88719 3.66966,-7.23636 35.48518,-29.17745 49.16197,-33.90383 7.57431,-2.61749 8.88557,-13.18246 2.02416,-16.30874 -4.64156,-2.11483 -16.14432,-13.02795 -20.68488,-19.62455 -13.67225,-19.86323 -7.44707,-68.93396 10.64387,-83.90152 13.80208,-11.41916 25.36093,-16.68732 36.64156,-16.70007 4.91997,-0.005 7.36158,-0.74103 9.67489,-2.91425 8.50999,-7.99472 47.85133,6.04292 57.38533,20.47601 8.32863,12.60835 4.58016,68.05855 -5.96777,88.27976 -11.00532,21.09807 -20.17259,26.44234 -45.37528,26.4526 -13.16799,0.005 -15.19663,0.30735 -16.33333,2.4313 -2.02531,3.78432 -1.55052,5.85608 1.66934,7.28431 7.00822,3.10861 12.02674,18.0533 9.66828,28.79126 -2.46737,11.2339 -11.46125,25.19158 -16.23264,25.19158 -0.95736,0 -3.87766,2.97454 -6.48954,6.6101 -15.75827,21.93436 -26.02558,15.16694 -24.18887,-15.94344 1.07404,-18.19208 -13.63765,-1.64136 -15.24497,17.15067 -3.259,38.10263 -3.81284,47.55051 -3.81284,65.04296 v 19.13971 H 443.8828 c -22.78387,0 -22.78387,0 -22.05457,-5 z M 554.50211,533.83292 c 31.64184,-6.32836 43.85485,-97.77387 15.01049,-112.39175 -10.75015,-5.44802 -31.09583,-8.91232 -33.25383,-5.6622 -1.67314,2.51991 -3.14961,2.88771 -11.5919,2.88771 -13.26994,0 -34.49052,10.96575 -39.57928,20.45263 -8.55942,15.95715 -12.40236,49.033 -7.15584,61.58968 4.4795,10.72096 17.89654,23.29103 24.8604,23.29103 2.0581,0 4.22182,0.81241 4.80826,1.80536 1.64256,2.78113 6.43094,4.85689 11.31194,4.9037 2.43154,0.0233 5.58566,0.92334 7.00916,2 2.72316,2.05971 20.42162,2.75564 28.5806,1.12384 z"
       id="path3807"
       class="fav-fill"
       inkscape:connector-curvature="0"
       sodipodi:nodetypes="sssssssssssssscssssssssssssscccscccccsscssccccscccscscsccscssccssccssccccscssscscsscsssscccs" />
    <path
       style="fill:#808080;stroke-width:1.33333337"
       d="m 485.49646,622.27328 c -2.84043,-5.30737 1.33866,-34.93878 5.12287,-45.60659 10.1367,-28.57559 9.02655,-41.47799 0.92399,-46.72827 -19.61473,-12.70992 -31.2577,-39.43702 -25.93794,-64.23183 4.13609,-19.27785 11.52494,-36.80224 24.33342,-45.56154 11.7865,-8.06042 19.28657,-10.33819 30.64579,-11.60906 6.80155,-1.64984 9.76917,-0.13919 14.37959,-2.93775 3.68341,-6.58191 39.05312,5.76453 49.82789,16.53289 8.29232,8.28736 10.67218,12.91978 9.87405,43.05863 -1.46485,55.3155 -18.3634,78.95416 -55.32817,79.33421 -19.05892,0.19595 -16.96492,-4.33755 -24.73832,14.44176 -3.34235,8.07454 -5.23986,10.8753 -8.78522,12.96712 -5.53545,3.266 -7.14774,7.20822 -7.14774,17.47702 0,8.21139 0.96184,9.78208 10.12021,16.52639 2.49839,1.83984 2.60712,6.39555 0.14209,11.01052 -5.02929,9.41552 -17.65287,14.73749 -20.8384,8.78525 z m 67.75071,-89.50903 c 15.84269,-2.61851 30.18197,-23.39228 29.53978,-55.28029 -0.85559,-42.48431 3.45886,-48.93219 -24.05531,-55.92139 -18.06948,-4.59004 -19.99629,-6.77215 -20.83378,-3.56958 -0.65243,2.49489 -4.52145,2.15059 -12.55239,2.15059 -13.80202,0 -31.74011,9.95076 -36.99117,19.76246 -8.53422,15.94633 -14.46745,45.7396 -9.56662,59.44996 3.80542,10.64591 17.35136,23.32925 24.64723,23.32925 2.13415,0 3.39389,0.84678 5.12326,2.10393 1.44446,1.05003 6.78244,4.18444 11.01226,4.18444 1.77307,0 5.82306,1.85912 8.12369,2.42412 8.44537,2.07404 16.3423,2.88888 25.55305,1.36651 z"
       id="path3805"
       inkscape:connector-curvature="0"
       sodipodi:nodetypes="ccssccccsscssscccssssssssssss" />
    <path
       sodipodi:nodetypes="scsccsscsscsscsccc"
       inkscape:connector-curvature="0"
       id="path176"
       d="m 360.08369,337.39496 c -2.51916,-0.90365 -2.00175,-5.49339 1.11228,-9.86665 9.17069,-12.87904 52.55438,-13.31428 52.55438,-0.52724 0,4.97077 -3.39694,5.95465 -7.25136,2.10024 -6.28037,-6.28038 -33.59061,-3.32584 -39.6309,4.28744 -3.03559,3.82609 -4.64203,4.7747 -6.7844,4.00621 z M 118.36303,234.87733 c -1.03872,-2.73204 -0.77022,-4.37175 1.25541,-7.66667 1.64374,-2.67372 2.31922,-5.51897 1.86555,-7.858 -0.94476,-4.87097 2.47463,-4.91654 9.52318,-0.12693 5.20918,3.53972 5.20918,3.53972 1.64285,6.38341 -1.96149,1.56403 -3.56633,3.49024 -3.56633,4.28047 0,6.28467 -8.69036,10.32781 -10.72066,4.98772 z m 163.5009,-31.4338 c -2.2569,-3.22217 -0.78916,-6.4242 2.94469,-6.4242 1.1358,0 3.12453,-0.95877 4.4194,-2.13061 3.83552,-3.47111 11.05805,5.60532 7.68987,9.66372 -2.52484,3.04225 -12.6698,2.29496 -15.05396,-1.10891 z"
       style="fill:#000000;stroke-width:1.33333337" />
  </g>
</svg>
