<?xml version="1.0" encoding="UTF-8" standalone="no"?>
<svg
   xmlns:dc="http://purl.org/dc/elements/1.1/"
   xmlns:cc="http://creativecommons.org/ns#"
   xmlns:rdf="http://www.w3.org/1999/02/22-rdf-syntax-ns#"
   xmlns:svg="http://www.w3.org/2000/svg"
   xmlns="http://www.w3.org/2000/svg"
   xmlns:sodipodi="http://sodipodi.sourceforge.net/DTD/sodipodi-0.dtd"
   xmlns:inkscape="http://www.inkscape.org/namespaces/inkscape"
   id="svg"
   version="1.1"
   width="320.99112"
   height="285.40604"
   style="display:block"
   sodipodi:docname="very_chill_chat_cat.svg"
   inkscape:version="0.92.3 (2405546, 2018-03-11)">
  <metadata
     id="metadata9">
    <rdf:RDF>
      <cc:Work
         rdf:about="">
        <dc:format>image/svg+xml</dc:format>
        <dc:type
           rdf:resource="http://purl.org/dc/dcmitype/StillImage" />
      </cc:Work>
    </rdf:RDF>
  </metadata>
  <defs
     id="defs7" />
  <sodipodi:namedview
     pagecolor="#ffffff"
     bordercolor="#666666"
     borderopacity="1"
     objecttolerance="10"
     gridtolerance="10"
     guidetolerance="10"
     inkscape:pageopacity="0"
     inkscape:pageshadow="2"
     inkscape:window-width="1920"
     inkscape:window-height="1001"
     id="namedview5"
     showgrid="false"
     inkscape:zoom="1.2791328"
     inkscape:cx="252.84799"
     inkscape:cy="71.696554"
     inkscape:window-x="-9"
     inkscape:window-y="-9"
     inkscape:window-maximized="1"
     inkscape:current-layer="svg" />
  <g
     id="svgg"
     transform="translate(-17.688,-28.879968)">
    <path
       id="path0" class="fav-fill"
       d="m 306.06,31.443 c -1.572,1.309 -4.329,3.969 -6.128,5.911 l -3.269,3.533 h -3.936 c -2.898,0 -4.098,0.195 -4.55,0.739 -0.464,0.56 -1.724,0.739 -5.203,0.739 -2.529,0 -4.727,0.221 -4.895,0.492 -0.168,0.271 -0.662,0.493 -1.099,0.493 -0.437,0 -1.144,0.298 -1.572,0.662 -0.427,0.365 -1.72,1.028 -2.871,1.474 l -2.094,0.811 v -1.444 c 0,-0.795 -0.221,-1.582 -0.492,-1.75 -0.271,-0.167 -0.493,-0.799 -0.493,-1.404 0,-0.645 -0.874,-1.958 -2.112,-3.173 l -2.112,-2.073 h -5.185 c -5.442,0 -6.746,0.561 -8.012,3.448 -0.178,0.407 -0.748,1.404 -1.268,2.217 -0.519,0.813 -0.959,2.164 -0.979,3.003 -0.021,0.862 -0.465,1.912 -1.022,2.416 -0.541,0.49 -0.985,1.262 -0.985,1.715 0,0.452 -0.554,1.343 -1.231,1.98 -0.678,0.636 -1.232,1.42 -1.232,1.743 0,0.323 -0.443,1.15 -0.985,1.839 -0.542,0.689 -0.985,1.805 -0.985,2.479 0,0.675 -0.552,2.192 -1.226,3.371 -0.674,1.179 -1.228,2.517 -1.231,2.974 -0.004,0.456 -0.267,1.454 -0.585,2.217 -0.575,1.377 -1.663,5.451 -2.211,8.283 -0.157,0.813 -0.562,1.81 -0.899,2.217 -0.336,0.406 -0.752,1.814 -0.922,3.127 -0.193,1.487 -0.776,2.943 -1.544,3.856 -0.679,0.807 -1.234,1.866 -1.234,2.354 0,0.488 -0.305,1.14 -0.677,1.448 -0.372,0.309 -0.822,1.657 -1,2.996 -0.177,1.339 -0.538,2.567 -0.801,2.73 -0.263,0.163 -0.478,0.641 -0.478,1.062 0,0.422 -1.774,2.64 -3.941,4.93 -2.168,2.29 -3.941,4.437 -3.941,4.773 0,0.867 -3.097,3.758 -4.027,3.758 -0.428,0 -1.054,0.333 -1.392,0.739 -0.337,0.406 -1.224,0.739 -1.97,0.739 -0.747,0 -1.633,0.333 -1.971,0.739 -0.337,0.406 -0.948,0.739 -1.358,0.739 -0.41,0 -2.544,1.628 -4.743,3.619 -2.198,1.991 -4.607,3.764 -5.352,3.941 -0.745,0.177 -1.964,0.46 -2.709,0.63 -1.849,0.42 -4.064,2.584 -4.064,3.971 0,0.971 -0.252,1.139 -1.706,1.139 -1.475,0 -2.33,0.598 -6.343,4.434 -2.55,2.438 -4.826,4.433 -5.056,4.433 -1.296,0 -7.585,7.19 -7.585,8.672 0,0.854 -0.332,1.828 -0.739,2.166 -0.406,0.337 -0.739,1.36 -0.739,2.274 0,1.397 -0.331,1.891 -2.093,3.113 -1.152,0.799 -2.648,1.871 -3.325,2.383 -1.049,0.792 -4.313,2.589 -7.506,4.132 -0.47,0.227 -1.267,0.413 -1.771,0.413 -0.503,0 -1.317,0.443 -1.807,0.985 -0.49,0.542 -1.364,0.985 -1.942,0.985 -0.578,0 -1.818,0.656 -2.756,1.458 -0.939,0.802 -2.06,1.467 -2.492,1.478 -0.432,0.011 -1.182,0.458 -1.666,0.993 -1.174,1.297 -4.655,2.947 -6.99,3.313 -1.039,0.162 -2.325,0.595 -2.86,0.96 -0.534,0.366 -1.574,0.665 -2.311,0.665 -0.736,0 -1.476,0.222 -1.643,0.493 -0.168,0.271 -0.79,0.493 -1.384,0.493 -0.708,0.001 -2.991,1.865 -6.635,5.419 -3.056,2.98 -5.904,5.418 -6.329,5.418 -0.425,0 -2.247,1.393 -4.05,3.096 -1.802,1.703 -4.761,4.371 -6.574,5.929 -1.814,1.558 -3.446,3.323 -3.626,3.924 -0.181,0.6 -1.157,2.088 -2.169,3.307 -1.012,1.219 -2.201,2.915 -2.642,3.769 -1.556,3.011 -7.707,7.35 -12.492,8.812 -1.306,0.399 -3.483,1.379 -4.838,2.179 -1.355,0.8 -4.458,2.464 -6.897,3.698 -4.685,2.371 -6.203,3.316 -10.11,6.296 -1.332,1.016 -2.859,1.847 -3.393,1.847 -0.534,0 -1.096,0.203 -1.249,0.45 -0.153,0.248 -1.329,0.93 -2.615,1.517 -1.285,0.587 -3.335,1.523 -4.554,2.08 -1.219,0.557 -2.992,1.731 -3.941,2.608 -0.948,0.878 -2.316,1.735 -3.041,1.904 -0.724,0.169 -1.975,0.862 -2.78,1.54 -1.024,0.861 -2.052,1.231 -3.42,1.231 -1.21,0 -2.434,0.376 -3.208,0.986 -0.689,0.541 -1.568,0.985 -1.954,0.985 -0.385,0 -1.791,0.553 -3.124,1.229 -1.333,0.676 -3.112,1.231 -3.954,1.232 -1.962,0.002 -5.161,2.422 -8.525,6.449 l -2.552,3.053 0.191,7.688 c 0.294,11.891 2.381,16.491 10.132,22.342 4.638,3.502 14.062,4.116 20.83,1.358 1.992,-0.812 4.09,-1.477 4.663,-1.478 0.991,-10e-4 3.112,-1.399 6.348,-4.183 3.761,-3.236 5.161,-4.2 7.779,-5.358 1.547,-0.684 2.812,-1.44 2.812,-1.68 0,-0.24 0.942,-0.673 2.094,-0.961 6.299,-1.578 14.895,-6.777 17.071,-10.326 0.53,-0.863 1.612,-1.906 2.406,-2.316 0.794,-0.411 1.746,-1.478 2.115,-2.371 0.37,-0.893 1.249,-2.11 1.954,-2.704 0.705,-0.594 1.679,-2.035 2.165,-3.202 0.815,-1.957 1.194,-2.256 4.889,-3.844 l 4.006,-1.723 12.109,-0.002 c 10.228,-0.001 12.37,0.125 13.793,0.809 0.926,0.446 2.294,1.093 3.039,1.438 3.005,1.392 -1.737,10.806 -5.444,10.806 -0.266,0 -1.561,0.891 -2.877,1.98 -1.316,1.089 -3.059,2.169 -3.871,2.4 -0.813,0.23 -2.64,1.207 -4.061,2.171 -1.892,1.284 -3.339,1.841 -5.418,2.086 -4.88,0.575 -9.711,4.466 -11.692,9.416 -1.158,2.896 -0.233,32.034 1.093,34.41 0.804,1.44 8.296,8.621 8.995,8.621 0.328,0 1.254,0.554 2.059,1.231 1.417,1.192 1.697,1.232 8.747,1.232 h 7.284 l 1.848,-1.469 c 1.017,-0.808 3.32,-2.156 5.117,-2.996 2.082,-0.973 4.432,-2.652 6.471,-4.624 1.761,-1.703 4.483,-4.024 6.05,-5.158 1.566,-1.135 4.703,-3.769 6.971,-5.854 2.268,-2.085 5.198,-4.627 6.512,-5.649 4.315,-3.356 7.856,-6.965 9.486,-9.669 2.113,-3.503 5.361,-6.106 11.129,-8.918 2.122,-1.035 4.848,-3.218 8.947,-7.167 2.475,-2.384 2.638,-2.46 3.879,-1.81 1.037,0.544 4.877,0.669 19.241,0.629 l 17.944,-0.05 3.195,-1.756 c 1.757,-0.965 3.319,-1.957 3.471,-2.204 0.153,-0.246 0.874,-0.448 1.603,-0.449 1.689,0 6.946,-2.489 8.175,-3.871 0.517,-0.58 1.22,-1.054 1.564,-1.054 0.343,0 1.283,-0.554 2.088,-1.232 0.805,-0.677 1.986,-1.232 2.624,-1.234 0.638,-0.001 1.742,-0.389 2.453,-0.862 2.713,-1.803 4.183,-2.846 5.85,-4.148 0.949,-0.741 2.611,-1.715 3.695,-2.164 3.392,-1.408 11.576,-8.828 11.576,-10.496 0,-0.552 0.576,-1.844 1.279,-2.872 2.087,-3.051 4.633,-8.402 4.633,-9.739 0,-1.23 0.044,-1.243 4.093,-1.243 2.836,0 4.386,-0.222 5.049,-0.724 0.526,-0.397 1.387,-0.73 1.914,-0.739 1.067,-0.017 3.722,-2.335 3.722,-3.249 0,-0.323 0.332,-0.862 0.739,-1.2 0.406,-0.337 0.739,-1.002 0.739,-1.478 0,-0.475 0.332,-1.14 0.739,-1.477 0.87,-0.723 1.089,-10.563 0.246,-11.084 -0.297,-0.183 -0.493,-3.586 -0.493,-8.553 v -8.249 l 1.625,-1.574 c 1.601,-1.552 1.693,-1.575 6.424,-1.575 4.161,0 5.009,-0.146 6.38,-1.097 3.129,-2.172 4.783,-3.998 4.783,-5.28 0,-2.46 2.777,-3.968 7.304,-3.968 h 3.907 l 1.707,-2.093 c 2.76,-3.386 4.018,-8.454 2.353,-9.483 -0.271,-0.168 -0.493,-1.04 -0.493,-1.939 0,-0.899 -0.301,-1.885 -0.669,-2.19 -0.367,-0.306 -0.811,-1.923 -0.986,-3.595 -0.175,-1.671 -0.65,-3.406 -1.055,-3.854 -0.406,-0.448 -0.738,-1.283 -0.738,-1.855 0,-0.573 -0.207,-1.169 -0.461,-1.326 -0.615,-0.38 -2.002,-3.194 -2.002,-4.063 0,-0.606 -1.196,-3.384 -2.394,-5.562 -1.462,-2.657 -2.535,-5.338 -2.533,-6.333 0,-0.638 -0.553,-1.819 -1.231,-2.624 -0.677,-0.805 -1.231,-1.846 -1.231,-2.314 0,-0.468 -0.704,-1.808 -1.564,-2.978 -1.658,-2.253 -2.106,-6.649 -0.907,-8.889 0.788,-1.473 1.231,-26.326 0.526,-29.572 -0.323,-1.49 -0.702,-3.485 -0.841,-4.433 -0.204,-1.383 -1.172,-2.612 -4.892,-6.208 l -4.637,-4.483 v -2.627 c 0,-2.665 1.311,-6.212 2.734,-7.392 0.393,-0.326 0.714,-1.408 0.714,-2.405 0,-0.996 0.246,-2.057 0.546,-2.357 0.334,-0.335 0.649,-3.817 0.812,-8.986 l 0.265,-8.44 -1.396,-1.457 c -2.369,-2.473 -5.758,-2.142 -9.438,0.921 m -1.096,18.517 c -0.563,0.599 -1.023,1.42 -1.023,1.825 0,0.405 -0.326,1.166 -0.723,1.692 -0.55,0.727 -0.727,2.529 -0.739,7.507 l -0.016,6.551 1.712,2.563 c 2.968,4.44 3.369,4.993 4.63,6.38 0.677,0.745 1.608,1.355 2.069,1.355 0.864,0 0.923,0.172 1.973,5.73 1.116,5.905 -0.288,23.121 -2.043,25.058 -2.857,3.154 -0.617,15.024 2.835,15.024 0.796,0 1.139,0.286 1.139,0.948 0,0.521 0.555,1.606 1.232,2.411 0.677,0.805 1.231,1.994 1.231,2.643 0,0.648 0.444,2.049 0.986,3.112 0.541,1.062 0.985,2.315 0.985,2.784 0,0.469 0.199,0.975 0.441,1.125 0.695,0.429 2.514,4.153 2.514,5.146 0,0.493 0.555,1.939 1.232,3.213 0.677,1.273 1.232,2.675 1.232,3.113 0,0.438 0.374,1.211 0.832,1.717 0.512,0.566 0.913,2.041 1.043,3.844 0.119,1.651 0.508,3.172 0.892,3.49 1.279,1.062 0.681,1.43 -2.327,1.43 -2.489,0 -3.26,0.212 -4.471,1.231 -0.805,0.678 -1.762,1.232 -2.127,1.232 -1.182,0 -5.173,5.028 -5.173,6.518 v 1.364 h -6.089 -6.089 l -3.517,3.965 -3.516,3.965 v 12.754 c 0,7.972 0.184,12.869 0.492,13.059 0.984,0.609 0.45,1.978 -1.58,4.046 -2.125,2.165 -4.331,2.845 -4.331,1.335 0,-1.483 -2.742,-3.657 -4.613,-3.657 -0.953,0 -1.87,-0.221 -2.037,-0.492 -0.168,-0.271 -0.68,-0.502 -1.138,-0.514 -3.342,-0.083 -4.539,-15.841 -1.449,-19.063 1.054,-1.099 1.359,-1.899 1.373,-3.603 0.009,-1.204 0.334,-2.744 0.721,-3.421 0.387,-0.677 0.712,-1.858 0.722,-2.625 0.013,-1.096 0.961,-2.309 4.451,-5.697 2.757,-2.677 4.433,-4.689 4.433,-5.32 0,-0.559 0.309,-1.273 0.687,-1.586 0.378,-0.314 0.828,-1.316 0.999,-2.228 0.171,-0.911 0.637,-1.928 1.036,-2.259 0.4,-0.332 0.726,-1.002 0.726,-1.49 0,-0.488 0.554,-1.546 1.232,-2.351 0.677,-0.805 1.231,-1.715 1.231,-2.023 0,-0.308 0.388,-0.696 0.862,-0.862 6.375,-2.234 4.984,-10.456 -1.675,-9.903 -3.281,0.272 -9.059,5.54 -10.454,9.532 -0.372,1.064 -0.963,2.268 -1.313,2.674 -0.35,0.406 -0.79,1.562 -0.976,2.569 -0.187,1.006 -0.649,2.086 -1.027,2.4 -0.378,0.314 -0.688,0.987 -0.688,1.495 0,0.509 -0.19,0.925 -0.423,0.925 -0.633,0 -4.995,3.948 -4.995,4.52 0,0.273 -0.776,1.402 -1.724,2.51 -0.975,1.139 -1.732,2.565 -1.742,3.28 -0.01,0.697 -0.334,1.821 -0.722,2.498 -0.387,0.677 -0.711,1.967 -0.721,2.865 -0.011,1.003 -0.54,2.319 -1.372,3.409 l -1.355,1.775 -0.154,11.868 -0.154,11.868 4.665,4.772 c 4.488,4.592 4.649,4.833 4.275,6.398 -0.606,2.527 -1.031,3.429 -2.745,5.813 -0.875,1.22 -1.959,3.104 -2.407,4.188 -1.042,2.517 -5.068,6.65 -6.477,6.65 -0.586,0 -2.523,1.164 -4.306,2.586 -4.302,3.434 -6.565,4.803 -7.935,4.803 -0.622,0 -1.757,0.499 -2.522,1.108 -0.765,0.61 -2.099,1.552 -2.965,2.094 -0.866,0.542 -2.495,1.603 -3.621,2.358 -1.126,0.756 -3.06,1.563 -4.297,1.794 -1.238,0.231 -2.843,0.859 -3.567,1.394 -4.254,3.145 -4.216,3.14 -19.659,2.875 -7.777,-0.133 -15.883,-0.383 -18.013,-0.555 -4.663,-0.376 -9.117,1.378 -11.193,4.407 -0.634,0.926 -1.871,2.026 -2.749,2.444 -0.877,0.419 -1.951,1.303 -2.385,1.965 -0.433,0.663 -1.37,1.351 -2.081,1.529 -1.22,0.306 -3.413,1.607 -9.343,5.543 -1.408,0.934 -3.173,2.503 -3.924,3.487 -0.75,0.983 -1.759,2.184 -2.243,2.668 -0.484,0.483 -0.88,1.092 -0.88,1.352 0,0.644 -4.759,5.439 -5.399,5.439 -0.281,0 -3.005,2.325 -6.053,5.167 -3.049,2.841 -5.831,5.169 -6.183,5.172 -0.352,0.003 -2.236,1.529 -4.187,3.391 -4.917,4.692 -6.685,6.101 -8.966,7.143 -1.084,0.495 -2.923,1.543 -4.089,2.329 -1.84,1.241 -2.574,1.428 -5.593,1.428 -3.779,0 -3.814,-0.018 -8.791,-4.545 l -2.216,-2.017 -0.385,-6.694 c -0.928,-16.169 -0.937,-17.16 -0.184,-18.617 1.323,-2.558 3.154,-3.958 5.631,-4.308 2.256,-0.317 9.176,-3.34 9.741,-4.254 0.154,-0.248 0.709,-0.452 1.234,-0.452 0.525,0 1.82,-0.781 2.877,-1.737 1.058,-0.955 2.976,-2.296 4.263,-2.981 8.341,-4.435 10.623,-7.983 10.948,-17.025 l 0.224,-6.226 -1.657,-1.742 c -0.912,-0.957 -3.431,-2.695 -5.599,-3.861 l -3.941,-2.119 -14.82,-0.182 -14.819,-0.182 -3.407,1.699 c -1.874,0.935 -4.151,1.842 -5.061,2.016 -2.083,0.399 -6.306,3.894 -7.16,5.925 -0.356,0.846 -1.511,2.449 -2.567,3.563 -2.411,2.542 -5.818,6.455 -7.048,8.094 -0.985,1.315 -8.104,5.092 -10.635,5.643 -2.529,0.551 -9.766,4.307 -11.599,6.018 -2.009,1.877 -8.547,6.053 -9.477,6.053 -0.344,0 -1.063,0.292 -1.598,0.649 -4.005,2.676 -9.736,3.072 -11.979,0.829 -0.817,-0.817 -2.004,-1.478 -2.655,-1.478 -1.253,0 -3.332,-2.306 -3.332,-3.695 0,-0.428 -0.887,-2.423 -1.971,-4.433 -3.747,-6.949 -2.273,-10.898 4.984,-13.353 1.982,-0.671 3.944,-1.506 4.359,-1.856 0.931,-0.784 10.184,-4.742 11.086,-4.742 0.36,0 1.841,-0.799 3.29,-1.775 3.729,-2.512 5.568,-3.381 9.779,-4.62 4.308,-1.269 8.483,-3.48 10.631,-5.631 4.2,-4.207 6.87,-5.689 14.377,-7.979 3.812,-1.162 4.677,-1.661 7.745,-4.461 2.376,-2.168 4.131,-3.339 5.622,-3.751 1.499,-0.414 2.628,-1.17 3.654,-2.447 0.817,-1.016 1.731,-1.848 2.031,-1.848 0.74,0 7.664,-7.013 7.664,-7.763 0,-1.107 9.909,-10.956 11.023,-10.956 0.694,-0.001 2.754,-1.822 6.13,-5.419 4.238,-4.517 5.326,-5.419 6.534,-5.419 0.797,0 1.834,-0.189 2.305,-0.42 2.633,-1.293 4.491,-1.99 6.016,-2.256 2.218,-0.388 5.554,-2.011 6.673,-3.247 0.484,-0.536 1.359,-0.973 1.943,-0.973 0.585,0 1.701,-0.665 2.479,-1.478 0.779,-0.813 1.899,-1.478 2.489,-1.478 0.59,0 1.637,-0.443 2.326,-0.985 0.688,-0.542 1.497,-0.985 1.797,-0.985 0.592,0 0.918,-0.145 4.965,-2.208 1.49,-0.759 3.152,-1.771 3.694,-2.248 0.955,-0.841 5.387,-3.453 7.389,-4.356 1.915,-0.862 3.31,-2.891 3.569,-5.189 0.139,-1.232 0.556,-2.492 0.928,-2.801 0.372,-0.308 0.676,-1.301 0.676,-2.206 0,-1.42 0.422,-1.994 3.079,-4.181 1.693,-1.394 4.076,-3.495 5.295,-4.669 1.219,-1.174 3.159,-3.007 4.311,-4.075 1.435,-1.331 2.093,-2.347 2.093,-3.231 0,-1.148 0.192,-1.29 1.74,-1.29 0.957,0 2.536,-0.332 3.509,-0.738 0.972,-0.407 2.147,-0.739 2.611,-0.739 0.464,0 2.633,-1.663 4.82,-3.695 2.187,-2.032 4.303,-3.695 4.702,-3.695 0.398,0 1,-0.332 1.337,-0.738 0.338,-0.407 1.224,-0.739 1.971,-0.739 0.746,0 1.614,-0.31 1.927,-0.688 0.314,-0.378 1.321,-0.828 2.238,-1 1.561,-0.293 9.441,-8.336 10.067,-10.276 0.106,-0.329 1.603,-2.183 3.325,-4.12 1.723,-1.937 3.132,-3.864 3.132,-4.281 0,-0.418 0.203,-0.885 0.45,-1.037 0.248,-0.153 0.597,-1.151 0.778,-2.218 0.18,-1.067 0.643,-2.201 1.028,-2.521 0.385,-0.319 0.7,-1.202 0.7,-1.961 0,-0.759 0.546,-2.029 1.214,-2.822 0.668,-0.794 1.362,-2.418 1.544,-3.61 0.181,-1.191 0.606,-2.498 0.946,-2.905 0.339,-0.406 0.732,-1.515 0.872,-2.463 0.349,-2.358 1.307,-5.979 1.852,-6.998 0.248,-0.462 0.596,-1.751 0.774,-2.864 0.178,-1.113 0.847,-2.795 1.487,-3.738 0.64,-0.943 1.163,-2.343 1.163,-3.11 0,-0.768 0.333,-1.672 0.739,-2.009 0.407,-0.337 0.739,-0.911 0.739,-1.275 0,-0.364 0.665,-1.419 1.478,-2.344 0.813,-0.926 1.478,-2.119 1.478,-2.651 0,-0.531 0.431,-1.357 0.958,-1.833 0.527,-0.477 1.025,-1.564 1.108,-2.417 0.313,-3.224 1.616,-1.833 1.777,1.899 0.227,5.268 1.282,6.158 7.304,6.158 2.74,0 4.69,-0.213 4.888,-0.534 0.46,-0.744 4.506,-2.422 5.841,-2.422 0.608,0 1.625,-0.554 2.262,-1.231 1.081,-1.151 1.473,-1.232 5.968,-1.232 2.731,0 4.945,-0.217 5.121,-0.501 0.19,-0.307 0.799,-0.116 1.573,0.492 3.338,2.626 10.49,0.582 10.49,-2.998 0,-0.676 0.278,-1.509 0.616,-1.852 1.149,-1.161 1.066,1.87 -0.085,3.095 m -11.255,26.395 c -2.467,1.505 -2.95,3.016 -1.579,4.942 l 1.12,1.573 4.578,-0.201 c 3.198,-0.139 4.848,-0.431 5.469,-0.965 0.49,-0.422 1.278,-0.904 1.752,-1.072 1.28,-0.454 1.056,-1.41 -0.805,-3.442 -2.065,-2.255 -7.5,-2.685 -10.535,-0.835 m -30.901,1.514 c -3.4,1.975 -4.68,3.126 -4.68,4.205 0,3.822 13.664,4.231 16.619,0.498 0.478,-0.604 1.257,-1.245 1.731,-1.425 1.195,-0.455 1.077,-1.673 -0.246,-2.538 -1.488,-0.972 -12.026,-1.553 -13.424,-0.74 m 36.53,1.199 0.569,1.228 h -2.909 c -3.096,0 -3.585,-0.457 -1.814,-1.697 1.678,-1.175 3.486,-0.971 4.154,0.469 m -31.675,1.48 c -0.157,0.41 -0.012,1.075 0.323,1.478 0.673,0.811 -2.164,0.965 -5.178,0.281 l -1.478,-0.336 1.97,-1.062 c 2.375,-1.281 4.793,-1.48 4.363,-0.361 m 4.733,0.434 c -1.341,1.275 -2.893,1.466 -2.593,0.319 0.193,-0.739 0.667,-1.005 1.789,-1.005 1.321,0 1.429,0.092 0.804,0.686 m 20.774,7.595 c -0.543,0.761 -1.123,2.036 -1.29,2.832 -0.283,1.35 -0.249,1.331 0.487,-0.272 0.434,-0.947 1.26,-2.221 1.834,-2.833 0.575,-0.612 0.799,-1.112 0.5,-1.112 -0.3,0 -0.989,0.623 -1.531,1.385 m 3.209,1.645 c -1.243,1.421 -2.139,2.704 -1.992,2.852 0.148,0.147 0.51,-0.174 0.805,-0.714 0.295,-0.539 1.303,-1.711 2.239,-2.605 0.936,-0.893 1.591,-1.734 1.455,-1.87 -0.135,-0.136 -1.264,0.916 -2.507,2.337 m -15.221,-1.513 c -1.624,0.946 -1.119,3.568 0.949,4.928 1.614,1.061 4.215,6.905 3.425,7.694 -0.417,0.418 -8.106,-1.026 -9.644,-1.811 -2.552,-1.302 -4.008,-2.968 -2.594,-2.968 0.567,0 1.169,0.221 1.337,0.492 0.167,0.271 0.568,0.486 0.891,0.477 0.322,-0.008 0.156,-0.341 -0.37,-0.739 -0.641,-0.485 -2.02,-0.701 -4.187,-0.656 -1.777,0.037 -2.732,0.163 -2.123,0.281 0.626,0.12 1.109,0.574 1.109,1.043 0,2.526 5.075,5.269 11.144,6.023 3.036,0.377 5.014,0.857 5.26,1.275 0.525,0.894 1.783,0.854 2.137,-0.068 0.156,-0.407 0.764,-0.739 1.352,-0.739 2.178,0 9.135,-7.94 9.382,-10.707 0.141,-1.585 0.371,-1.9 1.578,-2.166 1.308,-0.288 1.321,-0.313 0.181,-0.333 -0.677,-0.013 -1.8,0.349 -2.495,0.803 -0.695,0.455 -2.025,1.324 -2.956,1.933 -1.777,1.162 -1.653,1.518 0.188,0.537 1.3,-0.693 1.09,-0.386 -3.013,4.391 -3.427,3.99 -4.071,3.972 -5.051,-0.137 l -0.766,-3.21 1.362,-1.59 c 1.441,-1.684 1.792,-3.712 0.81,-4.694 -0.722,-0.722 -6.691,-0.766 -7.906,-0.059 m 5.002,2.793 c -0.363,0.475 -0.676,0.908 -0.696,0.965 -0.02,0.056 -0.692,-0.331 -1.494,-0.859 l -1.458,-0.961 2.154,-0.003 c 1.975,-0.003 2.099,0.068 1.494,0.858 m -13.254,0.63 c 3.006,0.684 5.571,1.81 6.29,2.761 0.678,0.896 0.691,0.896 0.528,-0.013 -0.092,-0.512 -0.5,-1.085 -0.906,-1.271 -0.407,-0.187 -1.478,-0.709 -2.38,-1.161 -0.903,-0.453 -2.454,-0.797 -3.448,-0.766 l -1.808,0.057 1.724,0.393 m -0.844,1.961 c 1.568,0.251 3.335,0.797 3.927,1.212 0.593,0.415 1.305,0.753 1.584,0.752 1.864,-0.007 -3.357,-2.09 -5.613,-2.24 l -2.748,-0.182 2.85,0.458 m -59.901,36.353 -1.324,1.381 v 9.054 c 0,9.674 -0.442,11.771 -2.968,14.056 -0.535,0.485 -0.972,1.134 -0.972,1.443 0,0.31 -0.905,1.439 -2.01,2.51 -2.439,2.364 -3.902,5.217 -3.902,7.611 0,0.981 -0.325,2.214 -0.723,2.74 -0.398,0.526 -0.73,1.401 -0.739,1.944 -0.017,1.094 -2.763,2.214 -5.427,2.214 -1.682,0 -2.137,-1.801 -0.746,-2.956 0.487,-0.404 0.739,-1.505 0.739,-3.233 0,-1.441 0.188,-2.736 0.418,-2.878 0.23,-0.143 0.558,-2.067 0.728,-4.276 0.17,-2.21 0.561,-4.32 0.867,-4.689 1.506,-1.815 1.166,-8.773 -0.523,-10.696 -3.263,-3.717 -8.387,-1.741 -8.387,3.233 0,1.256 -0.202,2.409 -0.448,2.561 -0.247,0.153 -0.606,2.164 -0.798,4.47 -0.192,2.306 -0.545,4.314 -0.783,4.461 -0.239,0.147 -0.434,1.447 -0.434,2.888 0,1.728 -0.252,2.829 -0.739,3.233 -0.424,0.353 -0.739,1.427 -0.739,2.525 0,1.052 -0.443,2.74 -0.985,3.751 -0.542,1.011 -0.985,2.118 -0.985,2.461 0,0.46 -1.322,0.631 -5.049,0.652 -5.139,0.03 -7.182,0.298 -12.439,1.63 -1.626,0.412 -3.51,0.87 -4.187,1.018 -2.486,0.544 -2.594,0.816 -2.609,6.573 -0.012,4.834 0.102,5.563 1.062,6.784 0.592,0.752 1.212,1.941 1.379,2.642 0.167,0.701 0.484,1.506 0.704,1.788 0.22,0.283 0.523,4.162 0.672,8.621 0.15,4.459 0.45,13.427 0.668,19.93 0.386,11.55 0.833,14.758 2.486,17.847 0.31,0.579 0.564,1.493 0.564,2.03 0,5.202 6.244,9.708 9.487,6.847 3.348,-2.954 3.333,-2.949 7.015,-2.541 4.999,0.555 11.346,0.453 15.025,-0.241 1.761,-0.332 5.197,-0.711 7.636,-0.842 4.069,-0.219 5.341,-0.503 7.752,-1.729 0.47,-0.24 1.387,-0.435 2.037,-0.435 0.65,0 2.815,-0.534 4.81,-1.187 1.995,-0.652 4.733,-1.339 6.085,-1.526 5.294,-0.73 10.912,-9.419 10.408,-16.096 -0.697,-9.232 -0.898,-23.678 -0.343,-24.715 0.597,-1.116 0.467,-11.286 -0.225,-17.649 -0.473,-4.342 0.404,-7.407 2.597,-9.08 1.831,-1.396 1.992,-2.153 0.707,-3.316 -1.019,-0.922 -10.816,-1.215 -11.686,-0.35 -0.257,0.256 -3.46,0.536 -7.118,0.623 -3.657,0.086 -7.038,0.343 -7.512,0.572 -0.975,0.47 -1.331,-2.79 -0.37,-3.385 0.271,-0.167 0.493,-0.754 0.493,-1.304 0,-0.558 1.631,-2.771 3.695,-5.014 2.032,-2.208 3.694,-4.363 3.694,-4.789 0,-0.425 0.326,-1.204 0.723,-1.73 0.588,-0.776 0.727,-3.131 0.739,-12.505 l 0.016,-11.55 -1.324,-1.381 c -1.031,-1.077 -1.772,-1.382 -3.356,-1.382 -1.584,0 -2.324,0.305 -3.356,1.382 m 18.087,45.539 c -0.556,1.51 -0.495,10.286 0.097,13.916 0.297,1.818 0.315,4.378 0.048,6.651 -0.781,6.654 -0.948,19.741 -0.332,26.108 l 0.595,6.158 -1.832,3.448 c -2.443,4.599 -2.935,5.077 -5.605,5.438 -1.256,0.17 -3.502,0.714 -4.992,1.209 -1.491,0.495 -3.596,1.048 -4.68,1.23 -1.084,0.181 -2.857,0.687 -3.941,1.125 -1.084,0.438 -4.076,0.952 -6.65,1.143 -2.574,0.191 -6.232,0.637 -8.128,0.99 -3.813,0.711 -7.134,0.758 -13.82,0.197 -4.753,-0.398 -6.412,0.033 -8.62,2.241 -1.488,1.487 -3.422,-0.186 -3.422,-2.959 0,-0.581 -0.314,-1.664 -0.698,-2.406 -1.378,-2.665 -1.926,-6.911 -2.332,-18.06 -0.962,-26.443 -1.102,-28.493 -2.036,-29.803 -3.349,-4.693 -3.705,-5.778 -3.021,-9.197 0.301,-1.505 0.801,-1.699 9.318,-3.624 4.904,-1.109 18.462,-2.335 33.005,-2.985 17.779,-0.795 23.808,-1.184 24.181,-1.559 0.981,-0.986 3.282,-0.393 2.865,0.739 m -32.613,25.886 c -1.164,0.118 -1.75,0.492 -2.063,1.316 -0.24,0.633 -0.673,1.296 -0.96,1.474 -0.288,0.178 -0.523,0.545 -0.523,0.816 0,0.271 0.255,0.335 0.567,0.142 0.41,-0.253 0.49,0.227 0.29,1.723 -0.257,1.915 -0.196,2.063 0.787,1.923 0.886,-0.126 1.038,-0.424 0.902,-1.777 -0.089,-0.895 0.088,-1.928 0.394,-2.297 0.382,-0.461 0.395,-0.769 0.039,-0.989 -0.865,-0.535 -0.577,-1.246 0.504,-1.246 0.936,0 1.01,0.253 0.894,3.078 -0.111,2.719 -0.018,3.079 0.791,3.079 0.817,0 0.903,-0.371 0.796,-3.448 -0.137,-3.921 -0.2,-4.021 -2.418,-3.794 m -26.365,3.67 c 0.076,3.096 0.207,3.572 0.985,3.572 0.582,0 0.847,-0.303 0.753,-0.862 -0.192,-1.142 0.522,-1.093 1.612,0.112 0.485,0.535 1.09,0.844 1.345,0.687 0.255,-0.158 -0.052,-0.836 -0.682,-1.506 -1.07,-1.139 -1.089,-1.26 -0.291,-1.844 0.47,-0.344 0.71,-0.769 0.534,-0.946 -0.506,-0.505 -1.011,-0.381 -1.845,0.454 -0.704,0.703 -0.775,0.591 -0.775,-1.232 0,-1.581 -0.182,-2.006 -0.862,-2.006 -0.749,0 -0.85,0.465 -0.774,3.571 m 30.795,-3.041 c 0.097,0.291 0.387,0.53 0.644,0.53 0.258,0 0.548,-0.239 0.645,-0.53 0.097,-0.291 -0.193,-0.53 -0.645,-0.53 -0.451,0 -0.741,0.239 -0.644,0.53 m 9.359,0 c 0.098,0.291 0.388,0.53 0.645,0.53 0.257,0 0.547,-0.239 0.644,-0.53 0.098,-0.291 -0.192,-0.53 -0.644,-0.53 -0.452,0 -0.742,0.239 -0.645,0.53 m -32.483,2.07 c -0.61,0.279 -1.108,0.818 -1.108,1.198 0,0.571 0.19,0.558 1.094,-0.075 1.278,-0.895 1.861,-0.973 1.861,-0.249 0,0.285 -0.647,0.744 -1.438,1.02 -2.759,0.962 -2.085,3.057 0.879,2.733 2.042,-0.224 2.214,-0.461 1.829,-2.518 -0.385,-2.05 -1.538,-2.83 -3.117,-2.109 m 5.911,0 c -0.609,0.279 -1.108,0.818 -1.108,1.198 0,0.571 0.191,0.558 1.095,-0.075 1.278,-0.895 1.861,-0.973 1.861,-0.249 0,0.285 -0.648,0.744 -1.439,1.02 -2.759,0.962 -2.085,3.057 0.879,2.733 2.035,-0.223 2.161,-0.402 1.765,-2.51 -0.391,-2.086 -1.475,-2.838 -3.053,-2.117 m 19.335,-0.137 c -0.167,0.271 -0.054,0.493 0.251,0.493 0.37,0 0.516,1.114 0.435,3.325 -0.118,3.272 -0.061,3.389 1.54,3.153 0.276,-0.041 0.384,-0.573 0.239,-1.182 -0.212,-0.891 0.053,-1.254 1.345,-1.848 2.508,-1.151 2.527,-3.215 0.038,-3.906 -2.355,-0.654 -3.459,-0.664 -3.848,-0.035 m 7.606,-0.137 c -0.622,0.141 -0.729,0.736 -0.557,3.111 0.21,2.911 0.2,2.938 -1.107,2.938 -0.755,0 -1.19,0.211 -1.016,0.492 1.337,2.163 3.548,-0.091 3.746,-3.817 0.148,-2.795 0.075,-2.982 -1.066,-2.724 m 3.578,0.263 c -1.846,2.225 -0.671,5.169 1.818,4.555 2.303,-0.568 2.44,-1.31 0.176,-0.948 -2.585,0.413 -2.926,-0.576 -0.364,-1.057 1.996,-0.374 2.397,-0.821 1.963,-2.187 -0.358,-1.13 -2.756,-1.372 -3.593,-0.363 m -25.617,0.466 c -0.921,0.92 -0.708,1.702 0.763,2.807 l 1.355,1.018 -1.724,-0.303 c -1.985,-0.349 -1.567,0.539 0.492,1.046 2.56,0.63 3.464,-0.952 1.281,-2.24 -1.77,-1.045 -1.836,-1.163 -0.987,-1.783 0.8,-0.586 0.957,-0.533 1.318,0.442 0.424,1.147 1.319,0.502 1.337,-0.963 0.009,-0.797 -3.043,-0.816 -3.835,-0.024 m 12.024,1.748 c 0.078,1.96 1.67,3.839 1.67,1.971 0,-0.203 0,-1.256 0,-2.34 0,-1.565 -0.181,-1.971 -0.882,-1.971 -0.736,0 -0.866,0.386 -0.788,2.34 m 15.956,-1.658 c 0,0.375 -0.443,0.797 -0.985,0.939 -1.11,0.29 -1.277,-0.147 -0.394,-1.029 0.787,-0.787 1.379,-0.748 1.379,0.09 m 3.054,-0.09 c -0.92,0.92 -0.707,1.702 0.764,2.807 l 1.354,1.018 -1.724,-0.303 c -1.985,-0.349 -1.567,0.539 0.493,1.046 2.328,0.573 3.518,-0.943 1.598,-2.036 -1.69,-0.962 -2.045,-1.861 -0.908,-2.298 0.424,-0.163 0.804,0.15 0.985,0.81 0.312,1.133 1.256,0.377 1.273,-1.02 0.01,-0.797 -3.043,-0.816 -3.835,-0.024 m -11.921,0.724 c 0,0.497 -1.57,2.133 -2.047,2.133 -0.229,0 -0.416,-0.554 -0.416,-1.232 0,-0.985 0.246,-1.231 1.231,-1.231 0.678,0 1.232,0.149 1.232,0.33 m -28.079,2.133 c 0,0.271 -0.499,0.489 -1.108,0.485 -0.896,-0.006 -0.967,-0.099 -0.37,-0.485 0.955,-0.617 1.478,-0.617 1.478,0 m 5.912,0 c 0,0.271 -0.499,0.489 -1.109,0.485 -0.896,-0.006 -0.967,-0.099 -0.369,-0.485 0.955,-0.617 1.478,-0.617 1.478,0 m 0.301,7.39 c -3.954,1.544 -6.059,3.969 -5.264,6.062 0.754,1.981 2.84,2.159 4.665,0.397 2.471,-2.386 6.689,-2.294 10.403,0.227 4.201,2.851 8.117,-1.108 5.652,-5.713 -1.132,-2.114 -10.95,-2.733 -15.456,-0.973 m 12.739,-0.015 c 1.665,0.101 2.723,1.488 2.723,3.571 0,3.975 -2.205,4.98 -5.711,2.601 -3.774,-2.561 -7.816,-2.751 -10.264,-0.482 -2.088,1.935 -4.222,1.693 -4.222,-0.479 0,-4.427 5.129,-5.956 17.474,-5.211"
       inkscape:connector-curvature="0"
       style="fill:#000000;fill-rule:evenodd;stroke:none" />
  </g>
</svg>
