<!DOCTYPE svg PUBLIC "-//W3C//DTD SVG 20010904//EN" "http://www.w3.org/TR/2001/REC-SVG-20010904/DTD/svg10.dtd">
<svg version="1.0" xmlns="http://www.w3.org/2000/svg" width="472px" height="172px" viewBox="0 0 4720 1720" preserveAspectRatio="xMidYMid meet">
<g id="layer101" fill="#ffffff" stroke="none">
 <path d="M550 1709 c-32 -13 -78 -56 -96 -91 -8 -15 -14 -55 -14 -90 0 -73 24 -122 79 -162 36 -27 170 -86 194 -86 10 0 36 -108 100 -412 48 -227 87 -419 87 -425 0 -10 33 -13 130 -13 72 0 130 3 130 7 0 4 -34 168 -76 366 -41 198 -73 361 -70 364 8 9 123 -76 158 -116 32 -37 37 -55 96 -327 34 -158 63 -289 65 -291 3 -2 60 -2 129 -1 l124 3 -63 295 c-34 162 -63 312 -63 332 0 64 57 86 128 48 80 -42 71 -17 177 -515 53 -253 100 -463 104 -467 7 -8 250 -42 257 -36 2 3 -41 217 -96 475 -55 258 -100 484 -100 501 0 58 60 78 128 42 79 -42 76 -33 141 -346 34 -159 63 -299 66 -312 5 -21 9 -22 136 -22 110 0 130 2 126 14 -5 12 -1 13 24 4 17 -6 71 -9 122 -6 115 5 169 30 204 97 55 106 10 427 -84 587 -34 59 -110 128 -165 148 -59 23 -186 19 -237 -7 -19 -9 -35 -16 -36 -15 -1 2 -21 93 -44 203 -23 110 -45 203 -49 206 -10 10 -251 63 -257 57 -3 -3 20 -123 50 -268 31 -144 54 -264 52 -266 -2 -2 -24 11 -48 30 -79 61 -117 76 -192 76 -99 0 -176 -46 -193 -116 -6 -22 -8 -20 -67 27 -34 27 -80 58 -102 69 -54 26 -154 27 -211 1 -42 -19 -84 -63 -84 -87 0 -16 -16 -19 -25 -4 -9 14 -90 54 -150 74 l-51 16 -21 103 c-40 193 -85 272 -185 321 -43 21 -65 26 -127 25 -42 0 -87 -5 -101 -10z m106 -187 c21 -31 58 -161 49 -171 -3 -2 -31 9 -62 25 -63 32 -103 81 -103 125 0 66 77 80 116 21z m1874 -377 c17 -9 38 -35 54 -68 41 -82 87 -277 93 -392 5 -92 4 -102 -17 -127 -17 -22 -30 -28 -61 -28 -36 0 -99 23 -99 35 0 5 -105 498 -115 543 -10 42 87 67 145 37z"/>
 <path d="M271 1251 c29 -128 229 -1074 229 -1082 0 -14 -81 -11 -139 7 -66 19 -122 69 -152 137 -20 44 -24 68 -24 162 0 61 4 118 9 128 7 15 3 17 -30 17 -57 -1 -120 -32 -139 -71 -27 -51 -17 -206 17 -282 58 -125 185 -216 353 -253 68 -15 104 -16 260 -9 238 12 501 12 547 1 l37 -8 -19 71 c-11 39 -20 96 -20 127 0 64 -19 103 -60 128 -36 21 -114 21 -150 0 -29 -18 -60 -62 -60 -87 0 -10 -23 -19 -82 -30 -46 -8 -86 -12 -89 -8 -4 3 -55 233 -114 511 -58 278 -111 522 -116 543 l-10 37 -128 0 -129 0 9 -39z"/>
 <path d="M2893 1268 c4 -13 43 -196 87 -408 44 -212 83 -395 87 -407 5 -22 9 -23 134 -23 71 0 129 1 129 3 0 1 -4 16 -9 32 l-8 30 65 -32 c53 -27 76 -33 129 -33 58 0 67 3 94 29 53 53 35 160 -34 201 -37 23 -85 26 -110 8 -9 -7 -22 -31 -29 -53 -13 -41 -32 -52 -71 -41 -61 17 -64 25 -138 373 -38 180 -69 331 -69 336 0 4 -59 7 -131 7 -131 0 -131 0 -126 -22z"/>
 <path d="M3735 1277 c-47 -22 -94 -66 -118 -111 -20 -37 -22 -55 -22 -186 1 -137 3 -150 33 -238 39 -113 73 -173 128 -229 67 -66 114 -86 220 -91 109 -5 148 6 195 54 32 33 34 40 38 115 3 70 0 86 -23 134 -48 97 -152 172 -294 211 l-62 17 0 60 c0 70 20 110 66 132 70 33 146 9 239 -77 100 -91 113 -119 161 -343 24 -110 44 -206 44 -212 0 -7 -11 -13 -25 -13 -26 0 -29 -9 -19 -47 5 -17 14 -23 34 -23 26 0 29 -4 39 -51 40 -185 41 -187 69 -193 69 -13 223 -29 229 -23 5 6 -16 125 -44 244 -5 22 -2 23 47 23 49 0 52 1 46 23 -3 12 -6 28 -6 35 0 8 -17 12 -53 12 l-53 0 -57 268 c-31 148 -57 284 -57 303 0 45 15 59 62 59 21 0 38 2 38 5 0 19 -46 97 -71 121 -27 26 -38 29 -107 32 -68 3 -81 1 -112 -20 -43 -29 -70 -80 -70 -133 l0 -41 -60 58 c-36 34 -91 72 -137 95 -69 34 -84 38 -172 40 -66 2 -105 -1 -126 -10z m226 -453 c82 -41 138 -130 139 -217 0 -64 -13 -87 -50 -87 -61 0 -128 93 -179 250 -29 87 -28 93 12 85 17 -4 53 -18 78 -31z"/>
 <path d="M1428 324 c-37 -20 -58 -63 -58 -119 0 -87 50 -135 140 -135 47 0 56 4 91 39 35 35 39 44 39 91 0 91 -48 140 -137 140 -26 -1 -60 -7 -75 -16z"/>
 </g>

</svg>