<?xml version="1.0" standalone="no"?>
<!DOCTYPE svg PUBLIC "-//W3C//DTD SVG 20010904//EN"
 "http://www.w3.org/TR/2001/REC-SVG-20010904/DTD/svg10.dtd">
<svg version="1.0" xmlns="http://www.w3.org/2000/svg"
 width="300.000000pt" height="300.000000pt" viewBox="0 0 300.000000 300.000000"
 preserveAspectRatio="xMidYMid meet">
<metadata>
Created by potrace 1.15, written by Peter Selinger 2001-2017
</metadata>
<g transform="translate(0.000000,300.000000) scale(0.100000,-0.100000)"
fill="#000000" stroke="none">
<path d="M1230 2756 c-125 -29 -259 -78 -343 -127 -38 -21 -71 -39 -73 -39 -3
0 -10 -5 -17 -10 -7 -6 -46 -37 -87 -69 -84 -66 -176 -159 -238 -241 -23 -30
-46 -60 -52 -67 -5 -7 -10 -14 -10 -17 0 -2 -18 -35 -39 -73 -51 -88 -96 -212
-126 -345 -34 -152 -34 -384 0 -536 30 -133 75 -257 126 -345 21 -38 39 -71
39 -73 0 -3 5 -10 10 -17 6 -7 37 -46 69 -87 66 -84 159 -176 241 -238 30 -23
60 -46 67 -52 7 -5 14 -10 17 -10 2 0 35 -18 73 -39 88 -51 212 -96 345 -126
152 -34 384 -34 536 0 133 30 257 75 345 126 38 21 71 39 73 39 3 0 10 5 17
10 7 6 37 29 67 52 82 62 175 154 241 238 32 41 63 80 69 87 5 7 10 14 10 17
0 2 18 35 39 73 51 88 96 212 126 345 20 88 24 134 24 268 0 134 -4 180 -24
268 -30 133 -75 257 -126 345 -21 38 -39 71 -39 73 0 3 -5 10 -10 17 -6 7 -37
46 -69 87 -66 84 -159 176 -241 238 -30 23 -60 46 -67 52 -7 5 -14 10 -17 10
-2 0 -35 18 -73 39 -88 51 -212 96 -344 126 -147 33 -396 33 -539 1z m195
-361 c39 -10 73 -21 77 -24 7 -6 -35 -158 -63 -232 l-10 -26 -54 29 c-30 16
-64 31 -77 34 -57 14 -144 15 -201 3 -50 -10 -69 -20 -104 -56 -41 -41 -43
-45 -43 -103 0 -95 13 -110 258 -318 157 -133 207 -204 231 -328 11 -57 9 -76
-13 -180 -2 -12 -14 -40 -26 -63 -75 -147 -266 -241 -492 -241 -162 0 -378 55
-378 97 0 11 69 230 76 241 1 2 24 -11 52 -28 83 -51 154 -70 257 -70 104 0
144 11 196 51 66 52 84 120 50 187 -24 46 -49 72 -132 139 -266 216 -287 238
-330 352 -28 75 -23 208 11 296 43 112 169 216 305 252 70 18 317 11 410 -12z
m1162 -469 c-3 -8 -9 -32 -12 -53 -4 -21 -11 -59 -18 -85 l-11 -48 -197 0
c-221 0 -203 7 -214 -79 -3 -24 -8 -47 -10 -51 -2 -4 -7 -26 -10 -49 -3 -23
-9 -61 -14 -84 -5 -23 -15 -71 -21 -107 -13 -74 -28 -155 -40 -220 -5 -25 -14
-74 -20 -110 -6 -36 -15 -85 -20 -110 -5 -25 -14 -76 -21 -115 -6 -38 -15 -83
-18 -100 l-7 -30 -107 -3 -107 -3 0 29 c0 15 9 73 20 127 11 55 25 125 30 155
25 148 52 291 65 350 8 36 21 108 29 160 20 123 25 148 36 190 6 19 10 38 10
43 0 4 -92 7 -203 7 l-204 0 8 48 c5 26 12 71 15 100 l7 52 519 0 c447 0 519
-2 515 -14z"/>
</g>
</svg>
